<svg xmlns="http://www.w3.org/2000/svg" width="400" height="300" viewBox="0 0 400 300">
  <rect width="400" height="300" fill="#f2f2ef"/>
  <ellipse cx="200" cy="232" rx="132" ry="8" fill="#1d1d1f" fill-opacity="0.1"/>
  <rect x="98" y="52" width="204" height="142" rx="10" fill="#22252a"/>
  <rect x="108" y="62" width="184" height="118" rx="3" fill="#e9edf2"/>
  <path d="M 70 194 H 330 L 340 214 C 340 220 336 224 330 224 H 70 C 64 224 60 220 60 214 Z" fill="#5f6e80"/>
  <path d="M 172 194 H 228 C 228 200 224 203 218 203 H 182 C 176 203 172 200 172 194 Z" fill="#48566a"/>
  <path d="M 60 214 C 60 220 64 224 70 224 H 330 C 336 224 340 220 340 214" stroke="#48566a" stroke-width="3" fill="none"/>
  <rect x="116" y="70" width="80" height="102" rx="3" fill="#ffffff"/>
  <rect x="124" y="80" width="58" height="5" rx="2.5" fill="#b8c2cf"/>
  <rect x="124" y="92" width="64" height="5" rx="2.5" fill="#b8c2cf"/>
  <rect x="124" y="104" width="50" height="5" rx="2.5" fill="#b8c2cf"/>
  <rect x="124" y="116" width="62" height="5" rx="2.5" fill="#b8c2cf"/>
  <rect x="124" y="128" width="40" height="5" rx="2.5" fill="#b8c2cf"/>
  <rect x="124" y="140" width="60" height="5" rx="2.5" fill="#b8c2cf"/>
  <rect x="124" y="152" width="54" height="5" rx="2.5" fill="#b8c2cf"/>
  <rect x="204" y="70" width="40" height="46" rx="4" fill="#cfe0f2"/>
  <circle cx="224" cy="88" r="8" fill="#4f76a8"/>
  <path d="M 210 116 C 212 102 236 102 238 116 Z" fill="#4f76a8"/>
  <rect x="248" y="70" width="40" height="46" rx="4" fill="#f0dcc8"/>
  <circle cx="268" cy="88" r="8" fill="#a9744a"/>
  <path d="M 254 116 C 256 102 280 102 282 116 Z" fill="#a9744a"/>
  <rect x="204" y="122" width="40" height="46" rx="4" fill="#d9ecdf"/>
  <circle cx="224" cy="140" r="8" fill="#4c8a63"/>
  <path d="M 210 168 C 212 154 236 154 238 168 Z" fill="#4c8a63"/>
  <rect x="248" y="122" width="40" height="46" rx="4" fill="#e6dcf0"/>
  <circle cx="268" cy="140" r="8" fill="#7a5ca3"/>
  <path d="M 254 168 C 256 154 280 154 282 168 Z" fill="#7a5ca3"/>
</svg>
