<?xml version="1.0" encoding="UTF-8"?>
<svg version="1.1" xmlns="http://www.w3.org/2000/svg" width="1000" height="1000">
<path d="M0 0 C330 0 660 0 1000 0 C1000 330 1000 660 1000 1000 C670 1000 340 1000 0 1000 C0 670 0 340 0 0 Z " fill="#FEFEFE" transform="translate(0,0)"/>
<path d="M0 0 C1.04795242 -0.01007584 2.09590485 -0.02015167 3.1756134 -0.03053284 C6.63378627 -0.05898645 10.0915221 -0.06488847 13.54980469 -0.06811523 C15.96108172 -0.07775916 18.372357 -0.08785185 20.78363037 -0.09837341 C25.83740303 -0.11632908 30.89102192 -0.12189511 35.94482422 -0.12011719 C42.40553591 -0.11981262 48.86525623 -0.16074374 55.32573318 -0.21243382 C60.30676762 -0.24587213 65.28756448 -0.25187242 70.26869965 -0.25028801 C72.64963951 -0.25381756 75.03058621 -0.26702772 77.4114151 -0.29028511 C80.75023264 -0.31984381 84.08692588 -0.31099301 87.42578125 -0.29296875 C88.39963272 -0.30982727 89.37348419 -0.32668579 90.37684631 -0.34405518 C97.65656037 -0.2447251 102.7474968 1.93441774 108.47167969 6.43579102 C112.70497794 11.00998995 116.31226903 15.84905121 116.59667969 22.24829102 C116.55542969 22.97016602 116.51417969 23.69204102 116.47167969 24.43579102 C117.60992188 24.70262695 118.74816406 24.96946289 119.92089844 25.24438477 C164.62100407 36.46111819 207.34208954 67.33445782 235.47167969 103.43579102 C236.24769531 104.38325195 237.02371094 105.33071289 237.82324219 106.30688477 C264.61536618 139.69072181 284.06757315 185.81489005 283.53417969 229.06079102 C283.52966797 229.77879883 283.52515625 230.49680664 283.52050781 231.23657227 C283.50895374 232.9696831 283.49103127 234.70274971 283.47167969 236.43579102 C284.096875 236.53891602 284.72207031 236.64204102 285.36621094 236.74829102 C299.19187154 239.80906619 311.3882394 244.12147413 320.17089844 255.67016602 C324.64002666 262.96770141 324.52267055 271.20302927 323.47167969 279.43579102 C322.26959947 283.16034664 320.66433914 286.20753147 318.47167969 289.43579102 C317.91480469 290.34329102 317.35792969 291.25079102 316.78417969 292.18579102 C308.52795213 300.21887729 299.50402741 302.67952869 288.32519531 302.61157227 C287.23916016 302.59481445 286.153125 302.57805664 285.03417969 302.56079102 C283.92107422 302.55176758 282.80796875 302.54274414 281.66113281 302.53344727 C278.93122159 302.51001455 276.201422 302.47414805 273.47167969 302.43579102 C274.13167969 307.71579102 274.79167969 312.99579102 275.47167969 318.43579102 C277.08816406 318.3777832 278.70464844 318.31977539 280.37011719 318.26000977 C282.52894226 318.21307879 284.68779885 318.16758224 286.84667969 318.12329102 C287.90757812 318.08139648 288.96847656 318.03950195 290.06152344 317.99633789 C298.5593961 317.86600242 305.23247494 319.56422815 311.61962891 325.39746094 C317.78050403 331.76930191 319.93516738 338.80065464 319.85986328 347.54492188 C319.86512024 348.3119191 319.8703772 349.07891632 319.87579346 349.86915588 C319.88889116 352.3798621 319.88029128 354.88992319 319.87011719 357.40063477 C319.87214108 359.16126119 319.87505514 360.9218868 319.8788147 362.68251038 C319.88322438 366.36329164 319.87685164 370.0438537 319.86279297 373.72460938 C319.84571451 378.42291469 319.85554235 383.12070526 319.87351036 387.81899166 C319.88439575 391.45231442 319.88087992 395.08551691 319.87312698 398.71884346 C319.87113744 400.45025253 319.87354006 402.18167281 319.88056564 403.91306877 C319.91594273 415.08171655 319.94581279 425.53217343 312.40917969 434.57250977 C304.48517719 442.19297185 296.77459664 442.90761417 286.22167969 442.81079102 C282.63528494 442.73368201 279.05447517 442.61338256 275.47167969 442.43579102 C275.41761963 443.15226807 275.36355957 443.86874512 275.30786133 444.60693359 C273.26033237 469.59433156 260.20664128 491.86138557 241.28417969 508.06079102 C223.27644804 522.24187969 203.29321396 528.76460201 180.43669128 528.70321655 C179.17928755 528.70774767 177.92188381 528.71227878 176.62637693 528.7169472 C173.17073658 528.72907038 169.71519381 528.72892952 166.2595371 528.72655845 C162.51912501 528.72614756 158.77874309 528.73721506 155.03834534 528.74667358 C147.72366791 528.76322482 140.40902273 528.76878042 133.09432813 528.76989834 C127.14460495 528.77085144 121.19489233 528.77497473 115.2451725 528.78129959 C98.34809111 528.79889452 81.45103504 528.80814099 64.55394443 528.80663864 C63.64467548 528.80655873 62.73540654 528.80647882 61.79858398 528.80639648 C60.88819531 528.80631472 59.97780663 528.80623296 59.03983042 528.80614872 C44.28760302 528.80533591 29.53547773 528.82447709 14.78327986 528.85267322 C-0.39211626 528.88144767 -15.56746265 528.89521106 -30.74288672 528.89348567 C-39.25157121 528.89282343 -47.76014857 528.89824277 -56.26880836 528.91984177 C-63.512671 528.93811354 -70.75637793 528.94235179 -78.00025371 528.92882292 C-81.69031498 528.92232388 -85.38007802 528.92206398 -89.07011032 528.93952942 C-117.40385102 529.0652225 -117.40385102 529.0652225 -129.52832031 524.43579102 C-131.15573261 523.83804147 -131.15573261 523.83804147 -132.81602192 523.22821617 C-156.04528561 514.37704988 -174.96488794 496.7598451 -185.54785156 474.28344727 C-190.03126063 464.19866119 -193.52832031 453.57818777 -193.52832031 442.43579102 C-194.17269043 442.4619751 -194.81706055 442.48815918 -195.48095703 442.51513672 C-198.4548211 442.62030022 -201.42829254 442.68448834 -204.40332031 442.74829102 C-205.41652344 442.79018555 -206.42972656 442.83208008 -207.47363281 442.87524414 C-216.21161821 443.01527596 -222.4878365 440.8523766 -229.18457031 435.18969727 C-229.79300781 434.4665332 -230.40144531 433.74336914 -231.02832031 432.99829102 C-231.97191406 431.91741211 -231.97191406 431.91741211 -232.93457031 430.81469727 C-236.44587339 425.57356106 -236.82326922 420.32418091 -236.80297852 414.1706543 C-236.80808945 413.36332855 -236.81320038 412.55600281 -236.81846619 411.72421265 C-236.83231161 409.06809984 -236.83140912 406.41224802 -236.82910156 403.75610352 C-236.83299149 401.90054224 -236.83732677 400.04498185 -236.84208679 398.18942261 C-236.84953831 394.30423087 -236.84926563 390.41913001 -236.84399414 386.53393555 C-236.83820337 381.56870831 -236.85512622 376.60385457 -236.87833881 371.63868904 C-236.89311093 367.80725957 -236.89394308 363.97591931 -236.89082909 360.1444664 C-236.89134063 358.31453589 -236.89654687 356.48460016 -236.90664101 354.65469742 C-236.91905467 352.08946107 -236.91218438 349.52494269 -236.90063477 346.9597168 C-236.9082785 346.21244324 -236.91592224 345.46516968 -236.92379761 344.69525146 C-236.85031745 337.26674012 -234.66883344 330.60020775 -229.44189453 325.16308594 C-222.13499146 318.56748257 -214.38287286 317.7489466 -204.90332031 318.12329102 C-203.80375 318.14584961 -202.70417969 318.1684082 -201.57128906 318.19165039 C-198.88969821 318.24994584 -196.2088194 318.33960086 -193.52832031 318.43579102 C-192.86832031 313.48579102 -192.20832031 308.53579102 -191.52832031 303.43579102 C-192.78386719 303.41000977 -194.03941406 303.38422852 -195.33300781 303.35766602 C-213.05680644 302.82830673 -213.05680644 302.82830673 -220.52832031 298.43579102 C-221.24117187 298.02458008 -221.95402344 297.61336914 -222.68847656 297.18969727 C-228.70716232 293.21848965 -232.82676166 287.40475985 -235.16503906 280.57641602 C-236.6293039 271.94827482 -236.6088174 263.22972186 -232.06738281 255.58032227 C-223.89153438 244.18808677 -211.55119087 240.14533596 -198.52832031 236.43579102 C-197.53832031 236.43579102 -196.54832031 236.43579102 -195.52832031 236.43579102 C-195.57472656 235.51024414 -195.62113281 234.58469727 -195.66894531 233.63110352 C-196.3645846 212.78316583 -192.0720665 192.14597 -185.52832031 172.43579102 C-185.29387207 171.7280957 -185.05942383 171.02040039 -184.81787109 170.29125977 C-176.50776346 145.75386362 -163.60981548 123.65499393 -147.52832031 103.43579102 C-146.85615479 102.58791016 -146.85615479 102.58791016 -146.17041016 101.72290039 C-135.68715373 88.62562708 -123.80498089 76.69416041 -110.52832031 66.43579102 C-109.07619141 65.25823242 -109.07619141 65.25823242 -107.59472656 64.05688477 C-89.30426555 49.34915114 -67.92465087 37.90652383 -46.15332031 29.31079102 C-44.7182312 28.74303955 -44.7182312 28.74303955 -43.25415039 28.16381836 C-38.31555394 26.28065229 -33.79796658 24.91484977 -28.52832031 24.43579102 C-28.46644531 23.28079102 -28.40457031 22.12579102 -28.34082031 20.93579102 C-27.54025367 14.65356669 -24.30576521 9.76747942 -19.59082031 5.62329102 C-12.8804915 0.83019901 -8.0623232 -0.0111627 0 0 Z " fill="#5665F6" transform="translate(456.5283203125,235.564208984375)"/>
<path d="M0 0 C142.23 0 284.46 0 431 0 C434.37508521 13.50034084 434.37508521 13.50034084 434.3742218 18.34230042 C434.38123611 19.44515381 434.38825043 20.5480072 434.39547729 21.6842804 C434.38783356 22.84880234 434.38018982 24.01332428 434.37231445 25.21313477 C434.37596512 26.47493561 434.37961578 27.73673645 434.38337708 29.03677368 C434.39268516 32.46035081 434.38344736 35.88363697 434.37004495 39.30719113 C434.35862022 42.91214547 434.36284632 46.51708777 434.36479187 50.12205505 C434.36567128 56.17150552 434.35466778 62.22084317 434.33618164 68.27026367 C434.31500987 75.2378863 434.31150834 82.205344 434.3177436 89.17299229 C434.32346204 95.9112733 434.31776312 102.64949696 434.30657005 109.3877697 C434.30195776 112.23955293 434.30103544 115.09130071 434.3031559 117.94308662 C434.30541032 121.93423025 434.2908467 125.92514833 434.2746582 129.91625977 C434.27837433 131.66607903 434.27837433 131.66607903 434.28216553 133.45124817 C434.21736196 143.51307351 433.05953349 152.8169384 428.8125 162 C428.50135254 162.68296143 428.19020508 163.36592285 427.86962891 164.06958008 C418.02980043 185.17727878 402.20050619 198.63878357 380.5546875 206.9375 C371.94854704 209.97152918 363.78208602 210.14862108 354.72486877 210.14717102 C352.87073102 210.15268605 352.87073102 210.15268605 350.97913593 210.1583125 C347.55974934 210.16740417 344.14041061 210.17204127 340.72101653 210.17470181 C337.02822166 210.17861962 333.33544049 210.18819687 329.64265442 210.19691467 C320.73032981 210.21663743 311.81800413 210.22673994 302.90566316 210.23564246 C298.70228989 210.2400322 294.49891787 210.24539722 290.29554558 210.25063133 C276.31171334 210.26763937 262.32788186 210.28213181 248.34404087 210.28938007 C244.71869976 210.29128977 241.09335866 210.29321013 237.46801758 210.29516602 C236.56702617 210.29564976 235.66603475 210.2961335 234.73774057 210.2966319 C220.15400508 210.30492586 205.57035178 210.33025398 190.98665214 210.36274669 C175.99334711 210.39587803 161.00008376 210.41383431 146.00674194 210.41702431 C137.59687094 210.41918378 129.1871198 210.42784963 120.77728462 210.45348549 C113.61275425 210.47527566 106.44837288 210.48320227 99.28381313 210.47351871 C95.63416055 210.46899794 91.98481484 210.4707289 88.33520508 210.49028015 C62.52361677 210.6209353 41.80587277 207.83233384 22 190 C20.97519531 189.11441406 20.97519531 189.11441406 19.9296875 188.2109375 C7.59642857 176.844993 -2.04616338 158.06929542 -3.18839455 141.22113991 C-3.26655367 137.90355559 -3.28165055 134.59121281 -3.2746582 131.27270508 C-3.27976913 130.01470093 -3.28488007 128.75669678 -3.29014587 127.46057129 C-3.30346826 124.02843351 -3.3041218 120.59640632 -3.30158257 117.16424775 C-3.30050758 114.28705272 -3.30541003 111.40987958 -3.310188 108.53268927 C-3.32126129 101.73556178 -3.32173384 94.93848956 -3.31567383 88.14135742 C-3.3096447 81.16019273 -3.32192294 74.17923013 -3.3432439 67.19809991 C-3.3609416 61.17908863 -3.3668482 55.16014118 -3.36360615 49.14110488 C-3.36180503 45.55755882 -3.36431035 41.97415672 -3.37832069 38.39063454 C-3.3933963 34.38504866 -3.3838581 30.37986529 -3.37231445 26.37426758 C-3.37995819 25.20862778 -3.38760193 24.04298798 -3.39547729 22.84202576 C-3.34267335 14.49672842 -1.959464 8.49101065 0 0 Z " fill="#F3F3F3" transform="translate(282,538)"/>
<path d="M0 0 C1.04795242 -0.01007584 2.09590485 -0.02015167 3.1756134 -0.03053284 C6.63378627 -0.05898645 10.0915221 -0.06488847 13.54980469 -0.06811523 C15.96108172 -0.07775916 18.372357 -0.08785185 20.78363037 -0.09837341 C25.83740303 -0.11632908 30.89102192 -0.12189511 35.94482422 -0.12011719 C42.40553591 -0.11981262 48.86525623 -0.16074374 55.32573318 -0.21243382 C60.30676762 -0.24587213 65.28756448 -0.25187242 70.26869965 -0.25028801 C72.64963951 -0.25381756 75.03058621 -0.26702772 77.4114151 -0.29028511 C80.75023264 -0.31984381 84.08692588 -0.31099301 87.42578125 -0.29296875 C88.39963272 -0.30982727 89.37348419 -0.32668579 90.37684631 -0.34405518 C97.65656037 -0.2447251 102.7474968 1.93441774 108.47167969 6.43579102 C112.70497794 11.00998995 116.31226903 15.84905121 116.59667969 22.24829102 C116.55542969 22.97016602 116.51417969 23.69204102 116.47167969 24.43579102 C117.60992188 24.70262695 118.74816406 24.96946289 119.92089844 25.24438477 C164.62100407 36.46111819 207.34208954 67.33445782 235.47167969 103.43579102 C236.24769531 104.38325195 237.02371094 105.33071289 237.82324219 106.30688477 C264.61536618 139.69072181 284.06757315 185.81489005 283.53417969 229.06079102 C283.52966797 229.77879883 283.52515625 230.49680664 283.52050781 231.23657227 C283.50895374 232.9696831 283.49103127 234.70274971 283.47167969 236.43579102 C284.096875 236.53891602 284.72207031 236.64204102 285.36621094 236.74829102 C299.19187154 239.80906619 311.3882394 244.12147413 320.17089844 255.67016602 C324.64002666 262.96770141 324.52267055 271.20302927 323.47167969 279.43579102 C322.26959947 283.16034664 320.66433914 286.20753147 318.47167969 289.43579102 C317.91480469 290.34329102 317.35792969 291.25079102 316.78417969 292.18579102 C308.52795213 300.21887729 299.50402741 302.67952869 288.32519531 302.61157227 C287.23916016 302.59481445 286.153125 302.57805664 285.03417969 302.56079102 C283.92107422 302.55176758 282.80796875 302.54274414 281.66113281 302.53344727 C278.93122159 302.51001455 276.201422 302.47414805 273.47167969 302.43579102 C274.13167969 307.71579102 274.79167969 312.99579102 275.47167969 318.43579102 C277.08816406 318.3777832 278.70464844 318.31977539 280.37011719 318.26000977 C282.52894226 318.21307879 284.68779885 318.16758224 286.84667969 318.12329102 C287.90757812 318.08139648 288.96847656 318.03950195 290.06152344 317.99633789 C298.5593961 317.86600242 305.23247494 319.56422815 311.61962891 325.39746094 C317.78050403 331.76930191 319.93516738 338.80065464 319.85986328 347.54492188 C319.86512024 348.3119191 319.8703772 349.07891632 319.87579346 349.86915588 C319.88889116 352.3798621 319.88029128 354.88992319 319.87011719 357.40063477 C319.87214108 359.16126119 319.87505514 360.9218868 319.8788147 362.68251038 C319.88322438 366.36329164 319.87685164 370.0438537 319.86279297 373.72460938 C319.84571451 378.42291469 319.85554235 383.12070526 319.87351036 387.81899166 C319.88439575 391.45231442 319.88087992 395.08551691 319.87312698 398.71884346 C319.87113744 400.45025253 319.87354006 402.18167281 319.88056564 403.91306877 C319.91594273 415.08171655 319.94581279 425.53217343 312.40917969 434.57250977 C304.48517719 442.19297185 296.77459664 442.90761417 286.22167969 442.81079102 C282.63528494 442.73368201 279.05447517 442.61338256 275.47167969 442.43579102 C275.41761963 443.15226807 275.36355957 443.86874512 275.30786133 444.60693359 C273.26033237 469.59433156 260.20664128 491.86138557 241.28417969 508.06079102 C223.27644804 522.24187969 203.29321396 528.76460201 180.43669128 528.70321655 C179.17928755 528.70774767 177.92188381 528.71227878 176.62637693 528.7169472 C173.17073658 528.72907038 169.71519381 528.72892952 166.2595371 528.72655845 C162.51912501 528.72614756 158.77874309 528.73721506 155.03834534 528.74667358 C147.72366791 528.76322482 140.40902273 528.76878042 133.09432813 528.76989834 C127.14460495 528.77085144 121.19489233 528.77497473 115.2451725 528.78129959 C98.34809111 528.79889452 81.45103504 528.80814099 64.55394443 528.80663864 C63.64467548 528.80655873 62.73540654 528.80647882 61.79858398 528.80639648 C60.88819531 528.80631472 59.97780663 528.80623296 59.03983042 528.80614872 C44.28760302 528.80533591 29.53547773 528.82447709 14.78327986 528.85267322 C-0.39211626 528.88144767 -15.56746265 528.89521106 -30.74288672 528.89348567 C-39.25157121 528.89282343 -47.76014857 528.89824277 -56.26880836 528.91984177 C-63.512671 528.93811354 -70.75637793 528.94235179 -78.00025371 528.92882292 C-81.69031498 528.92232388 -85.38007802 528.92206398 -89.07011032 528.93952942 C-117.40385102 529.0652225 -117.40385102 529.0652225 -129.52832031 524.43579102 C-131.15573261 523.83804147 -131.15573261 523.83804147 -132.81602192 523.22821617 C-156.04528561 514.37704988 -174.96488794 496.7598451 -185.54785156 474.28344727 C-190.03126063 464.19866119 -193.52832031 453.57818777 -193.52832031 442.43579102 C-194.17269043 442.4619751 -194.81706055 442.48815918 -195.48095703 442.51513672 C-198.4548211 442.62030022 -201.42829254 442.68448834 -204.40332031 442.74829102 C-205.41652344 442.79018555 -206.42972656 442.83208008 -207.47363281 442.87524414 C-216.21161821 443.01527596 -222.4878365 440.8523766 -229.18457031 435.18969727 C-229.79300781 434.4665332 -230.40144531 433.74336914 -231.02832031 432.99829102 C-231.97191406 431.91741211 -231.97191406 431.91741211 -232.93457031 430.81469727 C-236.44587339 425.57356106 -236.82326922 420.32418091 -236.80297852 414.1706543 C-236.80808945 413.36332855 -236.81320038 412.55600281 -236.81846619 411.72421265 C-236.83231161 409.06809984 -236.83140912 406.41224802 -236.82910156 403.75610352 C-236.83299149 401.90054224 -236.83732677 400.04498185 -236.84208679 398.18942261 C-236.84953831 394.30423087 -236.84926563 390.41913001 -236.84399414 386.53393555 C-236.83820337 381.56870831 -236.85512622 376.60385457 -236.87833881 371.63868904 C-236.89311093 367.80725957 -236.89394308 363.97591931 -236.89082909 360.1444664 C-236.89134063 358.31453589 -236.89654687 356.48460016 -236.90664101 354.65469742 C-236.91905467 352.08946107 -236.91218438 349.52494269 -236.90063477 346.9597168 C-236.9082785 346.21244324 -236.91592224 345.46516968 -236.92379761 344.69525146 C-236.85031745 337.26674012 -234.66883344 330.60020775 -229.44189453 325.16308594 C-222.13499146 318.56748257 -214.38287286 317.7489466 -204.90332031 318.12329102 C-203.80375 318.14584961 -202.70417969 318.1684082 -201.57128906 318.19165039 C-198.88969821 318.24994584 -196.2088194 318.33960086 -193.52832031 318.43579102 C-192.86832031 313.48579102 -192.20832031 308.53579102 -191.52832031 303.43579102 C-192.78386719 303.41000977 -194.03941406 303.38422852 -195.33300781 303.35766602 C-213.05680644 302.82830673 -213.05680644 302.82830673 -220.52832031 298.43579102 C-221.24117187 298.02458008 -221.95402344 297.61336914 -222.68847656 297.18969727 C-228.70716232 293.21848965 -232.82676166 287.40475985 -235.16503906 280.57641602 C-236.6293039 271.94827482 -236.6088174 263.22972186 -232.06738281 255.58032227 C-223.89153438 244.18808677 -211.55119087 240.14533596 -198.52832031 236.43579102 C-197.53832031 236.43579102 -196.54832031 236.43579102 -195.52832031 236.43579102 C-195.57472656 235.51024414 -195.62113281 234.58469727 -195.66894531 233.63110352 C-196.3645846 212.78316583 -192.0720665 192.14597 -185.52832031 172.43579102 C-185.29387207 171.7280957 -185.05942383 171.02040039 -184.81787109 170.29125977 C-176.50776346 145.75386362 -163.60981548 123.65499393 -147.52832031 103.43579102 C-146.85615479 102.58791016 -146.85615479 102.58791016 -146.17041016 101.72290039 C-135.68715373 88.62562708 -123.80498089 76.69416041 -110.52832031 66.43579102 C-109.07619141 65.25823242 -109.07619141 65.25823242 -107.59472656 64.05688477 C-89.30426555 49.34915114 -67.92465087 37.90652383 -46.15332031 29.31079102 C-44.7182312 28.74303955 -44.7182312 28.74303955 -43.25415039 28.16381836 C-38.31555394 26.28065229 -33.79796658 24.91484977 -28.52832031 24.43579102 C-28.46644531 23.28079102 -28.40457031 22.12579102 -28.34082031 20.93579102 C-27.54025367 14.65356669 -24.30576521 9.76747942 -19.59082031 5.62329102 C-12.8804915 0.83019901 -8.0623232 -0.0111627 0 0 Z M-10.60679626 18.12130737 C-13.73513822 23.51746062 -13.21090202 28.94227261 -13.15600586 35.06689453 C-13.16118645 36.47000071 -13.16858784 37.87310018 -13.17803955 39.27618408 C-13.19358959 42.29270255 -13.19344184 45.30866527 -13.181036 48.32519722 C-13.16148748 53.09456993 -13.17669543 57.86344886 -13.19648743 62.63279724 C-13.22362775 70.17506218 -13.22712981 77.71712574 -13.22071439 85.25942987 C-13.2097709 98.77001944 -13.23435482 112.28054856 -13.27446204 125.79107612 C-13.28754131 130.53261975 -13.28878737 135.27397907 -13.28032911 140.01553166 C-13.27670634 142.96351238 -13.28100182 145.91144593 -13.28717041 148.85942078 C-13.28877475 150.87918189 -13.28030836 152.89894311 -13.27156067 154.91868591 C-13.27549835 156.1201828 -13.27943604 157.32167969 -13.28349304 158.55958557 C-13.28204804 160.12611043 -13.28204804 160.12611043 -13.28057384 161.72428226 C-13.53344833 164.49191561 -14.01417139 166.12269247 -15.52832031 168.43579102 C-18.57816027 169.96071099 -21.17065721 169.6714165 -24.52832031 169.43579102 C-26.2260561 168.23930645 -26.2260561 168.23930645 -27.52832031 166.43579102 C-27.91308117 164.1144762 -27.91308117 164.1144762 -27.92704773 161.32954407 C-27.93958588 160.27365082 -27.95212402 159.21775757 -27.96504211 158.12986755 C-27.96360703 156.97181107 -27.96217194 155.81375458 -27.96069336 154.62060547 C-27.97598083 152.79115387 -27.97598083 152.79115387 -27.99157715 150.92474365 C-28.01661688 147.57985882 -28.02843726 144.23541334 -28.03443122 140.89047265 C-28.04380384 137.39502725 -28.07000626 133.8997094 -28.09443665 130.40434265 C-28.13813611 123.78522352 -28.16666181 117.16612909 -28.18976003 110.54690951 C-28.21679331 103.01123901 -28.2607059 95.4756966 -28.30604875 87.94011748 C-28.39894434 72.43874113 -28.47060247 56.93734066 -28.52832031 41.43579102 C-32.64279639 41.99015602 -36.31112842 42.51781255 -40.13769531 44.15063477 C-40.9651123 44.50182373 -41.7925293 44.8530127 -42.64501953 45.21484375 C-43.51400879 45.59713135 -44.38299805 45.97941895 -45.27832031 46.37329102 C-46.19500488 46.77298096 -47.11168945 47.1726709 -48.05615234 47.58447266 C-73.28279632 58.75751162 -95.60477397 73.34014272 -115.52832031 92.43579102 C-116.40641357 93.26506104 -116.40641357 93.26506104 -117.30224609 94.11108398 C-132.41873722 108.43971903 -144.22329206 124.37018592 -154.52832031 142.43579102 C-154.93566406 143.14735352 -155.34300781 143.85891602 -155.76269531 144.59204102 C-172.11750613 173.47846012 -178.91828065 204.41802526 -180.70703125 237.35107422 C-180.80419434 238.86640747 -180.80419434 238.86640747 -180.90332031 240.41235352 C-180.95230469 241.31034668 -181.00128906 242.20833984 -181.05175781 243.13354492 C-181.61505897 245.85482048 -182.34983599 246.75751731 -184.52832031 248.43579102 C-187.16503906 249.49829102 -187.16503906 249.49829102 -190.21582031 250.43579102 C-191.28960937 250.77610352 -192.36339844 251.11641602 -193.46972656 251.46704102 C-194.4790625 251.78672852 -195.48839844 252.10641602 -196.52832031 252.43579102 C-198.54046591 253.14554255 -200.53221902 253.88866792 -202.52050781 254.66235352 C-204.03653175 255.24634717 -205.56500752 255.79815889 -207.09863281 256.33422852 C-213.13115318 258.53266888 -216.56555487 260.51026013 -219.52832031 266.43579102 C-220.078101 271.44690682 -220.08986544 275.33275595 -217.77832031 279.87329102 C-214.86263163 283.19393646 -212.72394086 285.03725083 -208.52832031 286.43579102 C-205.77962994 286.53335827 -203.05638738 286.57330854 -200.30757523 286.56721878 C-199.45527053 286.56927141 -198.60296584 286.57132405 -197.72483373 286.57343888 C-194.84349876 286.57913324 -191.96221122 286.57764864 -189.08087158 286.57623291 C-187.00437132 286.57881515 -184.92787155 286.58182791 -182.85137248 286.58523631 C-177.12526914 286.59332614 -171.39917833 286.59509698 -165.67306995 286.59583378 C-159.50523859 286.59768089 -153.33741378 286.60522648 -147.16958618 286.61196899 C-132.9698169 286.62627619 -118.77005174 286.63208065 -104.57027698 286.63666094 C-97.55526893 286.63899586 -90.54026169 286.6425984 -83.52525428 286.64635632 C-59.51826767 286.65919254 -35.51128151 286.66991178 -11.50429153 286.67335892 C-9.99690792 286.67358055 -8.48952431 286.67380233 -6.9821407 286.67402427 C-5.47108892 286.67424491 -3.96003713 286.67446539 -2.44898534 286.67468572 C0.58251238 286.67512827 3.6140101 286.67557539 6.64550781 286.67602539 C7.77296293 286.67618948 7.77296293 286.67618948 8.92319492 286.67635688 C33.29914297 286.67998811 57.6750613 286.6959103 82.05099797 286.71921575 C107.81482089 286.74380316 133.57862682 286.75753125 159.34246182 286.75872684 C162.16984892 286.75889829 164.99723601 286.75911372 167.82462311 286.75936127 C168.52081949 286.75941704 169.21701587 286.7594728 169.93430911 286.75953026 C181.14563309 286.76068165 192.3569266 286.77171107 203.56824029 286.78624832 C214.83393114 286.80060365 226.0995834 286.80360293 237.36528441 286.79580835 C243.47036417 286.79189251 249.57534125 286.79287689 255.68040848 286.80686569 C261.26652529 286.81954864 266.85246168 286.81845656 272.43857804 286.80627498 C274.46215439 286.80430823 276.48574329 286.80744121 278.50930199 286.81611934 C281.25561186 286.82715368 284.00127842 286.8197648 286.74757004 286.80772781 C287.5369135 286.81532301 288.32625697 286.8229182 289.13951993 286.83074355 C294.30027327 286.78176706 297.88724395 285.85405488 302.47167969 283.43579102 C306.96430191 278.58848809 307.84367647 275.43949696 307.74121094 268.97485352 C307.33263093 265.12591144 306.12746723 263.22436794 303.47167969 260.43579102 C296.18228118 256.36205859 288.43252891 253.93272371 280.52050781 251.34790039 C279.03260742 250.84806641 279.03260742 250.84806641 277.51464844 250.33813477 C276.61770264 250.04414795 275.72075684 249.75016113 274.79663086 249.44726562 C272.37018251 248.39163447 271.06905476 247.53367265 269.47167969 245.43579102 C269.13414058 242.85197398 268.9639433 240.46407582 268.90917969 237.87329102 C268.8436613 236.32235831 268.7745388 234.77157442 268.70214844 233.22094727 C268.66653809 232.42446777 268.63092773 231.62798828 268.59423828 230.80737305 C266.03387787 181.26286897 244.60022814 135.04399379 210.47167969 99.43579102 C209.91883301 98.85039551 209.36598633 98.265 208.79638672 97.66186523 C199.44599609 87.79734594 189.52486015 79.33470655 178.47167969 71.43579102 C177.56047363 70.77353516 177.56047363 70.77353516 176.63085938 70.09790039 C161.18773487 58.94596023 136.05188871 41.43579102 116.47167969 41.43579102 C116.46809716 42.39796775 116.46809716 42.39796775 116.46444225 43.37958241 C116.40534047 58.97793376 116.32982164 74.57610577 116.23596478 90.17428303 C116.19097361 97.71741147 116.15156672 105.26049235 116.12524414 112.80371094 C116.10229082 119.3773657 116.06892296 125.95087036 116.02297813 132.52440614 C115.99900961 136.00599703 115.98030476 139.48743893 115.97406578 142.96911049 C115.96691092 146.85310841 115.93650761 150.73673234 115.90405273 154.62060547 C115.90548782 155.77866196 115.90692291 156.93671844 115.90840149 158.12986755 C115.89586334 159.1857608 115.8833252 160.24165405 115.8704071 161.32954407 C115.86579814 162.24857167 115.86118917 163.16759928 115.85644054 164.1144762 C115.47167969 166.43579102 115.47167969 166.43579102 114.16550922 168.2354002 C111.36398695 170.22079574 108.78435549 169.73156564 105.47167969 169.43579102 C102.47167969 167.43579102 102.47167969 167.43579102 101.47167969 164.43579102 C101.37531447 162.54434419 101.33834627 160.64966203 101.33364868 158.75576782 C101.32819534 157.57247391 101.322742 156.38917999 101.31712341 155.17002869 C101.31608109 153.87021561 101.31503876 152.57040253 101.31396484 151.23120117 C101.30929606 149.84972472 101.30415239 148.46824979 101.29856873 147.08677673 C101.28729075 144.11078664 101.27885515 141.13480654 101.27244949 138.15880203 C101.26176864 133.45245891 101.24152388 128.74618764 101.21932983 124.03988647 C101.15740743 110.65658863 101.10338438 97.27329511 101.0703125 83.88989258 C101.05196896 76.49914844 101.02303763 69.10852476 100.98230779 61.71786916 C100.96123551 57.80700564 100.9457802 53.89629393 100.94350052 49.98537064 C100.94135351 46.30646052 100.9254792 42.62786662 100.89911079 38.94905281 C100.88849151 36.95693358 100.89267138 34.96475265 100.89729309 32.97261047 C100.8862001 31.78367691 100.87510712 30.59474335 100.86367798 29.36978149 C100.85871276 27.8228659 100.85871276 27.8228659 100.85364723 26.24469948 C100.40593501 22.95231861 99.43563249 21.09784513 97.47167969 18.43579102 C94.39378873 16.38386371 93.74823907 16.18339515 90.27224731 16.16163635 C88.98953445 16.14667366 88.98953445 16.14667366 87.6809082 16.13140869 C86.74577393 16.13074402 85.81063965 16.13007935 84.84716797 16.12939453 C83.85989716 16.12107101 82.87262634 16.1127475 81.85543823 16.10417175 C78.58424971 16.08003073 75.31326041 16.0712947 72.04199219 16.06469727 C69.7713922 16.05573429 67.50079283 16.04661251 65.23019409 16.03733826 C60.46708743 16.0208347 55.70405118 16.01314561 50.94091797 16.01025391 C44.83511138 16.0048678 38.72996565 15.9671835 32.62434578 15.92150974 C27.93347756 15.89177986 23.24276929 15.88453123 18.55181503 15.88352776 C16.30071866 15.87931763 14.04962215 15.86685177 11.79861832 15.84601021 C8.65024347 15.81918032 5.50341092 15.82389683 2.35498047 15.83642578 C1.42389465 15.82159149 0.49280884 15.8067572 -0.4664917 15.79147339 C-4.52864571 15.83754944 -7.00153096 16.14736516 -10.60679626 18.12130737 Z M-174.52832031 302.43579102 C-176.69290343 311.8156512 -177.97205835 319.30932445 -177.94824219 328.66723633 C-177.95671173 329.91954544 -177.96518127 331.17185455 -177.97390747 332.46211243 C-177.99312856 335.85718281 -177.99906669 339.25170017 -177.99715996 342.64678669 C-177.99703908 345.50149998 -178.0056506 348.35616363 -178.01393747 351.21086287 C-178.03308383 357.95791133 -178.03608794 364.70483614 -178.02929688 371.4519043 C-178.02266601 378.36449679 -178.04550183 385.27655438 -178.08261061 392.18903852 C-178.11351155 398.16661768 -178.12464568 404.14402661 -178.12077379 410.12168384 C-178.1187268 413.67297464 -178.12386114 417.22384895 -178.14866638 420.77506256 C-178.31172006 446.11698588 -175.16275022 467.88383087 -157.52832031 487.43579102 C-156.93664062 488.1202832 -156.34496094 488.80477539 -155.73535156 489.51000977 C-143.83913352 502.42083062 -125.76373052 511.20620285 -108.35255396 512.71009886 C-105.06181284 512.81522145 -101.78362497 512.83134429 -98.49128723 512.81001282 C-97.24583545 512.81398722 -96.00038367 512.81796163 -94.71719092 512.82205647 C-91.2996057 512.82995173 -87.88253144 512.82458673 -84.46498883 512.81330597 C-80.7642308 512.80439611 -77.06350503 512.81292681 -73.36274719 512.81916809 C-66.12939691 512.82861805 -58.89614695 512.8220902 -51.66280416 512.80990515 C-43.22980082 512.7962322 -34.79682092 512.7979276 -26.36380931 512.80003848 C-11.31388947 512.80322267 3.73598291 512.79159238 18.78588867 512.77197266 C33.37346847 512.75296079 47.96099269 512.74588849 62.54858398 512.75146484 C78.45689503 512.75752813 94.3651817 512.75733627 110.27349073 512.74597901 C111.97091981 512.74477179 113.66834889 512.7435658 115.36577797 512.74236107 C116.20082553 512.74175753 117.03587309 512.74115399 117.89622512 512.74053216 C123.76820855 512.73666016 129.64018288 512.73704381 135.51216698 512.73894691 C142.67011672 512.74107303 149.82801792 512.73581298 156.98595401 512.72133336 C160.63480987 512.71411038 164.28359517 512.70999442 167.93245697 512.71457672 C171.89355092 512.71943003 175.85451754 512.70870023 179.81559753 512.69648743 C180.96044985 512.70026675 182.10530216 512.70404607 183.28484696 512.70793992 C205.06273935 512.58933004 223.24536314 503.619397 238.47167969 488.43579102 C239.58736328 487.35491211 239.58736328 487.35491211 240.72558594 486.25219727 C254.81453565 471.66696361 259.61417575 452.49436665 259.6328125 432.80615234 C259.6377774 431.54668793 259.64274231 430.28722351 259.64785767 428.98959351 C259.66091063 425.54922985 259.66741274 422.10888565 259.67186832 418.66850114 C259.67481079 416.51335472 259.67891776 414.35821348 259.6833725 412.20306969 C259.6970292 405.4434397 259.70670457 398.68382172 259.71057439 391.9241789 C259.71504972 384.15217284 259.73258081 376.38034311 259.76157498 368.60839063 C259.78327454 362.58008276 259.79328307 356.5518242 259.79461551 350.52347773 C259.7956577 346.93266951 259.80143933 343.34202745 259.81943512 339.75126076 C259.83915799 335.73820116 259.8345941 331.72550529 259.828125 327.71240234 C259.83733978 326.54159622 259.84655457 325.3707901 259.85604858 324.164505 C259.85047943 323.05587097 259.84491028 321.94723694 259.83917236 320.80500793 C259.8413722 319.38617923 259.8413722 319.38617923 259.84361649 317.93868732 C259.28522835 312.67979458 257.75431829 307.56634541 256.47167969 302.43579102 C114.24167969 302.43579102 -27.98832031 302.43579102 -174.52832031 302.43579102 Z " fill="#2C2D2D" transform="translate(456.5283203125,235.564208984375)"/>
<path d="M0 0 C13.48187498 7.75699452 21.76346786 16.87993048 27.41015625 31.38671875 C27.81234375 32.41732422 27.81234375 32.41732422 28.22265625 33.46875 C32.40630849 46.80414151 28.90799138 60.41388015 22.87109375 72.45703125 C16.56786405 83.18148367 8.02464122 90.10860224 -3.58984375 94.38671875 C-4.48960937 94.75023437 -5.389375 95.11375 -6.31640625 95.48828125 C-16.57811938 98.3047419 -29.41151885 97.77617308 -38.91796875 92.99609375 C-52.08517632 85.06496872 -60.53975905 75.8524515 -65.69921875 61.24609375 C-69.05525867 46.70325411 -67.45827093 32.19779213 -59.828125 19.44140625 C-53.78980107 10.45128503 -45.70752 3.40988923 -35.58984375 -0.61328125 C-34.73261719 -0.9690625 -33.87539063 -1.32484375 -32.9921875 -1.69140625 C-23.08112395 -4.37683793 -9.39869708 -4.24505336 0 0 Z " fill="#2B2B2B" transform="translate(414.58984375,565.61328125)"/>
<path d="M0 0 C9.71864559 7.50857458 16.37331792 18.48358381 19.1875 30.375 C19.4853371 33.65050566 19.52166354 36.89990305 19.5 40.1875 C19.49436035 41.07751709 19.4887207 41.96753418 19.48291016 42.88452148 C19.36668817 49.15878246 18.85130502 54.62036778 16.1875 60.375 C15.80851563 61.24898437 15.42953125 62.12296875 15.0390625 63.0234375 C9.22084451 75.02981797 -0.31760651 83.73588689 -12.8125 88.375 C-24.69401966 91.87385242 -37.47591999 92.10231222 -48.9140625 86.98828125 C-53.73074129 84.30729966 -57.80909458 81.15206448 -61.8125 77.375 C-62.45960938 76.76914062 -63.10671875 76.16328125 -63.7734375 75.5390625 C-73.24366746 65.73799481 -76.71933333 52.81746877 -77.1875 39.5625 C-76.93258389 25.73704967 -71.43133628 14.20525198 -62.125 4.125 C-44.52635107 -12.48265704 -19.67295789 -13.07942207 0 0 Z " fill="#2B2B2B" transform="translate(625.8125,571.625)"/>
<path d="M0 0 C0.86870728 0.0678772 1.73741455 0.13575439 2.63244629 0.20568848 C26.82407867 2.10972396 50.9637526 4.43959634 75.03662109 7.50439453 C78.44872619 7.93106531 81.86198733 8.33357076 85.27835083 8.72372437 C88.625238 9.11078734 91.96848024 9.5264188 95.3125 9.9375 C97.12911133 10.13762695 97.12911133 10.13762695 98.98242188 10.34179688 C108.160388 11.52416917 108.160388 11.52416917 111.29296875 14.40234375 C113 17 113 17 113 20.625 C111.69730619 25.0215916 111.69730619 25.0215916 109 27 C101.34388182 28.01945222 93.27034265 26.75186485 85.6484375 25.79296875 C84.60309845 25.66781387 83.5577594 25.542659 82.48074341 25.41371155 C80.2580724 25.14748653 78.03573506 24.87846264 75.8137207 24.60681152 C69.97952615 23.89540015 64.14227012 23.21031828 58.3046875 22.52734375 C57.15180237 22.39236481 55.99891724 22.25738586 54.81109619 22.11831665 C40.23233244 20.42646687 25.63213221 19.13056024 11 18 C9.75412109 17.90235352 8.50824219 17.80470703 7.22460938 17.70410156 C3.5669084 17.42046261 -0.09126873 17.14500587 -3.75 16.875 C-4.77158203 16.79926758 -5.79316406 16.72353516 -6.84570312 16.64550781 C-26.13747411 15.29202166 -45.41360923 14.76462932 -64.75 14.75 C-65.93512177 14.74832825 -67.12024353 14.74665649 -68.34127808 14.74493408 C-87.61262562 14.74333423 -106.81953003 15.34950469 -126.0625 16.375 C-127.25427856 16.43812378 -128.44605713 16.50124756 -129.6739502 16.56628418 C-150.80425091 17.70939281 -171.8584179 19.40502019 -192.875 21.875 C-194.3499084 22.04547675 -195.82484403 22.21571814 -197.29980469 22.38574219 C-204.98244155 23.2752062 -212.66051035 24.19885115 -220.3359375 25.1484375 C-221.08998871 25.24136078 -221.84403992 25.33428406 -222.62094116 25.43002319 C-226.22447749 25.87432692 -229.82735146 26.32296575 -233.42919922 26.78076172 C-234.71584473 26.9407666 -236.00249023 27.10077148 -237.328125 27.265625 C-238.4512207 27.40774414 -239.57431641 27.54986328 -240.73144531 27.69628906 C-244.20918002 28.0194368 -247.51106951 28.21981616 -251 28 C-254 25.4375 -254 25.4375 -256 22 C-256 18.50118694 -255.90180992 16.1879951 -253.75292969 13.35717773 C-251.48179632 11.5987891 -249.79374011 11.36763366 -246.953125 10.97265625 C-245.90084717 10.8223999 -244.84856934 10.67214355 -243.7644043 10.51733398 C-242.60465088 10.36723877 -241.44489746 10.21714355 -240.25 10.0625 C-239.02643799 9.8962915 -237.80287598 9.73008301 -236.54223633 9.55883789 C-221.74994745 7.60966521 -206.90280261 6.13761511 -192.05401611 4.69491577 C-187.19271721 4.22139685 -182.33590158 3.71859378 -177.48046875 3.1875 C-118.83002855 -3.11362027 -58.84136125 -4.64089962 0 0 Z " fill="#2A2B2E" transform="translate(572,447)"/>
<path d="M0 0 C9.24 0 18.48 0 28 0 C27.67620361 1.88267578 27.35240723 3.76535156 27.01879883 5.70507812 C25.29242334 17.59896445 25.68910208 29.6848144 25.69841743 41.67193031 C25.69950012 44.43744851 25.69457139 47.20294438 25.689812 49.9684577 C25.67878577 56.50161309 25.67824101 63.03471094 25.68432617 69.56787109 C25.69036743 76.26342243 25.67803524 82.9587637 25.6567561 89.65427923 C25.63903748 95.44671366 25.63315456 101.23908183 25.63639385 107.0315423 C25.63818975 110.47196854 25.63574244 113.9122447 25.62167931 117.35264587 C25.54267482 141.72213912 27.33019292 162.61833186 42 183 C42.60585938 183.85207031 43.21171875 184.70414063 43.8359375 185.58203125 C51.13539898 195.27988722 60.18740758 201.88304965 70.76171875 207.6875 C71.50035156 208.120625 72.23898437 208.55375 73 209 C73 209.33 73 209.66 73 210 C55.95147423 211.47535319 39.78223899 204.25286627 26.5625 194 C25.02507553 192.68583189 23.50308418 191.35331067 22 190 C20.97519531 189.11441406 20.97519531 189.11441406 19.9296875 188.2109375 C7.59642857 176.844993 -2.04616338 158.06929542 -3.18839455 141.22113991 C-3.26655367 137.90355559 -3.28165055 134.59121281 -3.2746582 131.27270508 C-3.27976913 130.01470093 -3.28488007 128.75669678 -3.29014587 127.46057129 C-3.30346826 124.02843351 -3.3041218 120.59640632 -3.30158257 117.16424775 C-3.30050758 114.28705272 -3.30541003 111.40987958 -3.310188 108.53268927 C-3.32126129 101.73556178 -3.32173384 94.93848956 -3.31567383 88.14135742 C-3.3096447 81.16019273 -3.32192294 74.17923013 -3.3432439 67.19809991 C-3.3609416 61.17908863 -3.3668482 55.16014118 -3.36360615 49.14110488 C-3.36180503 45.55755882 -3.36431035 41.97415672 -3.37832069 38.39063454 C-3.3933963 34.38504866 -3.3838581 30.37986529 -3.37231445 26.37426758 C-3.37995819 25.20862778 -3.38760193 24.04298798 -3.39547729 22.84202576 C-3.34267335 14.49672842 -1.959464 8.49101065 0 0 Z " fill="#DEDEDE" transform="translate(282,538)"/>
<path d="M0 0 C9.24 0 18.48 0 28 0 C31.37508521 13.50034084 31.37508521 13.50034084 31.3742218 18.34230042 C31.38123611 19.44515381 31.38825043 20.5480072 31.39547729 21.6842804 C31.38783356 22.84880234 31.38018982 24.01332428 31.37231445 25.21313477 C31.37596512 26.47493561 31.37961578 27.73673645 31.38337708 29.03677368 C31.39268516 32.46035081 31.38344736 35.88363697 31.37004495 39.30719113 C31.35862022 42.91214547 31.36284632 46.51708777 31.36479187 50.12205505 C31.36567128 56.17150552 31.35466778 62.22084317 31.33618164 68.27026367 C31.31500987 75.2378863 31.31150834 82.205344 31.3177436 89.17299229 C31.32346204 95.9112733 31.31776312 102.64949696 31.30657005 109.3877697 C31.30195776 112.23955293 31.30103544 115.09130071 31.3031559 117.94308662 C31.30541032 121.93423025 31.2908467 125.92514833 31.2746582 129.91625977 C31.27713562 131.08280594 31.27961304 132.24935211 31.28216553 133.45124817 C31.21736196 143.51307351 30.05953349 152.8169384 25.8125 162 C25.50135254 162.68296143 25.19020508 163.36592285 24.86962891 164.06958008 C15.02980043 185.17727878 -0.79949381 198.63878357 -22.4453125 206.9375 C-29.95112677 209.58361757 -37.09231475 210.16138133 -45 210 C-42.09397926 207.74125998 -39.09251335 205.82864939 -35.9375 203.9375 C-22.91306451 195.65395903 -13.88678631 184.95455029 -6.8125 171.375 C-6.34904175 170.5085083 -6.34904175 170.5085083 -5.8762207 169.62451172 C-4.79832106 167.4538251 -3.90170337 165.25061785 -3 163 C-2.58247467 161.97047211 -2.16494934 160.94094421 -1.73477173 159.88021851 C3.25103646 146.2246192 2.68738249 132.18370316 2.57283282 117.84784412 C2.54865749 114.20650476 2.55194515 110.5651724 2.55152893 106.92376709 C2.54692955 100.81833921 2.52348002 94.71322724 2.48706055 88.60791016 C2.44526867 81.58397846 2.42773962 74.5603298 2.4244408 67.53628087 C2.42082187 60.00072783 2.40193326 52.465274 2.37732053 44.92976284 C2.37114035 42.78182115 2.36747395 40.63388704 2.36428642 38.48593903 C2.35720609 34.46218618 2.33272978 30.43871195 2.30639648 26.41503906 C2.30573181 25.24483719 2.30506714 24.07463531 2.30438232 22.86897278 C2.23300769 14.90956621 1.2357066 8.03209293 0 0 Z " fill="#DEDEDE" transform="translate(685,538)"/>
<path d="M0 0 C21 0 21 0 27 5 C28.47747477 7.95494954 28.16461297 10.95936245 28.17700195 14.20019531 C28.18357315 14.94187454 28.19014435 15.68355377 28.19691467 16.44770813 C28.21666145 18.90784808 28.22831428 21.3679269 28.23828125 23.828125 C28.24235678 24.66830925 28.2464323 25.5084935 28.25063133 26.37413788 C28.27149958 30.82250219 28.28579709 35.27083559 28.29516602 39.71923828 C28.3062223 44.31043664 28.34061074 48.90114925 28.38033772 53.49217606 C28.4065077 57.02499278 28.41485825 60.55769394 28.41844749 64.09059906 C28.42331377 65.78265406 28.43492898 67.47470388 28.45348549 69.16666412 C28.47788224 71.5389071 28.47691131 73.90989605 28.4699707 76.28222656 C28.48918579 77.32516624 28.48918579 77.32516624 28.50878906 78.38917542 C28.45592331 83.36258163 27.18180623 86.213517 24 90 C20 92 20 92 0 92 C0 61.64 0 31.28 0 0 Z " fill="#D9D9D9" transform="translate(732,570)"/>
<path d="M0 0 C0 30.36 0 60.72 0 92 C-20 92 -20 92 -26 88 C-27.51366112 84.97267777 -27.16481613 81.83048149 -27.17700195 78.50854492 C-27.18357315 77.73599869 -27.19014435 76.96345245 -27.19691467 76.16749573 C-27.21666139 73.60515246 -27.2283133 71.04286784 -27.23828125 68.48046875 C-27.24235678 67.60593866 -27.2464323 66.73140858 -27.25063133 65.83037758 C-27.27149796 61.20161804 -27.28579709 56.57288821 -27.29516602 51.9440918 C-27.30623161 47.16223358 -27.34063135 42.38084057 -27.38033772 37.59914684 C-27.40647924 33.92311231 -27.41485565 30.24718903 -27.41844749 26.57106972 C-27.42331987 24.80841238 -27.43495238 23.04576022 -27.45348549 21.28319359 C-27.47782511 18.81496674 -27.4769218 16.34794871 -27.4699707 13.87963867 C-27.48278076 13.15269806 -27.49559082 12.42575745 -27.50878906 11.67678833 C-27.45922511 6.84363825 -26.43278149 4.39083996 -23 1 C-16.13624657 -2.43187671 -7.67390962 0 0 0 Z " fill="#DDDDDD" transform="translate(263,570)"/>
<path d="M0 0 C1.75370771 0.70437985 3.5035903 1.41834052 5.25 2.140625 C36.03108975 14.3760678 60.9571849 12.95050389 91.25 0.390625 C91.95092773 0.03484375 92.65185547 -0.3209375 93.37402344 -0.6875 C96.58749968 -2.26663668 99.76044039 -2.17428322 103.25 -1.609375 C105.75 -0.046875 105.75 -0.046875 107.25 2.390625 C107.75 5.890625 107.75 5.890625 107.25 9.390625 C103.97039186 13.74905161 99.40154663 15.34235521 94.5 17.328125 C93.23833008 17.84753662 93.23833008 17.84753662 91.95117188 18.37744141 C59.02141255 31.69699553 29.30696712 30.17843035 -3.6875 17.390625 C-4.5338501 17.07077637 -5.3802002 16.75092773 -6.25219727 16.42138672 C-10.93262638 14.53321849 -14.12216988 12.93025523 -16.75 8.390625 C-16.75 4.61151884 -16.58289714 2.38369467 -14.125 -0.546875 C-9.26302507 -2.72196905 -4.82106908 -1.80634247 0 0 Z " fill="#2D2D2D" transform="translate(452.75,685.609375)"/>
<path d="M0 0 C4.10601848 1.77305344 6.66278175 4.19119988 9 8 C9.66347937 13.2130522 8.83755525 16.59689703 6 21 C3.12326066 24.21517926 0.84456518 25.30925022 -3.375 25.625 C-7.97928546 25.43251315 -10.39370113 23.69340519 -13.6875 20.60546875 C-16.20102077 17.53089424 -16.44728202 14.01402369 -16.42578125 10.13671875 C-15.64365115 6.21171725 -12.91214543 3.60282428 -10 1 C-6.80436932 -0.59781534 -3.4765367 -0.36841911 0 0 Z " fill="#F0F0F0" transform="translate(410,591)"/>
<path d="M0 0 C2.7883672 1.77441549 4.03461554 2.97176927 5.75 5.75 C6.65436131 10.68732391 6.2374735 14.73894385 4.0625 19.25 C0.6345152 22.95592951 -1.73569469 23.58480306 -6.6875 24.125 C-10.96478563 23.67475941 -12.97307541 22.49347175 -16.25 19.75 C-19.00174967 15.34532219 -18.91954935 10.78795062 -18.25 5.75 C-14.02416083 -1.49429572 -7.78127232 -2.99279704 0 0 Z " fill="#F0F0F0" transform="translate(614.25,592.25)"/>
</svg>
