<?xml version="1.0" encoding="UTF-8"?>
<svg version="1.1" xmlns="http://www.w3.org/2000/svg" width="1000" height="1000">
<path d="M0 0 C330 0 660 0 1000 0 C1000 330 1000 660 1000 1000 C670 1000 340 1000 0 1000 C0 670 0 340 0 0 Z " fill="#FEFEFE" transform="translate(0,0)"/>
<path d="M0 0 C2.08642068 0.00103945 4.17284333 -0.00000463 6.25926208 -0.00302124 C10.6141415 -0.00284265 14.96827382 0.017839 19.32299805 0.05419922 C24.87981941 0.09960008 30.43555298 0.10064774 35.99250889 0.08716393 C40.29507463 0.08045298 44.59739639 0.0938026 48.8999157 0.11342239 C50.94784198 0.1210706 52.99579552 0.12344621 55.0437336 0.1202507 C79.67768547 0.11382159 79.67768547 0.11382159 88.43359375 8.1015625 C92.73136534 12.92370335 94.46643588 17.38728227 95.43359375 23.7265625 C96.58730469 24.09265625 97.74101563 24.45875 98.9296875 24.8359375 C131.78257754 35.6044038 160.54171634 52.8665142 185.43359375 76.7265625 C185.96339844 77.22913574 186.49320313 77.73170898 187.0390625 78.24951172 C223.20804173 112.71098867 246.03029324 160.85650562 249.43359375 210.7265625 C249.51059732 214.06282593 249.50713617 217.39036983 249.43359375 220.7265625 C250.60921875 220.9328125 251.78484375 221.1390625 252.99609375 221.3515625 C257.54856235 222.36483055 261.85000628 223.90034986 266.18359375 225.6015625 C266.82111572 225.84600098 267.4586377 226.09043945 268.11547852 226.34228516 C277.07858904 229.95381208 281.868284 236.12952304 285.80859375 244.7265625 C287.54982421 253.08446869 286.26566458 260.08496243 282.43359375 267.7265625 C277.43303615 275.12837796 271.09833769 279.48050597 262.43359375 281.7265625 C258.63790913 281.96331473 254.85970201 281.91532303 251.05859375 281.8515625 C250.03636719 281.84253906 249.01414062 281.83351563 247.9609375 281.82421875 C245.45172135 281.80076813 242.94262659 281.76490086 240.43359375 281.7265625 C241.09359375 286.3465625 241.75359375 290.9665625 242.43359375 295.7265625 C243.77292969 295.68015625 245.11226562 295.63375 246.4921875 295.5859375 C248.28513375 295.54838889 250.07810438 295.51199207 251.87109375 295.4765625 C253.18883789 295.42628906 253.18883789 295.42628906 254.53320312 295.375 C262.32770328 295.25995203 268.51532299 297.31564259 274.74609375 302.0390625 C281.0170349 308.31000365 282.57695585 314.45527884 282.6105957 323.10620117 C282.6204525 324.21192978 282.6204525 324.21192978 282.63050842 325.33999634 C282.65018599 327.77484246 282.66189292 330.20962699 282.671875 332.64453125 C282.67595053 333.47913691 282.68002605 334.31374256 282.68422508 335.1736393 C282.70506432 339.59305191 282.71937412 344.01243369 282.72875977 348.43188477 C282.73980708 352.98013438 282.77419351 357.52789247 282.81393147 362.07596874 C282.84016875 365.58745691 282.84845798 369.09882932 282.85204124 372.61040688 C282.85689049 374.28602726 282.86845674 375.96164306 282.88707924 377.63716698 C283.06147443 394.37087809 283.06147443 394.37087809 278.43359375 401.7265625 C277.89734375 402.6340625 277.36109375 403.5415625 276.80859375 404.4765625 C271.51931832 409.48745501 264.06284941 412.87069789 256.765625 412.82421875 C255.87294922 412.82099609 254.98027344 412.81777344 254.06054688 412.81445312 C253.13177734 412.80607422 252.20300781 412.79769531 251.24609375 412.7890625 C250.30572266 412.78455078 249.36535156 412.78003906 248.39648438 412.77539062 C246.07545663 412.76360876 243.75455731 412.74715808 241.43359375 412.7265625 C241.48 414.24443359 241.48 414.24443359 241.52734375 415.79296875 C241.15531205 431.40279887 232.71374543 447.50150935 223.43359375 459.7265625 C222.96050781 460.36335938 222.48742187 461.00015625 222 461.65625 C207.82926557 479.25481795 185.41553659 489.60020591 163.43359375 492.7265625 C159.50623599 492.99057879 155.59545227 493.00986258 151.66018677 493.00071716 C150.52629387 493.00595384 149.39240097 493.01119052 148.22414768 493.01658589 C144.45164146 493.03150194 140.67927188 493.0322892 136.90673828 493.03295898 C134.19044863 493.03951223 131.47417054 493.04896709 128.75788879 493.05818176 C121.39579518 493.0809387 114.03373056 493.08894269 106.67160654 493.09400821 C102.06402443 493.09727687 97.45645057 493.10380644 92.84887314 493.1110096 C80.06157007 493.13056539 67.27427463 493.14697491 54.48695564 493.14988613 C53.26176404 493.15016749 53.26176404 493.15016749 52.01182108 493.15045452 C50.35636989 493.15082075 48.7009187 493.15118445 47.04546751 493.15154564 C46.22383237 493.15172845 45.40219723 493.15191126 44.55566406 493.15209961 C43.32168533 493.15237043 43.32168533 493.15237043 42.06277774 493.15264673 C28.75331333 493.15618322 15.44401123 493.18317726 2.13460304 493.2205975 C-11.56951561 493.25881521 -25.27355401 493.2780446 -38.97772706 493.27834564 C-46.65610947 493.27892728 -54.33429834 493.28722789 -62.01263046 493.31634331 C-68.55479503 493.34103849 -75.0966955 493.34801961 -81.63889425 493.33309578 C-84.96737032 493.32599906 -88.29490916 493.32926774 -91.62339211 493.34950638 C-122.49751538 493.52563454 -146.98854787 487.25900882 -169.81640625 465.9140625 C-182.3310761 452.74072582 -193.05235826 433.31249767 -193.6640625 414.765625 C-193.63183594 414.09273437 -193.59960938 413.41984375 -193.56640625 412.7265625 C-194.83355469 412.76136719 -196.10070312 412.79617188 -197.40625 412.83203125 C-199.10545536 412.86019487 -200.80467523 412.88749225 -202.50390625 412.9140625 C-203.75010742 412.95176758 -203.75010742 412.95176758 -205.02148438 412.99023438 C-214.19563422 413.09732562 -221.12467806 410.96561461 -227.83984375 404.625 C-233.66045932 398.22495663 -234.67522128 391.87154379 -234.75927734 383.43286133 C-234.76745483 382.71667633 -234.77563232 382.00049133 -234.78405762 381.26260376 C-234.80877736 378.90294197 -234.82539449 376.54333986 -234.83984375 374.18359375 C-234.84516743 373.37321844 -234.8504911 372.56284313 -234.8559761 371.727911 C-234.88265159 367.43702518 -234.90204283 363.14616788 -234.91650391 358.85522461 C-234.92982672 355.31980423 -234.95765625 351.78496326 -234.99853516 348.24975586 C-235.04807252 343.96451818 -235.07265027 339.67980456 -235.07973099 335.39429283 C-235.08640754 333.76971391 -235.10153491 332.14514504 -235.1256218 330.52073097 C-235.2749 319.84303143 -234.51988506 311.4943118 -227.28515625 303.0703125 C-226.55296875 302.461875 -225.82078125 301.8534375 -225.06640625 301.2265625 C-224.33421875 300.5975 -223.60203125 299.9684375 -222.84765625 299.3203125 C-218.75357317 296.46006268 -215.23649162 295.47311121 -210.265625 295.53125 C-209.28916016 295.53769531 -208.31269531 295.54414063 -207.30664062 295.55078125 C-206.29923828 295.56753906 -205.29183594 295.58429688 -204.25390625 295.6015625 C-203.22716797 295.61058594 -202.20042969 295.61960937 -201.14257812 295.62890625 C-198.61694726 295.65240049 -196.09179815 295.68525119 -193.56640625 295.7265625 C-193.47552734 294.71335937 -193.47552734 294.71335937 -193.3828125 293.6796875 C-193.29902344 292.78765625 -193.21523438 291.895625 -193.12890625 290.9765625 C-193.04769531 290.09484375 -192.96648437 289.213125 -192.8828125 288.3046875 C-192.6040216 286.03305798 -192.17850048 283.92804427 -191.56640625 281.7265625 C-192.74976563 281.77296875 -193.933125 281.819375 -195.15234375 281.8671875 C-205.59159883 282.15431395 -213.39135327 281.70604109 -222.37890625 275.9140625 C-228.61851393 269.67445482 -232.6228501 262.73633524 -232.94140625 253.7890625 C-232.62479174 245.17450951 -229.67286585 237.87216607 -223.56640625 231.7265625 C-215.78984044 225.47215395 -205.91135867 222.78372791 -196.56640625 219.7265625 C-196.52153076 219.17419922 -196.47665527 218.62183594 -196.43041992 218.05273438 C-195.43854463 206.12552669 -194.23607611 194.41242396 -191.56640625 182.7265625 C-191.37062988 181.86305176 -191.17485352 180.99954102 -190.97314453 180.10986328 C-187.78168502 166.33908546 -183.55699815 153.52581947 -177.56640625 140.7265625 C-177.24945801 140.0351416 -176.93250977 139.3437207 -176.60595703 138.63134766 C-167.42544919 118.73310853 -154.67382927 100.5730537 -139.56640625 84.7265625 C-138.98004395 84.10765137 -138.39368164 83.48874023 -137.78955078 82.85107422 C-116.04140968 60.03520885 -88.66517489 39.60202554 -58.421875 29.61328125 C-57.42067627 29.28102539 -56.41947754 28.94876953 -55.38793945 28.60644531 C-53.47783165 27.99554001 -51.55563488 27.42078024 -49.62182617 26.88964844 C-44.53341354 25.30302132 -44.53341354 25.30302132 -41.13769531 21.38623047 C-40.13109511 18.85771363 -39.346401 16.33172389 -38.56640625 13.7265625 C-35.59407329 7.22408396 -30.18504189 3.77084801 -23.6030159 1.29792023 C-16.07860938 -0.81300359 -7.73531223 -0.07652974 0 0 Z " fill="#5565F9" transform="translate(468.56640625,124.2734375)"/>
<path d="M0 0 C1.87401719 -0.00657338 1.87401719 -0.00657338 3.78589332 -0.01327956 C7.22864897 -0.02514043 10.67139068 -0.03086886 14.11416268 -0.03546071 C17.83773462 -0.04145709 21.56129024 -0.05305663 25.28485107 -0.06375122 C34.26566939 -0.08818432 43.24649306 -0.10288943 52.22733432 -0.11581129 C54.7688806 -0.11953002 57.31042635 -0.12350268 59.8519721 -0.12756395 C75.6741573 -0.15280842 91.49634351 -0.17483603 107.31854439 -0.1872921 C110.97700122 -0.19022122 114.63545803 -0.19318297 118.29391479 -0.19619751 C119.20307368 -0.19694356 120.11223256 -0.19768961 121.04894172 -0.19845827 C135.74996603 -0.21108997 150.4508688 -0.24428915 165.15183641 -0.28599934 C180.28539571 -0.32858074 195.41889306 -0.35200575 210.55251205 -0.35721266 C219.03304774 -0.36060857 227.51339353 -0.37214665 235.99386978 -0.4053154 C243.22179835 -0.43354091 250.44949801 -0.44421796 257.67747737 -0.43311994 C261.35453704 -0.42798997 265.03111913 -0.43044188 268.70810699 -0.45558548 C308.39670121 -0.71207093 343.9393527 8.44014023 373.26608276 36.15390015 C373.97764526 36.81261108 374.68920776 37.47132202 375.42233276 38.1499939 C388.12010836 50.28613711 396.30466848 66.18236738 400.26608276 83.15390015 C400.49037964 83.95569702 400.71467651 84.7574939 400.94577026 85.58358765 C406.41106566 107.22016804 400.30703559 130.82864845 389.28170776 149.67733765 C384.93241376 156.44483912 379.79730404 162.33624063 374.26608276 168.15390015 C373.68858276 168.84097046 373.11108276 169.52804077 372.51608276 170.2359314 C367.67245743 175.71744489 361.9810701 178.6936629 355.43209839 181.74594116 C350.75883662 184.00748888 347.9056783 186.37830668 344.69577026 190.4480896 C342.45965183 193.11608131 339.89953947 194.92487127 337.07858276 196.96640015 C336.05377808 197.71534546 335.02897339 198.46429077 333.97311401 199.2359314 C332.09030404 200.56992807 330.18603238 201.87393374 328.26608276 203.15390015 C327.42269339 205.39114261 327.42269339 205.39114261 326.89108276 208.02890015 C322.81497645 224.01977875 315.58478501 235.51468315 301.26608276 244.15390015 C291.29247683 249.17056421 281.46261362 250.45307862 270.41360474 250.42132568 C269.24719129 250.4258568 268.08077785 250.43038791 266.87901855 250.43505633 C263.66355717 250.44547945 260.4482375 250.44703427 257.23276472 250.44466758 C253.75614308 250.44425761 250.27955418 250.45531559 246.802948 250.46478271 C239.99987883 250.48135482 233.19684433 250.48689054 226.39375666 250.48800747 C220.86061091 250.48895973 215.32747655 250.49307888 209.79433441 250.49940872 C194.08682246 250.51701065 178.37933778 250.52624921 162.6718159 250.52474777 C161.40315085 250.52462791 161.40315085 250.52462791 160.1088562 250.52450562 C158.83863179 250.52438297 158.83863179 250.52438297 157.54274628 250.52425785 C143.82361793 250.52344521 130.10459943 250.54258014 116.38550285 250.57078235 C102.27920253 250.59955038 88.17295573 250.6133205 74.06662536 250.6115948 C66.15487636 250.61093226 58.24324255 250.61636474 50.33152008 250.6379509 C43.59476949 250.65621436 36.85818631 250.66046784 30.12142161 250.64693205 C26.68882966 250.64042833 23.25655839 250.64019006 19.8239975 250.65763855 C16.09121372 250.67314256 12.35926204 250.6637475 8.62649536 250.64837646 C7.55769017 250.65866359 6.48888497 250.66895072 5.38769174 250.67954957 C-9.10702155 250.54840804 -22.19648961 245.1155696 -32.73391724 235.15390015 C-39.3637866 227.0650304 -45.81716072 217.71125264 -45.79641724 206.90390015 C-46.333054 203.12419687 -46.333054 203.12419687 -48.81204224 201.52890015 C-50.71968 200.39521828 -52.64303891 199.28775704 -54.57766724 198.20077515 C-58.14620179 195.88652749 -60.68876277 193.26295556 -63.54641724 190.15390015 C-68.67982244 184.6720395 -73.55185257 181.97258802 -80.40969849 178.84921265 C-85.7084145 176.14692974 -89.62351685 172.39666936 -93.73391724 168.15390015 C-94.51508911 167.35854858 -95.29626099 166.56319702 -96.10110474 165.7437439 C-112.11907763 148.72801849 -121.58354308 126.67067738 -121.23391724 103.27890015 C-121.22038208 101.9626062 -121.20684692 100.64631226 -121.19290161 99.29013062 C-120.65343525 73.92580236 -109.89416978 54.40024462 -92.73391724 36.15390015 C-92.21700317 35.5609314 -91.70008911 34.96796265 -91.16751099 34.35702515 C-76.06595253 17.7965694 -52.24316757 8.04541001 -30.98391724 2.90390015 C-30.31110718 2.74051147 -29.63829712 2.5771228 -28.94509888 2.40878296 C-19.37206646 0.22531684 -9.78348915 0.00422391 0 0 Z " fill="#FDFDFE" transform="translate(354.7339172363281,624.8460998535156)"/>
<path d="M0 0 C131.01 0 262.02 0 397 0 C400.37508523 10.1252557 400.37508523 10.1252557 400.3742218 14.72924805 C400.38123611 15.77196869 400.38825043 16.81468933 400.39547729 17.88900757 C400.38783356 19.00200226 400.38018982 20.11499695 400.37231445 21.26171875 C400.37596512 22.4580191 400.37961578 23.65431946 400.38337708 24.88687134 C400.39005822 28.14317374 400.3834214 31.39909743 400.37004495 34.6553688 C400.3586517 38.07843263 400.362844 41.50148318 400.36479187 44.92456055 C400.36567237 50.67078568 400.35464568 56.41689229 400.33618164 62.16308594 C400.31501775 68.78702564 400.31150563 75.41079189 400.3177436 82.03475857 C400.32345733 88.43185634 400.31776801 94.82889362 400.30657005 101.22598267 C400.30195059 103.93707407 400.30103863 106.64812816 400.3031559 109.35922241 C400.30352807 113.15234186 400.29086331 116.94520103 400.2746582 120.73828125 C400.27837433 122.40777328 400.27837433 122.40777328 400.28216553 124.11099243 C400.15279692 143.15107208 392.40169075 159.81488264 379.44140625 173.65234375 C363.85854443 188.63682368 345.66695538 194.15087921 324.58494568 194.14717102 C323.45346621 194.15084771 322.32198674 194.1545244 321.15622002 194.1583125 C317.37424293 194.16930357 313.59229337 194.17318539 309.81030273 194.17700195 C307.0945767 194.18274239 304.37885472 194.18990487 301.66313171 194.19691467 C293.52246467 194.21661604 285.3817965 194.2267361 277.24111161 194.23564246 C273.40022759 194.24003475 269.55934493 194.24539901 265.71846199 194.25063133 C252.93898906 194.26763539 240.15951695 194.28212831 227.38003445 194.28938007 C224.06870459 194.29128971 220.75737475 194.29321008 217.44604492 194.29516602 C216.62311268 194.29564976 215.80018045 194.2961335 214.95231087 194.2966319 C201.62893235 194.30492779 188.30564373 194.33026094 174.98230445 194.36274669 C161.28057661 194.3958808 147.57889437 194.41383446 133.87712628 194.41702431 C126.19332581 194.41918327 118.50965655 194.42784172 110.82589531 194.45348549 C104.2809576 194.47527931 97.73618301 194.48320044 91.19121312 194.47351871 C87.8575327 194.46899918 84.5244589 194.47294065 81.19078064 194.49028015 C58.06941933 194.60376187 37.5875357 192.21594955 20.265625 175.32421875 C19.14414062 174.17373047 19.14414062 174.17373047 18 173 C17.23171875 172.26394531 16.4634375 171.52789063 15.671875 170.76953125 C11.04643765 166.07329639 7.68304194 161.13763567 4.6875 155.3125 C4.37409668 154.71429443 4.06069336 154.11608887 3.73779297 153.49975586 C-3.87000814 137.79011418 -3.57912402 122.04974934 -3.49609375 104.9609375 C-3.49624902 102.34550944 -3.49774259 99.73008115 -3.50050354 97.11465454 C-3.50318919 91.65642287 -3.48987073 86.19841318 -3.46655273 80.74023438 C-3.43992653 74.46496182 -3.43821053 68.19005925 -3.4499411 61.9147495 C-3.46078561 55.82944118 -3.45437582 49.74428565 -3.44038582 43.65898514 C-3.43589649 41.09076954 -3.43551228 38.52254313 -3.43945122 35.95432663 C-3.4423876 32.35653734 -3.42574134 28.75933576 -3.40405273 25.16162109 C-3.40855438 24.11918747 -3.41305603 23.07675385 -3.41769409 22.00273132 C-3.33801034 13.97792489 -1.89485113 8.21102156 0 0 Z " fill="#F3F3F3" transform="translate(294,406)"/>
<path d="M0 0 C1.87401719 -0.00657338 1.87401719 -0.00657338 3.78589332 -0.01327956 C7.22864897 -0.02514043 10.67139068 -0.03086886 14.11416268 -0.03546071 C17.83773462 -0.04145709 21.56129024 -0.05305663 25.28485107 -0.06375122 C34.26566939 -0.08818432 43.24649306 -0.10288943 52.22733432 -0.11581129 C54.7688806 -0.11953002 57.31042635 -0.12350268 59.8519721 -0.12756395 C75.6741573 -0.15280842 91.49634351 -0.17483603 107.31854439 -0.1872921 C110.97700122 -0.19022122 114.63545803 -0.19318297 118.29391479 -0.19619751 C119.20307368 -0.19694356 120.11223256 -0.19768961 121.04894172 -0.19845827 C135.74996603 -0.21108997 150.4508688 -0.24428915 165.15183641 -0.28599934 C180.28539571 -0.32858074 195.41889306 -0.35200575 210.55251205 -0.35721266 C219.03304774 -0.36060857 227.51339353 -0.37214665 235.99386978 -0.4053154 C243.22179835 -0.43354091 250.44949801 -0.44421796 257.67747737 -0.43311994 C261.35453704 -0.42798997 265.03111913 -0.43044188 268.70810699 -0.45558548 C308.39670121 -0.71207093 343.9393527 8.44014023 373.26608276 36.15390015 C373.97764526 36.81261108 374.68920776 37.47132202 375.42233276 38.1499939 C388.12010836 50.28613711 396.30466848 66.18236738 400.26608276 83.15390015 C400.49037964 83.95569702 400.71467651 84.7574939 400.94577026 85.58358765 C406.41106566 107.22016804 400.30703559 130.82864845 389.28170776 149.67733765 C384.93241376 156.44483912 379.79730404 162.33624063 374.26608276 168.15390015 C373.68858276 168.84097046 373.11108276 169.52804077 372.51608276 170.2359314 C367.67245743 175.71744489 361.9810701 178.6936629 355.43209839 181.74594116 C350.75883662 184.00748888 347.9056783 186.37830668 344.69577026 190.4480896 C342.45965183 193.11608131 339.89953947 194.92487127 337.07858276 196.96640015 C336.05377808 197.71534546 335.02897339 198.46429077 333.97311401 199.2359314 C332.09030404 200.56992807 330.18603238 201.87393374 328.26608276 203.15390015 C327.42269339 205.39114261 327.42269339 205.39114261 326.89108276 208.02890015 C322.81497645 224.01977875 315.58478501 235.51468315 301.26608276 244.15390015 C291.29247683 249.17056421 281.46261362 250.45307862 270.41360474 250.42132568 C269.24719129 250.4258568 268.08077785 250.43038791 266.87901855 250.43505633 C263.66355717 250.44547945 260.4482375 250.44703427 257.23276472 250.44466758 C253.75614308 250.44425761 250.27955418 250.45531559 246.802948 250.46478271 C239.99987883 250.48135482 233.19684433 250.48689054 226.39375666 250.48800747 C220.86061091 250.48895973 215.32747655 250.49307888 209.79433441 250.49940872 C194.08682246 250.51701065 178.37933778 250.52624921 162.6718159 250.52474777 C161.40315085 250.52462791 161.40315085 250.52462791 160.1088562 250.52450562 C158.83863179 250.52438297 158.83863179 250.52438297 157.54274628 250.52425785 C143.82361793 250.52344521 130.10459943 250.54258014 116.38550285 250.57078235 C102.27920253 250.59955038 88.17295573 250.6133205 74.06662536 250.6115948 C66.15487636 250.61093226 58.24324255 250.61636474 50.33152008 250.6379509 C43.59476949 250.65621436 36.85818631 250.66046784 30.12142161 250.64693205 C26.68882966 250.64042833 23.25655839 250.64019006 19.8239975 250.65763855 C16.09121372 250.67314256 12.35926204 250.6637475 8.62649536 250.64837646 C7.55769017 250.65866359 6.48888497 250.66895072 5.38769174 250.67954957 C-9.10702155 250.54840804 -22.19648961 245.1155696 -32.73391724 235.15390015 C-39.3637866 227.0650304 -45.81716072 217.71125264 -45.79641724 206.90390015 C-46.333054 203.12419687 -46.333054 203.12419687 -48.81204224 201.52890015 C-50.71968 200.39521828 -52.64303891 199.28775704 -54.57766724 198.20077515 C-58.14620179 195.88652749 -60.68876277 193.26295556 -63.54641724 190.15390015 C-68.67982244 184.6720395 -73.55185257 181.97258802 -80.40969849 178.84921265 C-85.7084145 176.14692974 -89.62351685 172.39666936 -93.73391724 168.15390015 C-94.51508911 167.35854858 -95.29626099 166.56319702 -96.10110474 165.7437439 C-112.11907763 148.72801849 -121.58354308 126.67067738 -121.23391724 103.27890015 C-121.22038208 101.9626062 -121.20684692 100.64631226 -121.19290161 99.29013062 C-120.65343525 73.92580236 -109.89416978 54.40024462 -92.73391724 36.15390015 C-92.21700317 35.5609314 -91.70008911 34.96796265 -91.16751099 34.35702515 C-76.06595253 17.7965694 -52.24316757 8.04541001 -30.98391724 2.90390015 C-30.31110718 2.74051147 -29.63829712 2.5771228 -28.94509888 2.40878296 C-19.37206646 0.22531684 -9.78348915 0.00422391 0 0 Z M-22.45266724 28.2593689 C-28.4232045 36.76153102 -30.19680215 43.91523033 -29.92141724 54.15390015 C-29.90788208 55.11940796 -29.89434692 56.08491577 -29.88040161 57.0796814 C-29.84537181 59.4383544 -29.79625808 61.79581786 -29.73391724 64.15390015 C-29.11355591 64.08316284 -28.49319458 64.01242554 -27.85403442 63.93954468 C-22.20925015 63.33007935 -16.65973512 62.99754204 -10.98391724 63.02890015 C-10.26848755 63.02503296 -9.55305786 63.02116577 -8.81594849 63.0171814 C-4.67375066 63.02478176 -0.80324999 63.42188137 3.26608276 64.15390015 C4.72329204 64.21482027 6.18281736 64.24154265 7.64108276 64.21640015 C9.43545776 64.18546265 9.43545776 64.18546265 11.26608276 64.15390015 C10.97491577 64.92983521 10.68374878 65.70577026 10.38375854 66.50521851 C8.96625694 71.13268934 8.18060127 75.76484173 7.38327026 80.5328064 C7.2081189 81.5561055 7.03296753 82.5794046 6.85250854 83.63371277 C6.47515306 85.84092527 6.0998792 88.04849447 5.72647095 90.25637817 C4.72852812 96.15486438 3.7145745 102.05060799 2.70358276 107.9468689 C2.49861176 109.14507263 2.29364075 110.34327637 2.0824585 111.57778931 C0.14371878 122.90229943 -1.84601958 134.21736373 -3.85891724 145.52890015 C-4.02055359 146.43973358 -4.18218994 147.35056702 -4.34872437 148.28900146 C-6.1175633 158.25248586 -7.92098402 168.208433 -9.78860474 178.15390015 C-9.95377594 179.03663605 -10.11894714 179.91937195 -10.28912354 180.82885742 C-11.06868049 184.99400192 -11.85410415 189.15782817 -12.65237427 193.31942749 C-12.92980041 194.7928514 -13.20699489 196.26631896 -13.48391724 197.73983765 C-13.72626099 199.00875854 -13.96860474 200.27767944 -14.21829224 201.58505249 C-14.73497657 205.16123219 -14.82673747 208.54609352 -14.73391724 212.15390015 C-19.02391724 211.49390015 -23.31391724 210.83390015 -27.73391724 210.15390015 C-25.71623546 218.22462724 -20.73477923 223.63637792 -14.27297974 228.64608765 C-6.81733741 233.07359217 -0.40582044 233.58842869 8.09442139 233.5415802 C9.27026421 233.54696574 10.44610703 233.55235128 11.65758145 233.55790001 C14.90396323 233.56969338 18.15001384 233.56812616 21.39639831 233.5607332 C24.90434485 233.55599103 28.41223705 233.56852066 31.92016602 233.57875061 C38.7858862 233.59592375 45.6515148 233.59678168 52.51725088 233.59153771 C58.0995545 233.58749182 63.68183112 233.58894454 69.26413345 233.59428596 C70.05946634 233.59503439 70.85479923 233.59578281 71.67423312 233.59655391 C73.29009954 233.59808543 74.90596595 233.59962378 76.52183236 233.60116888 C91.66640258 233.61488868 106.8109211 233.60946001 121.95549013 233.59798367 C135.79957698 233.58805296 149.64353015 233.60099005 163.48759638 233.62491786 C177.71476796 233.64932188 191.94187732 233.65891346 206.16906941 233.65226513 C214.15171199 233.64877566 222.13425179 233.65098693 230.11687851 233.66851616 C236.91266999 233.68325449 243.70828633 233.68385241 250.50407444 233.66644525 C253.96868447 233.65794598 257.43298184 233.65575893 260.89757538 233.6710968 C264.65993674 233.68429574 268.42145171 233.67276705 272.18377686 233.65510559 C273.26978459 233.6647106 274.35579233 233.6743156 275.47470939 233.68421167 C286.57767935 233.57719112 294.13633421 230.09514601 302.12545776 222.4703064 C305.54983943 218.76472551 308.26608276 215.38281974 308.26608276 210.15390015 C303.97608276 210.81390015 299.68608276 211.47390015 295.26608276 212.15390015 C295.29113892 210.98375366 295.31619507 209.81360718 295.3420105 208.60800171 C295.3384244 204.58473399 294.81733834 200.84614987 294.05123901 196.88827515 C293.92056534 196.19886841 293.78989166 195.50946167 293.65525818 194.79916382 C293.36982559 193.29522105 293.08131678 191.79185954 292.79006958 190.28903198 C291.97176957 186.0597597 291.18020679 181.82547133 290.38717651 177.59140015 C290.2159729 176.67944885 290.04476929 175.76749756 289.86837769 174.82791138 C287.76032517 163.54009348 285.83148863 152.22149109 283.89108276 140.90390015 C279.49269032 115.29448359 274.90684757 89.72038578 270.26608276 64.15390015 C271.83364323 63.98782219 273.40149148 63.82445939 274.9694519 63.66220093 C275.8425148 63.57092926 276.7155777 63.47965759 277.61509705 63.38562012 C281.64743649 63.03315742 285.65841525 63.00545233 289.70358276 63.02890015 C290.52254028 63.03083374 291.3414978 63.03276733 292.18527222 63.03475952 C298.25480324 63.07792916 304.23697654 63.44028137 310.26608276 64.15390015 C311.40760327 46.18389187 311.40760327 46.18389187 304.26608276 30.15390015 C303.86002808 29.53643921 303.45397339 28.91897827 303.03561401 28.2828064 C297.8296917 21.15797757 289.59520101 17.97253268 281.26608276 16.15390015 C277.30240804 15.75777229 273.37487763 15.74374343 269.39378357 15.76622009 C268.23735523 15.76083456 267.08092688 15.75544902 265.88945526 15.74990028 C262.03515149 15.73565394 258.18119277 15.74271646 254.32687378 15.74984741 C251.55509557 15.74578363 248.78333471 15.73727733 246.01156616 15.72904968 C239.27679623 15.71189819 232.54211975 15.71101401 225.80733366 15.71626259 C220.33092155 15.72031212 214.85453695 15.71885145 209.37812614 15.71351433 C208.59722976 15.71276591 207.81633338 15.71201748 207.01177348 15.71124638 C205.42514086 15.70971483 203.83850824 15.70817648 202.25187563 15.70663141 C187.39006348 15.69291974 172.52830405 15.69833482 157.66649311 15.70981663 C144.08510231 15.71974899 130.50384775 15.70680594 116.92247797 15.68288244 C102.95853087 15.65847135 88.99464717 15.64888841 75.03067917 15.65553516 C67.19838144 15.65902274 59.36618847 15.65682577 51.53390694 15.63928413 C44.86701565 15.62453704 38.20030291 15.62395939 31.53341503 15.64135505 C28.1354257 15.64984686 24.73801574 15.64987783 21.34000206 15.63670349 C17.64815775 15.62348502 13.95717333 15.63505037 10.2653656 15.6526947 C9.20308969 15.6430897 8.14081377 15.63348469 7.04634768 15.62358862 C-4.28627474 15.73463975 -15.10573472 19.25937657 -22.45266724 28.2593689 Z " fill="#2C2C2C" transform="translate(354.7339172363281,624.8460998535156)"/>
<path d="M0 0 C2.08642068 0.00103945 4.17284333 -0.00000463 6.25926208 -0.00302124 C10.6141415 -0.00284265 14.96827382 0.017839 19.32299805 0.05419922 C24.87981941 0.09960008 30.43555298 0.10064774 35.99250889 0.08716393 C40.29507463 0.08045298 44.59739639 0.0938026 48.8999157 0.11342239 C50.94784198 0.1210706 52.99579552 0.12344621 55.0437336 0.1202507 C79.67768547 0.11382159 79.67768547 0.11382159 88.43359375 8.1015625 C92.73136534 12.92370335 94.46643588 17.38728227 95.43359375 23.7265625 C96.58730469 24.09265625 97.74101563 24.45875 98.9296875 24.8359375 C131.78257754 35.6044038 160.54171634 52.8665142 185.43359375 76.7265625 C185.96339844 77.22913574 186.49320313 77.73170898 187.0390625 78.24951172 C223.20804173 112.71098867 246.03029324 160.85650562 249.43359375 210.7265625 C249.51059732 214.06282593 249.50713617 217.39036983 249.43359375 220.7265625 C250.60921875 220.9328125 251.78484375 221.1390625 252.99609375 221.3515625 C257.54856235 222.36483055 261.85000628 223.90034986 266.18359375 225.6015625 C266.82111572 225.84600098 267.4586377 226.09043945 268.11547852 226.34228516 C277.07858904 229.95381208 281.868284 236.12952304 285.80859375 244.7265625 C287.54982421 253.08446869 286.26566458 260.08496243 282.43359375 267.7265625 C277.43303615 275.12837796 271.09833769 279.48050597 262.43359375 281.7265625 C258.63790913 281.96331473 254.85970201 281.91532303 251.05859375 281.8515625 C250.03636719 281.84253906 249.01414062 281.83351563 247.9609375 281.82421875 C245.45172135 281.80076813 242.94262659 281.76490086 240.43359375 281.7265625 C241.09359375 286.3465625 241.75359375 290.9665625 242.43359375 295.7265625 C243.77292969 295.68015625 245.11226562 295.63375 246.4921875 295.5859375 C248.28513375 295.54838889 250.07810438 295.51199207 251.87109375 295.4765625 C253.18883789 295.42628906 253.18883789 295.42628906 254.53320312 295.375 C262.32770328 295.25995203 268.51532299 297.31564259 274.74609375 302.0390625 C281.0170349 308.31000365 282.57695585 314.45527884 282.6105957 323.10620117 C282.6204525 324.21192978 282.6204525 324.21192978 282.63050842 325.33999634 C282.65018599 327.77484246 282.66189292 330.20962699 282.671875 332.64453125 C282.67595053 333.47913691 282.68002605 334.31374256 282.68422508 335.1736393 C282.70506432 339.59305191 282.71937412 344.01243369 282.72875977 348.43188477 C282.73980708 352.98013438 282.77419351 357.52789247 282.81393147 362.07596874 C282.84016875 365.58745691 282.84845798 369.09882932 282.85204124 372.61040688 C282.85689049 374.28602726 282.86845674 375.96164306 282.88707924 377.63716698 C283.06147443 394.37087809 283.06147443 394.37087809 278.43359375 401.7265625 C277.89734375 402.6340625 277.36109375 403.5415625 276.80859375 404.4765625 C271.51931832 409.48745501 264.06284941 412.87069789 256.765625 412.82421875 C255.87294922 412.82099609 254.98027344 412.81777344 254.06054688 412.81445312 C253.13177734 412.80607422 252.20300781 412.79769531 251.24609375 412.7890625 C250.30572266 412.78455078 249.36535156 412.78003906 248.39648438 412.77539062 C246.07545663 412.76360876 243.75455731 412.74715808 241.43359375 412.7265625 C241.48 414.24443359 241.48 414.24443359 241.52734375 415.79296875 C241.15531205 431.40279887 232.71374543 447.50150935 223.43359375 459.7265625 C222.96050781 460.36335938 222.48742187 461.00015625 222 461.65625 C207.82926557 479.25481795 185.41553659 489.60020591 163.43359375 492.7265625 C159.50623599 492.99057879 155.59545227 493.00986258 151.66018677 493.00071716 C150.52629387 493.00595384 149.39240097 493.01119052 148.22414768 493.01658589 C144.45164146 493.03150194 140.67927188 493.0322892 136.90673828 493.03295898 C134.19044863 493.03951223 131.47417054 493.04896709 128.75788879 493.05818176 C121.39579518 493.0809387 114.03373056 493.08894269 106.67160654 493.09400821 C102.06402443 493.09727687 97.45645057 493.10380644 92.84887314 493.1110096 C80.06157007 493.13056539 67.27427463 493.14697491 54.48695564 493.14988613 C53.26176404 493.15016749 53.26176404 493.15016749 52.01182108 493.15045452 C50.35636989 493.15082075 48.7009187 493.15118445 47.04546751 493.15154564 C46.22383237 493.15172845 45.40219723 493.15191126 44.55566406 493.15209961 C43.32168533 493.15237043 43.32168533 493.15237043 42.06277774 493.15264673 C28.75331333 493.15618322 15.44401123 493.18317726 2.13460304 493.2205975 C-11.56951561 493.25881521 -25.27355401 493.2780446 -38.97772706 493.27834564 C-46.65610947 493.27892728 -54.33429834 493.28722789 -62.01263046 493.31634331 C-68.55479503 493.34103849 -75.0966955 493.34801961 -81.63889425 493.33309578 C-84.96737032 493.32599906 -88.29490916 493.32926774 -91.62339211 493.34950638 C-122.49751538 493.52563454 -146.98854787 487.25900882 -169.81640625 465.9140625 C-182.3310761 452.74072582 -193.05235826 433.31249767 -193.6640625 414.765625 C-193.63183594 414.09273437 -193.59960938 413.41984375 -193.56640625 412.7265625 C-194.83355469 412.76136719 -196.10070312 412.79617188 -197.40625 412.83203125 C-199.10545536 412.86019487 -200.80467523 412.88749225 -202.50390625 412.9140625 C-203.75010742 412.95176758 -203.75010742 412.95176758 -205.02148438 412.99023438 C-214.19563422 413.09732562 -221.12467806 410.96561461 -227.83984375 404.625 C-233.66045932 398.22495663 -234.67522128 391.87154379 -234.75927734 383.43286133 C-234.76745483 382.71667633 -234.77563232 382.00049133 -234.78405762 381.26260376 C-234.80877736 378.90294197 -234.82539449 376.54333986 -234.83984375 374.18359375 C-234.84516743 373.37321844 -234.8504911 372.56284313 -234.8559761 371.727911 C-234.88265159 367.43702518 -234.90204283 363.14616788 -234.91650391 358.85522461 C-234.92982672 355.31980423 -234.95765625 351.78496326 -234.99853516 348.24975586 C-235.04807252 343.96451818 -235.07265027 339.67980456 -235.07973099 335.39429283 C-235.08640754 333.76971391 -235.10153491 332.14514504 -235.1256218 330.52073097 C-235.2749 319.84303143 -234.51988506 311.4943118 -227.28515625 303.0703125 C-226.55296875 302.461875 -225.82078125 301.8534375 -225.06640625 301.2265625 C-224.33421875 300.5975 -223.60203125 299.9684375 -222.84765625 299.3203125 C-218.75357317 296.46006268 -215.23649162 295.47311121 -210.265625 295.53125 C-209.28916016 295.53769531 -208.31269531 295.54414063 -207.30664062 295.55078125 C-206.29923828 295.56753906 -205.29183594 295.58429688 -204.25390625 295.6015625 C-203.22716797 295.61058594 -202.20042969 295.61960937 -201.14257812 295.62890625 C-198.61694726 295.65240049 -196.09179815 295.68525119 -193.56640625 295.7265625 C-193.47552734 294.71335937 -193.47552734 294.71335937 -193.3828125 293.6796875 C-193.29902344 292.78765625 -193.21523438 291.895625 -193.12890625 290.9765625 C-193.04769531 290.09484375 -192.96648437 289.213125 -192.8828125 288.3046875 C-192.6040216 286.03305798 -192.17850048 283.92804427 -191.56640625 281.7265625 C-192.74976563 281.77296875 -193.933125 281.819375 -195.15234375 281.8671875 C-205.59159883 282.15431395 -213.39135327 281.70604109 -222.37890625 275.9140625 C-228.61851393 269.67445482 -232.6228501 262.73633524 -232.94140625 253.7890625 C-232.62479174 245.17450951 -229.67286585 237.87216607 -223.56640625 231.7265625 C-215.78984044 225.47215395 -205.91135867 222.78372791 -196.56640625 219.7265625 C-196.52153076 219.17419922 -196.47665527 218.62183594 -196.43041992 218.05273438 C-195.43854463 206.12552669 -194.23607611 194.41242396 -191.56640625 182.7265625 C-191.37062988 181.86305176 -191.17485352 180.99954102 -190.97314453 180.10986328 C-187.78168502 166.33908546 -183.55699815 153.52581947 -177.56640625 140.7265625 C-177.24945801 140.0351416 -176.93250977 139.3437207 -176.60595703 138.63134766 C-167.42544919 118.73310853 -154.67382927 100.5730537 -139.56640625 84.7265625 C-138.98004395 84.10765137 -138.39368164 83.48874023 -137.78955078 82.85107422 C-116.04140968 60.03520885 -88.66517489 39.60202554 -58.421875 29.61328125 C-57.42067627 29.28102539 -56.41947754 28.94876953 -55.38793945 28.60644531 C-53.47783165 27.99554001 -51.55563488 27.42078024 -49.62182617 26.88964844 C-44.53341354 25.30302132 -44.53341354 25.30302132 -41.13769531 21.38623047 C-40.13109511 18.85771363 -39.346401 16.33172389 -38.56640625 13.7265625 C-35.59407329 7.22408396 -30.18504189 3.77084801 -23.6030159 1.29792023 C-16.07860938 -0.81300359 -7.73531223 -0.07652974 0 0 Z M-22.58750916 19.47419739 C-25.69299029 24.57813055 -25.25111858 29.48402492 -25.1940918 35.34790039 C-25.20136292 36.62967667 -25.20863403 37.91145294 -25.21612549 39.23207092 C-25.23166949 42.01451445 -25.23153247 44.79635546 -25.21912193 47.57881355 C-25.1995642 51.97854626 -25.2147868 56.37774417 -25.23457336 60.77745056 C-25.26170822 67.7353566 -25.2652168 74.69304432 -25.25880033 81.65099281 C-25.24785532 94.11444282 -25.27245053 106.57782729 -25.31254798 119.04121011 C-25.32562297 123.41479154 -25.32687589 127.78817315 -25.31841505 132.16176426 C-25.31566375 134.22644899 -25.31729831 136.29107582 -25.32080078 138.35575867 C-25.32476177 140.87301599 -25.32147417 143.39029909 -25.30964661 145.90753174 C-25.31358429 147.01647293 -25.31752197 148.12541412 -25.32157898 149.26795959 C-25.32013398 150.71280778 -25.32013398 150.71280778 -25.31865978 152.18684483 C-25.57948953 154.86068282 -26.1167341 156.47786591 -27.56640625 158.7265625 C-30.58509059 160.23590467 -33.23937854 159.90166922 -36.56640625 159.7265625 C-39.56640625 157.7265625 -39.56640625 157.7265625 -40.56640625 154.7265625 C-40.66716064 153.15336703 -40.71259126 151.57632684 -40.72462463 149.99995422 C-40.73930786 148.54232666 -40.73930786 148.54232666 -40.75428772 147.05525208 C-40.76004318 145.99070297 -40.76579865 144.92615387 -40.77172852 143.8293457 C-40.78162811 142.70724701 -40.79152771 141.58514832 -40.80172729 140.42904663 C-40.83337118 136.71183396 -40.85811124 132.99460851 -40.8828125 129.27734375 C-40.90337952 126.7032996 -40.92437593 124.12925884 -40.94578552 121.55522156 C-40.9953822 115.46733892 -41.0406408 109.37943812 -41.08380789 103.29150695 C-41.13319448 96.36046204 -41.18810733 89.42946438 -41.24348748 82.49846518 C-41.35728199 68.24120867 -41.46412655 53.98390603 -41.56640625 39.7265625 C-43.13631399 40.18471328 -44.7052074 40.64634046 -46.27368164 41.109375 C-47.58436363 41.49440186 -47.58436363 41.49440186 -48.92152405 41.88720703 C-53.08298175 43.20784894 -57.03258169 44.92232823 -61.00390625 46.7265625 C-61.86008545 47.11537598 -62.71626465 47.50418945 -63.59838867 47.90478516 C-78.63787163 54.88341406 -92.56966547 63.44456495 -105.56640625 73.7265625 C-106.38866699 74.3752832 -106.38866699 74.3752832 -107.22753906 75.03710938 C-147.17491133 106.90873812 -174.03790841 152.90538023 -180.24609375 203.8125 C-180.49636575 206.87070177 -180.66123114 209.88880489 -180.76171875 212.953125 C-180.8095752 214.30942017 -180.8095752 214.30942017 -180.85839844 215.69311523 C-180.91262959 217.47078052 -180.94795902 219.24915033 -180.96191406 221.02758789 C-180.98350586 221.8396167 -181.00509766 222.65164551 -181.02734375 223.48828125 C-181.03967041 224.5704895 -181.03967041 224.5704895 -181.05224609 225.67456055 C-181.7992489 228.65583245 -183.19348246 229.81355022 -185.56640625 231.7265625 C-188.23608398 232.92749023 -188.23608398 232.92749023 -191.25 233.91015625 C-192.8887207 234.46606445 -192.8887207 234.46606445 -194.56054688 235.03320312 C-196.85143708 235.78557149 -199.14310303 236.535582 -201.43554688 237.28320312 C-209.16733993 239.91210389 -213.01503973 241.89951272 -217.56640625 248.7265625 C-218.05994802 253.95810526 -217.41680467 257.30353047 -214.56640625 261.7265625 C-209.59926206 266.20910726 -206.5437908 266.8734894 -200.02814102 266.85799026 C-199.23747203 266.8600429 -198.44680303 266.86209553 -197.63217437 266.86421037 C-194.954495 266.8699127 -192.27686654 266.86841916 -189.59918213 266.86700439 C-187.671325 266.86958618 -185.7434684 266.87259882 -183.81561255 266.8760078 C-178.49577572 266.884103 -173.17595236 266.88586876 -167.8561101 266.88660526 C-162.12727525 266.88845146 -156.39844748 266.89599659 -150.6696167 266.90274048 C-138.13254296 266.91634231 -125.59547241 266.92235143 -113.05839252 266.92675114 C-105.23529556 266.9295105 -97.41219983 266.93374729 -89.5891037 266.93825531 C-67.94411909 266.95045051 -46.29913599 266.96078465 -24.6541481 266.9641304 C-23.253883 266.96435204 -21.8536179 266.96457382 -20.45335279 266.96479575 C-19.04966926 266.9650164 -17.64598572 266.96523688 -16.24230218 266.9654572 C-13.42618322 266.96589976 -10.61006427 266.96634687 -7.79394531 266.96679688 C-7.09570926 266.96690627 -6.39747321 266.96701566 -5.67807848 266.96712836 C16.96547831 266.97075951 39.6090031 266.98668097 62.25254763 267.00998724 C86.18269426 267.03457281 110.11282054 267.04829592 134.04298043 267.04949832 C147.09155544 267.05041629 160.14008855 267.05619926 173.18865204 267.07431793 C184.29880816 267.08969023 195.40890944 267.0948564 206.51907417 267.08657983 C212.19061898 267.0826631 217.86205326 267.08365266 223.53358459 267.09763718 C228.7224695 267.11031492 233.91116012 267.10923273 239.10004452 267.09704646 C240.98029623 267.09507879 242.86056142 267.09821689 244.74079415 267.10689083 C247.291422 267.11791531 249.84135594 267.11054371 252.39196396 267.0984993 C253.12646385 267.10609449 253.86096374 267.11368968 254.6177212 267.12151504 C260.47273835 267.06159489 264.44398272 265.55485372 268.74609375 261.6015625 C271.03496511 257.70200389 271.7840832 254.24309707 271.43359375 249.7265625 C269.83070423 246.32110023 269.83070423 246.32110023 267.43359375 243.7265625 C267.00812256 243.22116943 266.58265137 242.71577637 266.14428711 242.19506836 C263.8692066 240.24207717 261.65304002 239.55368008 258.8125 238.60546875 C257.71228516 238.22712891 256.61207031 237.84878906 255.47851562 237.45898438 C253.16158918 236.68061144 250.84388165 235.90455953 248.52539062 235.13085938 C247.42388672 234.75123047 246.32238281 234.37160156 245.1875 233.98046875 C243.67651733 233.47495483 243.67651733 233.47495483 242.13500977 232.95922852 C239.14738264 231.59596332 237.47096647 230.29420623 235.43359375 227.7265625 C235.0736562 224.715085 234.93036866 221.98850563 234.93359375 218.9765625 C234.04380571 185.08032124 223.42296704 150.88151717 204.43359375 122.7265625 C204.04880859 122.14938477 203.66402344 121.57220703 203.26757812 120.97753906 C190.67102842 102.24764477 175.29490412 85.49954278 157.17333984 72.02197266 C155.48451805 70.76448059 153.81269204 69.4866693 152.140625 68.20703125 C138.24598611 57.74806053 113.14920648 39.7265625 95.43359375 39.7265625 C95.4302836 40.31555454 95.42697346 40.90454659 95.423563 41.51138687 C95.3423495 55.84158367 95.25026247 70.17168005 95.14606667 84.50172806 C95.0959407 91.43163088 95.04949782 98.36152187 95.01171875 105.29150391 C94.97526511 111.97646077 94.92855667 118.66127342 94.87553024 125.34612274 C94.85696506 127.89942933 94.84186501 130.45276349 94.83024979 133.00611115 C94.81342392 136.57614875 94.78439716 140.14589062 94.75244141 143.71582031 C94.74920113 145.30725105 94.74920113 145.30725105 94.74589539 146.93083191 C94.7347319 147.90395828 94.72356842 148.87708466 94.71206665 149.87969971 C94.70653589 150.72406208 94.70100513 151.56842445 94.69530678 152.43837357 C94.40624617 154.96566575 93.78477129 156.58002702 92.43359375 158.7265625 C89.38375379 160.25148248 86.79125685 159.96218798 83.43359375 159.7265625 C81.33000994 158.18393437 80.59305216 157.04547933 79.43359375 154.7265625 C79.33490927 152.98714433 79.30017095 151.24394873 79.29556274 149.5017395 C79.29010941 148.39410248 79.28465607 147.28646545 79.27903748 146.14526367 C79.27799515 144.92444092 79.27695282 143.70361816 79.27587891 142.44580078 C79.26807994 140.4789305 79.26027691 138.51206023 79.252321 136.54519057 C79.2446 134.42729561 79.23922155 132.30940498 79.23436356 130.19150162 C79.22369311 125.77955382 79.20345106 121.36768297 79.1812439 116.95578003 C79.1192868 104.40886964 79.06529506 91.86196362 79.03222656 79.31494141 C79.01388949 72.38786182 78.98496559 65.46091091 78.94422185 58.53392589 C78.9231371 54.86732246 78.90769253 51.20088128 78.90541458 47.53421402 C78.90287095 43.44466638 78.87742353 39.35557041 78.85009766 35.26611328 C78.85310379 34.04933899 78.85610992 32.8325647 78.85920715 31.57891846 C78.84811417 30.46564178 78.83702118 29.35236511 78.82559204 28.20535278 C78.82062682 26.75465991 78.82062682 26.75465991 78.81556129 25.27466011 C78.3639386 22.26189441 77.53875577 20.90397537 75.43359375 18.7265625 C71.52741531 17.42450302 67.80008516 17.55430733 63.72705078 17.53369141 C62.83731567 17.52551392 61.94758057 17.51733643 61.03088379 17.50891113 C58.08439812 17.48408307 55.13796046 17.46754966 52.19140625 17.453125 C51.18540249 17.44780132 50.17939873 17.44247765 49.14291 17.43699265 C43.82037874 17.41027511 38.49787085 17.39089383 33.17529297 17.37646484 C27.67483605 17.35980049 22.17497636 17.31500359 16.67474556 17.2640934 C12.44712625 17.23046567 8.21964969 17.21889246 3.99190903 17.21323776 C1.96408385 17.20651529 -0.06373162 17.19126748 -2.09142685 17.16734695 C-4.92847453 17.13578222 -7.76389757 17.13564527 -10.60107422 17.14306641 C-11.43865265 17.12666107 -12.27623108 17.11025574 -13.13919067 17.09335327 C-17.02678126 17.1349927 -19.16770215 17.49592183 -22.58750916 19.47419739 Z M-174.56640625 281.7265625 C-176.64988125 290.75495418 -178.01166733 297.86801526 -177.98632812 306.84057617 C-177.99479767 307.97423615 -178.00326721 309.10789612 -178.01199341 310.27590942 C-178.03517823 313.9822344 -178.0363898 317.68813958 -178.03515625 321.39453125 C-178.04226998 324.00084087 -178.04997072 326.60714895 -178.05822754 329.2134552 C-178.07276805 334.66260116 -178.07344413 340.11163262 -178.06738281 345.56079102 C-178.06075676 351.8110552 -178.08357077 358.06072707 -178.12069654 364.3108713 C-178.15540036 370.37907964 -178.16170598 376.44701358 -178.15760803 382.5153141 C-178.15928687 385.07104567 -178.16880825 387.62678594 -178.18675232 390.18245506 C-178.34068794 414.81842453 -175.16210052 435.87754599 -157.2421875 454.078125 C-156.35917969 454.95210937 -155.47617187 455.82609375 -154.56640625 456.7265625 C-153.92058594 457.39429688 -153.27476562 458.06203125 -152.609375 458.75 C-134.94981055 475.75550651 -112.48952708 476.31789383 -89.51855469 476.21240234 C-86.79529945 476.21233379 -84.07206453 476.21827389 -81.34881592 476.22390747 C-74.75170931 476.23392903 -68.15480514 476.22278842 -61.55772373 476.20420687 C-53.86214428 476.1833192 -46.16660722 476.18358237 -38.47100475 476.18455203 C-24.73551022 476.18555061 -11.00010923 476.16730036 2.73535156 476.13818359 C16.04135847 476.10999212 29.34728313 476.09584323 42.65332031 476.09716797 C43.4735448 476.09724788 44.29376928 476.09732779 45.13884905 476.09741013 C46.36713354 476.09753119 46.36713354 476.09753119 47.62023187 476.0976547 C62.80612942 476.09903662 77.99199229 476.08724442 93.17787857 476.06934827 C98.53344535 476.06333368 103.88900572 476.06119133 109.2445755 476.06028366 C115.77407096 476.05891513 122.30350787 476.04992628 128.83297852 476.03161804 C132.15997169 476.02242701 135.48682746 476.01734599 138.81384277 476.01880646 C142.42857762 476.01979257 146.04307432 476.00843072 149.65777588 475.99398804 C151.21689174 475.99863384 151.21689174 475.99863384 152.80750489 476.0033735 C172.83792185 475.87170236 190.3768426 468.94613949 205.015625 455.23828125 C212.31478653 447.65611507 217.60215185 439.50126467 221.43359375 429.7265625 C221.74039062 428.994375 222.0471875 428.2621875 222.36328125 427.5078125 C225.67284745 419.31269619 225.58603907 411.39746925 225.59472656 402.69189453 C225.59969147 401.49588623 225.60465637 400.29987793 225.60977173 399.06762695 C225.62182925 395.80307266 225.62932457 392.53855405 225.63378239 389.27398157 C225.63672493 387.23008485 225.64083181 385.1861936 225.64528656 383.14229965 C225.65893812 376.73453968 225.66861722 370.32679236 225.67248845 363.91901886 C225.67696905 356.54543238 225.69452674 349.17203128 225.72348905 341.79850113 C225.74515709 336.08191464 225.75519539 330.36538014 225.75652957 324.64875305 C225.75757358 321.24191944 225.76339504 317.83526065 225.78134918 314.42847061 C225.79844519 310.62551132 225.79652062 306.82300189 225.79003906 303.02001953 C225.79925385 301.90388275 225.80846863 300.78774597 225.81796265 299.63778687 C225.81239349 298.5921759 225.80682434 297.54656494 225.80108643 296.4692688 C225.80328627 295.12372264 225.80328627 295.12372264 225.80553055 293.75099373 C225.40120556 289.63905293 225.40120556 289.63905293 222.43359375 281.7265625 C91.42359375 281.7265625 -39.58640625 281.7265625 -174.56640625 281.7265625 Z " fill="#2C2C2D" transform="translate(468.56640625,124.2734375)"/>
<path d="M0 0 C9.56485458 9.35230225 14.83421592 20.90454127 15.125 34.25 C14.99932119 47.59988226 10.12758341 59.40390253 0.9375 69.0625 C-8.56228817 78.02047515 -19.44584333 82.1561251 -32.484375 81.9609375 C-44.40818181 81.03046703 -55.38240241 75.54698291 -63.4765625 66.80859375 C-66.12958915 63.61648177 -68.29581425 60.44585579 -70.1875 56.75 C-70.58066406 56.03199219 -70.97382812 55.31398438 -71.37890625 54.57421875 C-76.05737422 44.35331485 -75.8718124 30.73810464 -73.26953125 19.94140625 C-70.88245313 13.8771463 -67.46417956 8.64371293 -63.1875 3.75 C-62.71054687 3.15703125 -62.23359375 2.5640625 -61.7421875 1.953125 C-44.82544449 -17.25885449 -18.88816826 -13.33282465 0 0 Z " fill="#2B2B2B" transform="translate(615.1875,440.25)"/>
<path d="M0 0 C7.03932493 5.36748526 12.13974504 11.02616085 16 19 C16.4125 19.84175781 16.825 20.68351562 17.25 21.55078125 C22.09517273 32.90665484 21.02639869 45.53281652 17 57 C12.23985794 68.74843573 4.80962664 76.71178468 -6.65625 82.29296875 C-16.86897871 86.55339925 -27.77969008 87.72594059 -38.39453125 84.09765625 C-53.65385113 77.66906721 -61.76763635 67.95767277 -68 53 C-70.97640446 42.50425795 -70.30869766 29.26157799 -65.4765625 19.5703125 C-64.98929687 18.72210938 -64.50203125 17.87390625 -64 17 C-63.33097656 15.78957031 -63.33097656 15.78957031 -62.6484375 14.5546875 C-56.57648323 4.54783549 -47.46595304 -1.98490358 -36.75 -6.3125 C-24.45991071 -8.56568304 -10.5724888 -7.10339091 0 0 Z " fill="#2B2B2B" transform="translate(423,436)"/>
<path d="M0 0 C1.52216503 0.00148418 1.52216503 0.00148418 3.07508087 0.00299835 C9.93687388 0.01178065 16.79845803 0.03794113 23.66015625 0.07421875 C24.5388632 0.07782976 25.41757015 0.08144077 26.32290459 0.08516121 C35.92249712 0.12976098 45.50157853 0.32280869 55.09155273 0.76879883 C56.3533251 0.82706486 56.3533251 0.82706486 57.64058781 0.88650799 C65.04749513 1.26040064 72.40836393 1.98244532 79.77954102 2.78686523 C84.14972538 3.24706791 88.52218486 3.60512785 92.90362549 3.9387207 C106.66492452 4.99910328 120.33881087 6.5869021 134.02685547 8.34423828 C137.75246889 8.82081068 141.47962862 9.2837464 145.20703125 9.74609375 C147.59124864 10.04867016 149.9753674 10.35202504 152.359375 10.65625 C153.46649841 10.79276978 154.57362183 10.92928955 155.71429443 11.06994629 C156.73766907 11.20348511 157.7610437 11.33702393 158.81542969 11.47460938 C160.15912628 11.6454303 160.15912628 11.6454303 161.52996826 11.81970215 C165.7856521 12.69079839 167.49761555 13.65267333 169.9375 17.3125 C170.40407094 20.88954385 170.12733916 22.89666185 168.625 26.1875 C162.64187793 30.91834071 152.78979103 28.160122 145.58203125 27.32421875 C142.90930431 27.00441896 140.23753697 26.6777633 137.56613159 26.34710693 C132.73112533 25.75116028 127.89281874 25.18320544 123.0546875 24.61328125 C122.09040329 24.49940063 121.12611908 24.38552002 120.13261414 24.26818848 C106.75508052 22.69421806 93.36726717 21.35670839 79.9375 20.3125 C79.08766541 20.24569031 78.23783081 20.17888062 77.36224365 20.11004639 C1.24228721 14.18329483 -75.80836551 16.64814661 -151.36425781 27.9440918 C-155.00011533 28.4405186 -158.51701633 28.64786195 -162.1875 28.6875 C-163.40695312 28.71585937 -164.62640625 28.74421875 -165.8828125 28.7734375 C-169.0625 28.3125 -169.0625 28.3125 -171.45703125 26.5390625 C-173.60594663 23.55881489 -173.72094832 21.78736274 -173.48828125 18.2109375 C-173.0625 16.3125 -173.0625 16.3125 -171.3125 13.9375 C-163.51053133 10.03651567 -153.5803958 9.92822103 -144.9765625 8.9453125 C-143.94432556 8.8256311 -142.91208862 8.70594971 -141.84857178 8.5826416 C-129.77958689 7.19711361 -117.69924132 5.91796875 -105.61450195 4.67822266 C-103.35036873 4.44510206 -101.08650116 4.20937615 -98.82299805 3.97021484 C-65.87406659 0.48927127 -33.10071626 -0.03714734 0 0 Z " fill="#2A2A2D" transform="translate(497.0625,319.6875)"/>
<path d="M0 0 C8.25 0 16.5 0 25 0 C24.34 3.96 23.68 7.92 23 12 C22.8154562 16.06527052 22.70597834 20.06130091 22.70947266 24.12402344 C22.70275543 25.27050354 22.69603821 26.41698364 22.68911743 27.59820557 C22.67027006 31.35197398 22.66622002 35.10556235 22.6640625 38.859375 C22.65762568 41.49432445 22.65089668 44.1292732 22.64389038 46.76422119 C22.63115431 52.27479202 22.62811985 57.78531488 22.62939453 63.29589844 C22.63059424 69.62390802 22.60950848 75.95157564 22.5779072 82.27949882 C22.5483804 88.41549245 22.54142442 94.55132468 22.54261398 100.68738556 C22.54027039 103.2754684 22.53151785 105.86355441 22.51594925 108.45159149 C22.44097635 122.20061694 22.54424167 134.88071203 27 148 C27.32110748 148.95453064 27.64221497 149.90906128 27.97305298 150.89251709 C34.60154346 169.507811 48.25452224 184.47698951 66 193 C66 193.33 66 193.66 66 194 C51.44015558 195.18855873 36.5465185 188.50660874 25.15234375 179.83203125 C22.65125611 177.64792845 20.31733535 175.37726644 18 173 C17.23171875 172.26394531 16.4634375 171.52789063 15.671875 170.76953125 C11.04643765 166.07329639 7.68304194 161.13763567 4.6875 155.3125 C4.37409668 154.71429443 4.06069336 154.11608887 3.73779297 153.49975586 C-3.87000814 137.79011418 -3.57912402 122.04974934 -3.49609375 104.9609375 C-3.49624902 102.34550944 -3.49774259 99.73008115 -3.50050354 97.11465454 C-3.50318919 91.65642287 -3.48987073 86.19841318 -3.46655273 80.74023438 C-3.43992653 74.46496182 -3.43821053 68.19005925 -3.4499411 61.9147495 C-3.46078561 55.82944118 -3.45437582 49.74428565 -3.44038582 43.65898514 C-3.43589649 41.09076954 -3.43551228 38.52254313 -3.43945122 35.95432663 C-3.4423876 32.35653734 -3.42574134 28.75933576 -3.40405273 25.16162109 C-3.40855438 24.11918747 -3.41305603 23.07675385 -3.41769409 22.00273132 C-3.3413254 14.3117788 -1.91421518 7.45036497 0 0 Z " fill="#DEDEDE" transform="translate(294,406)"/>
<path d="M0 0 C8.25 0 16.5 0 25 0 C28.37508523 10.1252557 28.37508523 10.1252557 28.3742218 14.72924805 C28.38123611 15.77196869 28.38825043 16.81468933 28.39547729 17.88900757 C28.38783356 19.00200226 28.38018982 20.11499695 28.37231445 21.26171875 C28.37596512 22.4580191 28.37961578 23.65431946 28.38337708 24.88687134 C28.39005822 28.14317374 28.3834214 31.39909743 28.37004495 34.6553688 C28.3586517 38.07843263 28.362844 41.50148318 28.36479187 44.92456055 C28.36567237 50.67078568 28.35464568 56.41689229 28.33618164 62.16308594 C28.31501775 68.78702564 28.31150563 75.41079189 28.3177436 82.03475857 C28.32345733 88.43185634 28.31776801 94.82889362 28.30657005 101.22598267 C28.30195059 103.93707407 28.30103863 106.64812816 28.3031559 109.35922241 C28.30352807 113.15234186 28.29086331 116.94520103 28.2746582 120.73828125 C28.27713562 121.85127594 28.27961304 122.96427063 28.28216553 124.11099243 C28.15279692 143.15107208 20.40169075 159.81488264 7.44140625 173.65234375 C-5.84627181 186.42977497 -21.77164627 193.09171433 -40 194 C-35.99938511 190.97606104 -31.92438995 188.05836461 -27.8515625 185.1328125 C-11.98115108 173.26261437 -1.44663909 155.58953549 2 136 C2.0890405 134.24411257 2.13044953 132.48540496 2.13371277 130.7272644 C2.13797775 129.68451859 2.14224274 128.64177277 2.14663696 127.56742859 C2.14618378 126.43384415 2.14573059 125.3002597 2.14526367 124.13232422 C2.14862228 122.93006699 2.1519809 121.72780975 2.15544128 120.48912048 C2.16330628 117.19745078 2.16661854 113.90581896 2.16725707 110.61414099 C2.16796928 108.55315349 2.17010692 106.49217254 2.17275429 104.43118668 C2.18200272 97.22788323 2.18609012 90.02459825 2.18530273 82.82128906 C2.18470324 76.12932318 2.19523105 69.43743824 2.2110464 62.74549282 C2.22417283 56.98390511 2.22948444 51.22234368 2.22884732 45.46074116 C2.22859368 42.02703004 2.23137016 38.59339077 2.24202538 35.15969467 C2.25187153 31.32107681 2.2489285 27.48266446 2.24291992 23.64404297 C2.24853943 22.52260391 2.25415894 21.40116486 2.25994873 20.2457428 C2.25575424 19.18607803 2.25155975 18.12641327 2.24723816 17.03463745 C2.24778293 16.12947828 2.24832769 15.22431911 2.24888897 14.29173088 C1.88529364 9.48292808 0.86268021 4.74474117 0 0 Z " fill="#DEDEDE" transform="translate(666,406)"/>
<path d="M0 0 C-0.6456863 5.41913931 -1.42282872 10.79003148 -2.34765625 16.16796875 C-2.47992111 16.94473465 -2.61218597 17.72150055 -2.74845886 18.52180481 C-3.18443411 21.07738982 -3.62330545 23.63246642 -4.0625 26.1875 C-4.21384399 27.07139404 -4.36518799 27.95528809 -4.52111816 28.8659668 C-7.81472506 48.09856989 -11.22077486 67.3112938 -14.6658783 86.51728821 C-15.41199532 90.68125167 -16.14871004 94.84645886 -16.86523438 99.015625 C-17.00161316 99.80461182 -17.13799194 100.59359863 -17.27850342 101.40649414 C-17.5338232 102.88699235 -17.78661816 104.36792904 -18.03643799 105.84936523 C-18.8885377 110.77707541 -18.8885377 110.77707541 -20 113 C-30.7391494 111.30333008 -40.66568144 103.84584839 -47.24414062 95.40332031 C-58.06654056 80.49908608 -62.04080969 64.87369776 -59.5390625 46.640625 C-55.67922947 29.47572048 -45.68694635 16.38332683 -31 7 C-27.41512996 5.06605695 -23.80462327 3.44880054 -20 2 C-18.88625 1.566875 -17.7725 1.13375 -16.625 0.6875 C-11.09802363 -0.36071966 -5.60751595 -0.15178239 0 0 Z " fill="#F2F2F2" transform="translate(346,704)"/>
<path d="M0 0 C17.31751549 -0.57300603 31.28314436 5.4142615 44.18359375 16.953125 C55.20005654 28.20580824 60.39711352 43.16328498 60.37158203 58.63354492 C59.90870903 75.0923144 53.70514254 89.44092789 42.1484375 101.1875 C36.04651629 106.94152179 28.26730781 111.52450911 20 113 C17.14547151 99.18689521 14.61682931 85.33639654 12.25045776 71.43185425 C8.99418727 52.304288 5.62940298 33.20170611 2.03198242 14.13525391 C1.82384918 13.02484993 1.82384918 13.02484993 1.61151123 11.89201355 C1.24325224 9.92879198 0.87164381 7.96619949 0.49975586 6.00366211 C0 3 0 3 0 0 Z " fill="#F2F2F2" transform="translate(644,704)"/>
<path d="M0 0 C12.31728554 1.57082791 25.72182823 10.22558378 35 18 C35.84691406 18.69738281 36.69382812 19.39476562 37.56640625 20.11328125 C52.29114666 32.76981384 64.3582764 50.67828011 66.23486328 70.47802734 C67.77027998 94.0396167 60.60548346 112.69446073 46 131 C44.80732641 127.42197923 45.35602227 125.69530844 46 122 C47.57569499 101.85252131 42.17828132 83.26834561 30 67 C23.89592123 59.84739045 23.89592123 59.84739045 16.22241211 54.62939453 C13.01908331 52.9939714 10.56197621 51.53543004 8 49 C6.58353592 44.10552295 6.82180445 39.43208797 7.0625 34.375 C7.41586611 21.51247363 5.96375551 11.50465566 0 0 Z " fill="#DDDDDD" transform="translate(674,648)"/>
<path d="M0 0 C0.99 0.495 0.99 0.495 2 1 C1.66226563 1.70125 1.32453125 2.4025 0.9765625 3.125 C0.30753906 4.548125 0.30753906 4.548125 -0.375 6 C-0.81585938 6.928125 -1.25671875 7.85625 -1.7109375 8.8125 C-4.25561886 15.104803 -5.10912274 20.11214922 -5.02734375 26.87890625 C-5.01638672 28.12994141 -5.00542969 29.38097656 -4.99414062 30.66992188 C-4.95631249 33.26962768 -4.88325088 35.86905412 -4.77539062 38.46679688 C-4.77734645 42.25914671 -4.90610984 45.36441559 -6 49 C-9.26570153 52.20968665 -12.92604954 53.98655389 -17 56 C-31.85489447 67.047286 -40.27495898 85.34885622 -43.50390625 103.1171875 C-44.64807767 112.07235591 -44.4549172 121.08863213 -43 130 C-52.26456273 123.30892692 -57.22177691 111.49029366 -61 101 C-61.3196875 100.18917969 -61.639375 99.37835937 -61.96875 98.54296875 C-67.70294642 81.68549317 -64.17249772 62.55685681 -56.875 46.875 C-44.91300877 24.32537399 -24.13315599 8.04438533 0 0 Z " fill="#DDDDDD" transform="translate(314,648)"/>
<path d="M0 0 C3.68828888 1.66596623 6.86513743 3.94570588 10.125 6.3125 C11.03427246 6.96738403 11.03427246 6.96738403 11.96191406 7.63549805 C13.97660418 9.08758874 15.98828375 10.54379283 18 12 C19.42950328 13.03150535 20.85919459 14.06275016 22.2890625 15.09375 C25.30999311 17.27280926 28.32940611 19.45394831 31.34765625 21.63671875 C34.43707867 23.87088833 37.52823034 26.10262769 40.62109375 28.33203125 C44.35781054 31.02560115 48.09070403 33.7244008 51.82177734 36.42578125 C54.00960405 38.00694092 56.20197682 39.58165528 58.39453125 41.15625 C59.76322263 42.14555421 61.13172149 43.13512483 62.5 44.125 C63.1293042 44.57439941 63.7586084 45.02379883 64.40698242 45.48681641 C70.67550616 50.04144789 70.67550616 50.04144789 71.328125 53.98046875 C71.19872747 57.63594908 70.78181351 60.1046679 68.33203125 62.91015625 C66.19428622 64.6431647 64.00579615 66.25249551 61.734375 67.80566406 C59.79890145 69.13848172 57.89916004 70.51437983 56 71.8984375 C52.96524313 74.10801023 49.92194538 76.30489105 46.87109375 78.4921875 C35.55537993 86.62085897 24.36565648 94.9282255 13.25 103.328125 C9.13008328 106.38945201 7.13472435 107.22820997 2 107 C1.34155873 105.50549145 0.698979 104.00399308 0.0625 102.5 C-0.29714844 101.6646875 -0.65679688 100.829375 -1.02734375 99.96875 C-2.23292996 96.28904911 -2.60919349 92.85047253 -3 89 C-2.51869629 88.64921387 -2.03739258 88.29842773 -1.54150391 87.93701172 C9.85742234 79.61625378 21.10376487 71.13035792 32.19506836 62.40356445 C34.11294168 60.91217345 36.05253963 59.45247527 38 58 C37.63797076 55.28905958 37.17214257 54.16694433 35.1809082 52.23583984 C34.39546631 51.65012207 33.61002441 51.0644043 32.80078125 50.4609375 C31.92776367 49.80279053 31.05474609 49.14464355 30.15527344 48.46655273 C29.2171582 47.77634033 28.27904297 47.08612793 27.3125 46.375 C26.36020508 45.662229 25.40791016 44.94945801 24.42675781 44.21508789 C19.0790697 40.22689732 13.68524396 36.30528526 8.25 32.4375 C7.69787842 32.04022705 7.14575684 31.6429541 6.5769043 31.23364258 C4.14052444 29.48636238 1.69508225 27.81036622 -0.8515625 26.2265625 C-6.57136996 22.45467709 -6.57136996 22.45467709 -7.75390625 18.44140625 C-8.22610079 11.19774112 -5.56194329 6.43389367 -1 1 C-0.67 0.67 -0.34 0.34 0 0 Z " fill="#3C64FA" transform="translate(534,695)"/>
<path d="M0 0 C4.44843476 1.80598847 5.86118361 4.40809381 8.0078125 8.5546875 C9.59495372 12.46630327 9.69939371 14.80363772 9 19 C5.07355276 23.52113246 0.29218583 27.04531676 -4.4375 30.6875 C-5.2308374 31.30181885 -6.0241748 31.9161377 -6.84155273 32.54907227 C-12.23453119 36.70222333 -17.70638342 40.72263089 -23.27172852 44.64086914 C-27.96607271 47.94842205 -32.51416875 51.41608191 -37 55 C-35.68807733 58.00027882 -34.44804782 59.72344655 -31.82421875 61.671875 C-31.17066406 62.16397461 -30.51710938 62.65607422 -29.84375 63.16308594 C-28.77640625 63.9486084 -28.77640625 63.9486084 -27.6875 64.75 C-26.15999999 65.89562501 -24.63266429 67.04146913 -23.10546875 68.1875 C-22.28739746 68.79722656 -21.46932617 69.40695312 -20.62646484 70.03515625 C-15.89393664 73.57553429 -11.19972243 77.16626517 -6.5 80.75 C-5.57405029 81.45350586 -4.64810059 82.15701172 -3.6940918 82.88183594 C-2.835979 83.53442383 -1.97786621 84.18701172 -1.09375 84.859375 C-0.32740234 85.44170898 0.43894531 86.02404297 1.22851562 86.62402344 C3 88 3 88 4 89 C3 103 3 103 -1 107 C-7.83179111 106.92066307 -11.45132097 103.81620241 -16.5625 99.5625 C-18.16753512 98.26997706 -19.77432157 96.97962603 -21.3828125 95.69140625 C-22.16946289 95.05734863 -22.95611328 94.42329102 -23.76660156 93.77001953 C-26.75087042 91.40491795 -29.81955215 89.18423085 -32.9375 87 C-38.61189971 83.00342397 -44.2238934 78.92830476 -49.8125 74.8125 C-50.58907959 74.24208984 -51.36565918 73.67167969 -52.16577148 73.08398438 C-56.13876552 70.15450981 -60.08936849 67.19620125 -64.01171875 64.19921875 C-64.75252686 63.63420654 -65.49333496 63.06919434 -66.2565918 62.48706055 C-69.04265682 60.11065359 -69.0044632 58.95462412 -69.375 55.1875 C-69.61055332 51.98273511 -69.10598223 51.12573814 -66.98828125 48.61328125 C-63.41718209 45.49032002 -59.68401475 42.73578135 -55.8125 40 C-54.19392243 38.84387317 -52.57543536 37.68761963 -50.95703125 36.53125 C-50.13283691 35.94472656 -49.30864258 35.35820313 -48.45947266 34.75390625 C-44.62661738 32.02060942 -40.81390737 29.2596395 -37 26.5 C-35.51050668 25.42435451 -34.02092293 24.34883423 -32.53125 23.2734375 C-29.42563429 21.03064285 -26.32169799 18.78554639 -23.21875 16.5390625 C-15.51940751 10.9671907 -7.81942672 5.40287022 0 0 Z " fill="#3C63FA" transform="translate(439,697)"/>
<path d="M0 0 C8.7565189 2.33507171 8.7565189 2.33507171 11.75 5 C13.02487175 9.76781304 12.51477371 12.71835985 10.8203125 17.30078125 C10.59911743 17.91270828 10.37792236 18.52463531 10.15002441 19.15510559 C9.66282128 20.49829813 9.16927327 21.83920201 8.67022705 23.17803955 C7.56234424 26.15169599 6.48613373 29.13654956 5.40731812 32.12084961 C4.81400318 33.76122373 4.21908588 35.40101901 3.62271118 37.0402832 C0.12986471 46.65544157 -3.20443586 56.32495336 -6.543396 65.99438477 C-8.34987851 71.22310218 -10.16361829 76.44930156 -11.9765625 81.67578125 C-12.69566281 83.74950312 -13.4147385 85.82323353 -14.13378906 87.89697266 C-14.48526001 88.91051819 -14.83673096 89.92406372 -15.19885254 90.96832275 C-15.89327669 92.97115296 -16.58753437 94.97404089 -17.28161621 96.97698975 C-19.21833849 102.56560711 -21.15851982 108.152997 -23.10430908 113.73846436 C-23.69153432 115.42603166 -24.27747708 117.11404589 -24.86199951 118.80255127 C-33.76536965 144.51536965 -33.76536965 144.51536965 -37.25 148 C-42.83984929 148.54802444 -46.399426 147.56795094 -51.25 145 C-54.08088072 140.75367892 -53.21630784 137.86310388 -52.25 133 C-51.23531594 129.32194176 -49.98940803 125.74471764 -48.70703125 122.15234375 C-48.34696991 121.11957306 -47.98690857 120.08680237 -47.61593628 119.0227356 C-46.44040433 115.65777969 -45.25156686 112.29769426 -44.0625 108.9375 C-43.23912052 106.58876499 -42.4166197 104.23972179 -41.5949707 101.89038086 C-39.93727176 97.15523883 -38.27434033 92.42198979 -36.60644531 87.69042969 C-34.52655788 81.78946611 -32.45882446 75.88435954 -30.3984375 69.9765625 C-28.68762798 65.07147488 -26.97565918 60.1668449 -25.25170898 55.26635742 C-22.65628017 47.88817483 -20.07398693 40.50650304 -17.5450592 33.10520935 C-16.36175082 29.64521158 -15.16990149 26.18818535 -13.97720337 22.73141479 C-13.4155157 21.09591304 -12.85793928 19.45899272 -12.30477905 17.82058716 C-11.5443933 15.56934632 -10.76990352 13.32342688 -9.9921875 11.078125 C-9.77298141 10.41660934 -9.55377533 9.75509369 -9.32792664 9.0735321 C-7.53465791 3.96902 -5.80860598 0 0 0 Z " fill="#3C64FA" transform="translate(507.25,677)"/>
<path d="M0 0 C3.47283981 1.08358564 6.81932582 2.44197474 10.1875 3.8125 C38.64448993 15.00600661 61.84794072 13.52577621 90 2 C90.68449219 1.64429932 91.36898437 1.28859863 92.07421875 0.92211914 C94.89865018 -0.43029941 96.90743068 -0.37868196 100 0 C103.74093467 2.07829704 104.79149259 3.32541719 106.0625 7.4375 C105.98338349 11.9471409 105.19919377 12.86372532 102 16 C98.98380537 17.65226599 95.84242233 18.85892464 92.625 20.0625 C91.73321045 20.40684082 90.8414209 20.75118164 89.92260742 21.10595703 C82.72406614 23.8383351 75.48557887 26.17601094 68 28 C67.32340332 28.17442627 66.64680664 28.34885254 65.94970703 28.52856445 C41.98430031 34.37985176 13.16796468 27.06644948 -8 15 C-10.51294365 12.64411533 -10.92123199 11.46276207 -11.5 8.0625 C-10.41149372 1.39539903 -6.27612645 -0.67370849 0 0 Z " fill="#2D2D2D" transform="translate(446,540)"/>
<path d="M0 0 C6.27 0 12.54 0 19 0 C23.55623605 4.55623605 23.50092834 5.1061334 23.50170898 11.18359375 C23.50711197 11.89951691 23.51251495 12.61544006 23.51808167 13.35305786 C23.53056914 15.71496166 23.51407924 18.07564646 23.49609375 20.4375 C23.49624874 22.08129948 23.49773771 23.72509933 23.50050354 25.36889648 C23.50188753 28.81217627 23.48932983 32.25503951 23.46655273 35.69824219 C23.43816782 40.11021423 23.44090528 44.5214942 23.45364285 48.93351746 C23.46060037 52.32733056 23.45280995 55.72098391 23.44038582 59.11477661 C23.43587202 60.74145902 23.4355339 62.36815858 23.43945122 63.99484253 C23.44236424 66.26905422 23.42585348 68.5423148 23.40405273 70.81640625 C23.39864975 72.11006104 23.39324677 73.40371582 23.38768005 74.73657227 C22.97675794 78.19564786 22.47552838 79.59703064 20 82 C13.66754392 84.11081869 6.6749948 83 0 83 C0 55.61 0 28.22 0 0 Z " fill="#DDDDDD" transform="translate(711,437)"/>
<path d="M0 0 C5.94 0 11.88 0 18 0 C18 27.39 18 54.78 18 83 C12.06 83 6.12 83 0 83 C-4.97878267 78.02121733 -5.12397212 76.99089183 -5.19287109 70.24291992 C-5.20104858 69.54840225 -5.20922607 68.85388458 -5.21765137 68.13832092 C-5.24250069 65.83571231 -5.25902027 63.53316534 -5.2734375 61.23046875 C-5.27876118 60.44419916 -5.28408485 59.65792957 -5.28956985 58.84783363 C-5.31629975 54.68591919 -5.3356749 50.52403471 -5.35009766 46.36206055 C-5.36674332 42.0643331 -5.41151986 37.76737284 -5.4624691 33.46993542 C-5.49613432 30.16448593 -5.50767421 26.8592187 -5.51332474 23.55361366 C-5.52003956 21.96955821 -5.53526785 20.38551486 -5.55921555 18.80162621 C-5.59085686 16.58220393 -5.59090691 14.36485251 -5.58349609 12.14526367 C-5.59158295 10.88332687 -5.5996698 9.62139008 -5.60800171 8.32121277 C-5 5 -5 5 0 0 Z " fill="#DEDEDE" transform="translate(256,437)"/>
<path d="M0 0 C3.51732742 1.28517733 5.4770624 2.37247488 7.875 5.25 C9.33017877 8.80710366 9.46888682 11.18192158 9 15 C6.97333762 18.70390021 5.51955484 20.65363011 2 23 C-1.77688904 23.68343706 -5.47186889 23.85107095 -8.88671875 21.94921875 C-11.71713517 19.62594716 -13.79405342 17.71847227 -14.23828125 14.01171875 C-14.36931546 9.9082791 -14.39264203 7.63635088 -12.1875 4.0625 C-8.03448758 0.14680257 -5.65044463 -0.47885124 0 0 Z " fill="#EFEFEF" transform="translate(411,455)"/>
<path d="M0 0 C4.08998175 1.80720124 6.66247347 4.19069751 9 8 C9.63030076 12.33331775 9.30227045 14.42784522 7.25 18.3125 C3.87891094 22.3390786 2.353706 22.84716223 -2.875 23.4375 C-7.66712268 23.33897037 -9.72173592 21.35822174 -13 18 C-14.74221711 14.51556578 -14.58675154 10.80112955 -14 7 C-10.57817296 0.8202825 -6.81779 -0.46222305 0 0 Z " fill="#EFEFEF" transform="translate(598,455)"/>
</svg>
