<?xml version="1.0" encoding="UTF-8"?>
<svg version="1.1" xmlns="http://www.w3.org/2000/svg" width="1000" height="1000">
<path d="M0 0 C330 0 660 0 1000 0 C1000 330 1000 660 1000 1000 C670 1000 340 1000 0 1000 C0 670 0 340 0 0 Z " fill="#FEFEFE" transform="translate(0,0)"/>
<path d="M0 0 C0.88998688 -0.00860046 1.77997375 -0.01720093 2.69692993 -0.02606201 C3.67096268 -0.03032196 4.64499542 -0.03458191 5.64854431 -0.03897095 C7.19055511 -0.05123718 7.19055511 -0.05123718 8.76371765 -0.06375122 C12.17315591 -0.08860531 15.58255244 -0.10512401 18.99205017 -0.11953735 C20.15730162 -0.12486103 21.32255306 -0.13018471 22.52311516 -0.13566971 C28.69431272 -0.16240513 34.86549005 -0.18177624 41.03672791 -0.19619751 C46.13782234 -0.20952266 51.23851544 -0.23734924 56.33946228 -0.27822876 C62.50268694 -0.32762146 68.6655482 -0.35232738 74.82896233 -0.35942459 C77.17362367 -0.36612623 79.51827726 -0.38131976 81.86282539 -0.4053154 C85.15380312 -0.43706756 88.44339001 -0.43698765 91.73448181 -0.42959595 C92.69434494 -0.44600128 93.65420807 -0.46240662 94.64315796 -0.47930908 C102.25437814 -0.4097125 108.8799048 1.66945433 114.56027317 6.92725563 C118.46328437 11.19584534 121.50434308 15.63298492 121.83189392 21.52890015 C121.77001892 22.39515015 121.70814392 23.26140015 121.64439392 24.15390015 C122.20642517 24.27765015 122.76845642 24.40140015 123.34751892 24.52890015 C139.19678842 28.41829143 154.30152168 35.48097833 168.64439392 43.15390015 C169.80068298 43.7674939 170.95697205 44.38108765 172.14830017 45.01327515 C191.2133901 55.51100385 207.91482034 69.21545896 223.64439392 84.15390015 C224.47197205 84.93893921 225.29955017 85.72397827 226.15220642 86.5328064 C240.34864723 100.35826008 251.92488775 116.94716045 261.64439392 134.15390015 C262.01274353 134.79488647 262.38109314 135.4358728 262.76060486 136.09628296 C280.66238504 167.4438061 286.75309909 200.71532222 290.64439392 236.15390015 C291.27941833 236.37529663 291.91444275 236.59669312 292.56871033 236.82479858 C295.47204872 237.8425291 298.37067742 238.87308293 301.26939392 239.90390015 C302.26841736 240.25194702 303.2674408 240.5999939 304.29673767 240.95858765 C311.50641639 243.53688335 317.20135846 246.0943887 322.33189392 251.96640015 C322.89263611 252.59159546 323.4533783 253.21679077 324.03111267 253.8609314 C327.84732726 259.28494583 329.18213812 264.47435006 329.08189392 271.02890015 C329.07359558 271.73143921 329.06529724 272.43397827 329.05674744 273.1578064 C328.77077744 281.96690365 325.62322928 287.96324893 319.71080017 294.3609314 C313.36114764 299.87036525 306.0591581 302.29377139 297.78501892 302.2515564 C296.66997986 302.24833374 295.5549408 302.24511108 294.40611267 302.24179077 C293.24724548 302.23341187 292.0883783 302.22503296 290.89439392 302.21640015 C289.13289001 302.20963257 289.13289001 302.20963257 287.33580017 302.20272827 C284.4386132 302.19095109 281.54152938 302.17450341 278.64439392 302.15390015 C278.97439392 303.30890015 279.30439392 304.46390015 279.64439392 305.65390015 C280.72841327 309.92890601 280.80140769 313.75751468 280.64439392 318.15390015 C281.29400085 318.13295288 281.94360779 318.11200562 282.61289978 318.09042358 C285.60240225 318.00644432 288.59165551 317.95498415 291.58189392 317.90390015 C292.60347595 317.87038452 293.62505798 317.8368689 294.67759705 317.80233765 C303.74308143 317.68648481 311.32566761 319.87590366 317.96710205 326.30018616 C326.04183934 335.22424627 325.35234324 345.46142551 325.23814392 356.7515564 C325.23642969 358.5541628 325.23650167 360.3567717 325.23826599 362.15937805 C325.2366195 365.9225272 325.2180443 369.68507578 325.18638611 373.4480896 C325.14668222 378.25175072 325.14234858 383.05462815 325.14984894 387.85842228 C325.1529301 391.57584202 325.14075796 395.2930883 325.12371826 399.01046562 C325.11672892 400.7809382 325.11355875 402.55143041 325.1144104 404.32191658 C325.09850654 426.07087989 325.09850654 426.07087989 318.08189392 433.96640015 C317.48247986 434.67409546 316.8830658 435.38179077 316.26548767 436.1109314 C308.68662724 442.01815048 300.8475925 442.71246651 291.51939392 442.40390015 C290.46751892 442.38585327 289.41564392 442.3678064 288.33189392 442.34921265 C285.7683997 442.30260366 283.20691298 442.23720284 280.64439392 442.15390015 C280.63021423 442.91831421 280.61603455 443.68272827 280.60142517 444.4703064 C279.77114128 463.11803379 271.3346278 482.45445986 258.64439392 496.15390015 C257.95434265 496.91331909 257.95434265 496.91331909 257.25035095 497.68807983 C241.92174448 514.41109823 223.17910115 524.88435557 200.64439392 528.15390015 C199.49966456 528.32661595 198.35493521 528.49933176 197.17551708 528.67728138 C191.67394586 529.35427179 186.18214478 529.2953508 180.64642334 529.28761292 C178.85520751 529.29101125 178.85520751 529.29101125 177.02780551 529.29447824 C173.73029903 529.29969674 170.43284726 529.30046598 167.13534057 529.29928386 C163.57214145 529.29907914 160.00895035 529.30460549 156.445755 529.30934143 C149.47076642 529.31763332 142.49578628 529.32039562 135.52079318 529.32095381 C129.84794382 529.32142971 124.17509724 529.32348817 118.50224876 529.32665443 C102.40147034 529.33545742 86.30069856 529.34007443 70.19991771 529.33932396 C68.8990411 529.33926403 68.8990411 529.33926403 67.57188416 529.33920288 C66.70356807 529.339162 65.83525199 529.33912112 64.94062331 529.339079 C50.87550791 529.33867274 36.81041931 529.34823804 22.74531166 529.36234125 C8.28648504 529.37672426 -6.17232852 529.38361036 -20.63116246 529.38274747 C-28.74186384 529.38241614 -36.85253713 529.38513504 -44.96323204 529.39592552 C-51.87014801 529.40505593 -58.77702317 529.40718502 -65.68394258 529.4004161 C-69.20352538 529.39716353 -72.72302998 529.39704816 -76.24260521 529.40576935 C-80.06937832 529.41351788 -83.89594836 529.40882536 -87.72271729 529.40113831 C-88.81944124 529.40628187 -89.91616519 529.41142543 -91.04612321 529.41672486 C-113.84789769 529.31605069 -135.69084063 522.83841376 -153.35560608 508.15390015 C-154.7400592 507.01307983 -154.7400592 507.01307983 -156.15248108 505.84921265 C-172.64582774 491.58839081 -185.52436525 470.29583781 -187.16810608 448.21640015 C-187.25087891 446.19629563 -187.32134321 444.1754094 -187.35560608 442.15390015 C-188.36760071 442.19317627 -188.36760071 442.19317627 -189.40003967 442.23324585 C-192.50998358 442.3383295 -195.61955255 442.40257431 -198.73060608 442.46640015 C-199.79150452 442.50829468 -200.85240295 442.55018921 -201.94544983 442.59335327 C-210.43703125 442.72359225 -217.15590679 441.04666528 -223.5035553 435.16293335 C-229.54906297 428.79824267 -231.81300179 422.61104108 -231.75965881 413.89877319 C-231.76652206 413.10426758 -231.77338531 412.30976196 -231.78045654 411.49118042 C-231.7986551 408.88247453 -231.79489614 406.27437424 -231.78919983 403.6656189 C-231.79376587 401.83869737 -231.79907269 400.01177757 -231.80508423 398.18486023 C-231.8140024 394.36107393 -231.81160803 390.53749661 -231.801651 386.7137146 C-231.79017932 381.83490184 -231.81035169 376.95681482 -231.83956814 372.07809734 C-231.85799665 368.30575543 -231.8576242 364.53358516 -231.85193062 360.76120949 C-231.85177813 358.96363115 -231.85776213 357.16604064 -231.87022209 355.36850548 C-231.93758713 344.05486343 -231.99544811 334.24477024 -224.16810608 325.27890015 C-218.99178693 320.06326718 -212.43190832 317.92963078 -205.22669983 317.76327515 C-203.08181681 317.78951225 -200.93709663 317.83669851 -198.79310608 317.90390015 C-197.68902405 317.92194702 -196.58494202 317.9399939 -195.44740295 317.95858765 C-192.74920626 318.00530967 -190.05288573 318.07079875 -187.35560608 318.15390015 C-187.39685608 316.99890015 -187.43810608 315.84390015 -187.48060608 314.65390015 C-187.49648041 310.20908714 -186.57353713 306.41665884 -185.35560608 302.15390015 C-185.94462708 302.17484741 -186.53364807 302.19579468 -187.14051819 302.21737671 C-189.85786768 302.30148705 -192.57494216 302.35285481 -195.29310608 302.40390015 C-196.21929749 302.43741577 -197.14548889 302.4709314 -198.0997467 302.50546265 C-208.03065404 302.6448438 -216.15742229 299.00631965 -223.35560608 292.15390015 C-229.21138687 284.72270625 -230.95156795 277.20864333 -230.79310608 267.8296814 C-229.8749772 260.11575932 -226.28511884 253.60822843 -220.73060608 248.21640015 C-215.80816671 244.35345725 -210.18707416 242.27842998 -204.35560608 240.15390015 C-203.32951233 239.75944702 -202.30341858 239.3649939 -201.24623108 238.95858765 C-193.83244174 236.15390015 -193.83244174 236.15390015 -190.35560608 236.15390015 C-190.40781311 234.91253296 -190.40781311 234.91253296 -190.46107483 233.64608765 C-191.61963 182.55932135 -167.72201439 130.21890546 -133.31654358 93.2671814 C-131.50951396 91.31976502 -129.80789609 89.31749623 -128.10560608 87.27890015 C-103.80415028 59.59299502 -61.06101456 29.87518851 -24.35560608 24.15390015 C-24.19705139 23.51323608 -24.0384967 22.87257202 -23.87513733 22.2124939 C-21.29246853 12.63806979 -17.81842095 7.66429735 -9.44154358 2.31796265 C-6.21792789 0.51901606 -3.6254715 0.02612464 0 0 Z " fill="#5665F7" transform="translate(455.35560607910156,67.84609985351563)"/>
<path d="M0 0 C1.30585822 0.00037972 2.61171643 0.00075944 3.95714611 0.00115067 C4.68430064 -0.00000318 5.41145517 -0.00115702 6.16064468 -0.00234583 C8.62823417 -0.00501942 11.09576006 -0.00048428 13.56334633 0.00394398 C15.33787369 0.00350843 17.112401 0.00263382 18.88692796 0.00135481 C23.78735348 -0.00089333 28.68775736 0.00313547 33.58818012 0.00813287 C38.86360379 0.01243264 44.13902614 0.01099129 49.41445106 0.0102306 C58.56250561 0.00970506 67.71055305 0.01285496 76.8586058 0.01846844 C90.08531886 0.02657943 103.31202846 0.02919825 116.53874373 0.03045643 C137.995794 0.03264758 159.45284047 0.03930938 180.90988868 0.04875904 C201.75917235 0.05793153 222.60845498 0.06501316 243.45774025 0.06926686 C244.74188562 0.06952958 246.026031 0.0697923 247.34908987 0.07006299 C253.79096987 0.07136798 260.23284987 0.0726317 266.67472988 0.07387489 C320.15603218 0.08424947 373.63733037 0.1018695 427.11862892 0.1241985 C427.78200216 2.48737274 428.43674677 4.85240533 429.08688301 7.21922356 C429.27340832 7.88036129 429.45993364 8.54149903 429.65211123 9.22267124 C431.37564706 15.54383986 431.68440803 21.59647523 431.63620704 28.13957936 C431.64672096 29.94773876 431.64672096 29.94773876 431.65744728 31.79242665 C431.67186865 35.04893398 431.66872528 38.30477292 431.65593094 41.56126815 C431.6456607 45.00238744 431.65523506 48.44346834 431.6614756 51.88458973 C431.66871287 57.65976954 431.65926945 63.43474345 431.64011329 69.20989186 C431.6183623 75.84302534 431.62539861 82.47566647 431.64741892 89.10878801 C431.66569831 94.84946262 431.66807038 100.58999088 431.65766424 106.33068526 C431.65149612 109.7393087 431.65040505 113.14770247 431.66381019 116.55631024 C431.7393148 144.53148512 427.36451244 168.40715963 407.14206642 189.26091725 C391.47068966 204.60859016 370.361448 211.45839289 348.83113807 211.38489491 C347.6299405 211.38872045 346.42874292 211.392546 345.19114542 211.39648747 C341.88301816 211.40497623 338.57511497 211.40460088 335.26699454 211.40030688 C331.68874958 211.39782871 328.11053015 211.40686752 324.53229469 211.41434437 C317.53082935 211.42706503 310.5294024 211.4288882 303.52792745 211.42654411 C297.83132042 211.42475716 292.134725 211.42651866 286.43811935 211.43076855 C285.62565097 211.43136374 284.8131826 211.43195893 283.97609397 211.43257215 C282.32521174 211.43378399 280.67432951 211.43499812 279.02344728 211.43621453 C263.55485654 211.44708078 248.08628761 211.44493243 232.61769564 211.43882968 C218.49719483 211.43366627 204.37676314 211.44490239 190.256276 211.4639279 C175.7295614 211.48334936 161.20287941 211.49155446 146.67615175 211.48780465 C138.53180621 211.4858985 130.3875194 211.48832236 122.24318451 211.50251919 C115.30640252 211.51448931 108.36971538 211.51577558 101.43293195 211.50372902 C97.90065498 211.49787838 94.36855101 211.49663346 90.83628601 211.50873142 C53.88162857 211.61003235 53.88162857 211.61003235 37.11862892 203.1241985 C36.13507423 202.63177662 35.15151954 202.13935475 34.13816017 201.632011 C16.0921873 191.87364533 2.46918954 175.47273126 -3.69387108 155.8741985 C-4.09930819 154.2932971 -4.49420377 152.70967317 -4.88137108 151.1241985 C-5.15055745 150.02894415 -5.15055745 150.02894415 -5.42518193 148.91156346 C-6.9389771 142.11516537 -7.17138923 135.59021218 -7.15602928 128.64470631 C-7.16114022 127.43678425 -7.16625115 126.22886219 -7.17151695 124.98433644 C-7.1829653 121.6989216 -7.18549762 118.41366475 -7.18295366 115.1282354 C-7.1818761 112.3703297 -7.18678743 109.61244668 -7.19155908 106.85454589 C-7.20261784 100.33829269 -7.20311285 93.82209714 -7.19704491 87.30583912 C-7.191014 80.62002852 -7.20330194 73.93442883 -7.22461498 67.24865419 C-7.24232722 61.47671813 -7.24821712 55.7048486 -7.24497724 49.93288642 C-7.24317877 46.49968348 -7.24565424 43.06663087 -7.25969177 39.63345295 C-7.35182861 11.21739877 -7.35182861 11.21739877 -3.88137108 1.1241985 C-2.88137108 0.1241985 -2.88137108 0.1241985 0 0 Z " fill="#F3F3F3" transform="translate(289.8813710808754,369.8758015036583)"/>
<path d="M0 0 C0.88998688 -0.00860046 1.77997375 -0.01720093 2.69692993 -0.02606201 C3.67096268 -0.03032196 4.64499542 -0.03458191 5.64854431 -0.03897095 C7.19055511 -0.05123718 7.19055511 -0.05123718 8.76371765 -0.06375122 C12.17315591 -0.08860531 15.58255244 -0.10512401 18.99205017 -0.11953735 C20.15730162 -0.12486103 21.32255306 -0.13018471 22.52311516 -0.13566971 C28.69431272 -0.16240513 34.86549005 -0.18177624 41.03672791 -0.19619751 C46.13782234 -0.20952266 51.23851544 -0.23734924 56.33946228 -0.27822876 C62.50268694 -0.32762146 68.6655482 -0.35232738 74.82896233 -0.35942459 C77.17362367 -0.36612623 79.51827726 -0.38131976 81.86282539 -0.4053154 C85.15380312 -0.43706756 88.44339001 -0.43698765 91.73448181 -0.42959595 C92.69434494 -0.44600128 93.65420807 -0.46240662 94.64315796 -0.47930908 C102.25437814 -0.4097125 108.8799048 1.66945433 114.56027317 6.92725563 C118.46328437 11.19584534 121.50434308 15.63298492 121.83189392 21.52890015 C121.77001892 22.39515015 121.70814392 23.26140015 121.64439392 24.15390015 C122.20642517 24.27765015 122.76845642 24.40140015 123.34751892 24.52890015 C139.19678842 28.41829143 154.30152168 35.48097833 168.64439392 43.15390015 C169.80068298 43.7674939 170.95697205 44.38108765 172.14830017 45.01327515 C191.2133901 55.51100385 207.91482034 69.21545896 223.64439392 84.15390015 C224.47197205 84.93893921 225.29955017 85.72397827 226.15220642 86.5328064 C240.34864723 100.35826008 251.92488775 116.94716045 261.64439392 134.15390015 C262.01274353 134.79488647 262.38109314 135.4358728 262.76060486 136.09628296 C280.66238504 167.4438061 286.75309909 200.71532222 290.64439392 236.15390015 C291.27941833 236.37529663 291.91444275 236.59669312 292.56871033 236.82479858 C295.47204872 237.8425291 298.37067742 238.87308293 301.26939392 239.90390015 C302.26841736 240.25194702 303.2674408 240.5999939 304.29673767 240.95858765 C311.50641639 243.53688335 317.20135846 246.0943887 322.33189392 251.96640015 C322.89263611 252.59159546 323.4533783 253.21679077 324.03111267 253.8609314 C327.84732726 259.28494583 329.18213812 264.47435006 329.08189392 271.02890015 C329.07359558 271.73143921 329.06529724 272.43397827 329.05674744 273.1578064 C328.77077744 281.96690365 325.62322928 287.96324893 319.71080017 294.3609314 C313.36114764 299.87036525 306.0591581 302.29377139 297.78501892 302.2515564 C296.66997986 302.24833374 295.5549408 302.24511108 294.40611267 302.24179077 C293.24724548 302.23341187 292.0883783 302.22503296 290.89439392 302.21640015 C289.13289001 302.20963257 289.13289001 302.20963257 287.33580017 302.20272827 C284.4386132 302.19095109 281.54152938 302.17450341 278.64439392 302.15390015 C278.97439392 303.30890015 279.30439392 304.46390015 279.64439392 305.65390015 C280.72841327 309.92890601 280.80140769 313.75751468 280.64439392 318.15390015 C281.29400085 318.13295288 281.94360779 318.11200562 282.61289978 318.09042358 C285.60240225 318.00644432 288.59165551 317.95498415 291.58189392 317.90390015 C292.60347595 317.87038452 293.62505798 317.8368689 294.67759705 317.80233765 C303.74308143 317.68648481 311.32566761 319.87590366 317.96710205 326.30018616 C326.04183934 335.22424627 325.35234324 345.46142551 325.23814392 356.7515564 C325.23642969 358.5541628 325.23650167 360.3567717 325.23826599 362.15937805 C325.2366195 365.9225272 325.2180443 369.68507578 325.18638611 373.4480896 C325.14668222 378.25175072 325.14234858 383.05462815 325.14984894 387.85842228 C325.1529301 391.57584202 325.14075796 395.2930883 325.12371826 399.01046562 C325.11672892 400.7809382 325.11355875 402.55143041 325.1144104 404.32191658 C325.09850654 426.07087989 325.09850654 426.07087989 318.08189392 433.96640015 C317.48247986 434.67409546 316.8830658 435.38179077 316.26548767 436.1109314 C308.68662724 442.01815048 300.8475925 442.71246651 291.51939392 442.40390015 C290.46751892 442.38585327 289.41564392 442.3678064 288.33189392 442.34921265 C285.7683997 442.30260366 283.20691298 442.23720284 280.64439392 442.15390015 C280.63021423 442.91831421 280.61603455 443.68272827 280.60142517 444.4703064 C279.77114128 463.11803379 271.3346278 482.45445986 258.64439392 496.15390015 C257.95434265 496.91331909 257.95434265 496.91331909 257.25035095 497.68807983 C241.92174448 514.41109823 223.17910115 524.88435557 200.64439392 528.15390015 C199.49966456 528.32661595 198.35493521 528.49933176 197.17551708 528.67728138 C191.67394586 529.35427179 186.18214478 529.2953508 180.64642334 529.28761292 C178.85520751 529.29101125 178.85520751 529.29101125 177.02780551 529.29447824 C173.73029903 529.29969674 170.43284726 529.30046598 167.13534057 529.29928386 C163.57214145 529.29907914 160.00895035 529.30460549 156.445755 529.30934143 C149.47076642 529.31763332 142.49578628 529.32039562 135.52079318 529.32095381 C129.84794382 529.32142971 124.17509724 529.32348817 118.50224876 529.32665443 C102.40147034 529.33545742 86.30069856 529.34007443 70.19991771 529.33932396 C68.8990411 529.33926403 68.8990411 529.33926403 67.57188416 529.33920288 C66.70356807 529.339162 65.83525199 529.33912112 64.94062331 529.339079 C50.87550791 529.33867274 36.81041931 529.34823804 22.74531166 529.36234125 C8.28648504 529.37672426 -6.17232852 529.38361036 -20.63116246 529.38274747 C-28.74186384 529.38241614 -36.85253713 529.38513504 -44.96323204 529.39592552 C-51.87014801 529.40505593 -58.77702317 529.40718502 -65.68394258 529.4004161 C-69.20352538 529.39716353 -72.72302998 529.39704816 -76.24260521 529.40576935 C-80.06937832 529.41351788 -83.89594836 529.40882536 -87.72271729 529.40113831 C-88.81944124 529.40628187 -89.91616519 529.41142543 -91.04612321 529.41672486 C-113.84789769 529.31605069 -135.69084063 522.83841376 -153.35560608 508.15390015 C-154.7400592 507.01307983 -154.7400592 507.01307983 -156.15248108 505.84921265 C-172.64582774 491.58839081 -185.52436525 470.29583781 -187.16810608 448.21640015 C-187.25087891 446.19629563 -187.32134321 444.1754094 -187.35560608 442.15390015 C-188.36760071 442.19317627 -188.36760071 442.19317627 -189.40003967 442.23324585 C-192.50998358 442.3383295 -195.61955255 442.40257431 -198.73060608 442.46640015 C-199.79150452 442.50829468 -200.85240295 442.55018921 -201.94544983 442.59335327 C-210.43703125 442.72359225 -217.15590679 441.04666528 -223.5035553 435.16293335 C-229.54906297 428.79824267 -231.81300179 422.61104108 -231.75965881 413.89877319 C-231.76652206 413.10426758 -231.77338531 412.30976196 -231.78045654 411.49118042 C-231.7986551 408.88247453 -231.79489614 406.27437424 -231.78919983 403.6656189 C-231.79376587 401.83869737 -231.79907269 400.01177757 -231.80508423 398.18486023 C-231.8140024 394.36107393 -231.81160803 390.53749661 -231.801651 386.7137146 C-231.79017932 381.83490184 -231.81035169 376.95681482 -231.83956814 372.07809734 C-231.85799665 368.30575543 -231.8576242 364.53358516 -231.85193062 360.76120949 C-231.85177813 358.96363115 -231.85776213 357.16604064 -231.87022209 355.36850548 C-231.93758713 344.05486343 -231.99544811 334.24477024 -224.16810608 325.27890015 C-218.99178693 320.06326718 -212.43190832 317.92963078 -205.22669983 317.76327515 C-203.08181681 317.78951225 -200.93709663 317.83669851 -198.79310608 317.90390015 C-197.68902405 317.92194702 -196.58494202 317.9399939 -195.44740295 317.95858765 C-192.74920626 318.00530967 -190.05288573 318.07079875 -187.35560608 318.15390015 C-187.39685608 316.99890015 -187.43810608 315.84390015 -187.48060608 314.65390015 C-187.49648041 310.20908714 -186.57353713 306.41665884 -185.35560608 302.15390015 C-185.94462708 302.17484741 -186.53364807 302.19579468 -187.14051819 302.21737671 C-189.85786768 302.30148705 -192.57494216 302.35285481 -195.29310608 302.40390015 C-196.21929749 302.43741577 -197.14548889 302.4709314 -198.0997467 302.50546265 C-208.03065404 302.6448438 -216.15742229 299.00631965 -223.35560608 292.15390015 C-229.21138687 284.72270625 -230.95156795 277.20864333 -230.79310608 267.8296814 C-229.8749772 260.11575932 -226.28511884 253.60822843 -220.73060608 248.21640015 C-215.80816671 244.35345725 -210.18707416 242.27842998 -204.35560608 240.15390015 C-203.32951233 239.75944702 -202.30341858 239.3649939 -201.24623108 238.95858765 C-193.83244174 236.15390015 -193.83244174 236.15390015 -190.35560608 236.15390015 C-190.40781311 234.91253296 -190.40781311 234.91253296 -190.46107483 233.64608765 C-191.61963 182.55932135 -167.72201439 130.21890546 -133.31654358 93.2671814 C-131.50951396 91.31976502 -129.80789609 89.31749623 -128.10560608 87.27890015 C-103.80415028 59.59299502 -61.06101456 29.87518851 -24.35560608 24.15390015 C-24.19705139 23.51323608 -24.0384967 22.87257202 -23.87513733 22.2124939 C-21.29246853 12.63806979 -17.81842095 7.66429735 -9.44154358 2.31796265 C-6.21792789 0.51901606 -3.6254715 0.02612464 0 0 Z M-6.35560608 20.15390015 C-7.6839563 22.81060059 -7.48637442 24.82007222 -7.49363708 27.79632568 C-7.49909042 28.9965184 -7.50454376 30.19671112 -7.51016235 31.43327332 C-7.51128218 32.77032465 -7.5123327 34.10737605 -7.51332092 35.44442749 C-7.51798816 36.84708313 -7.52313158 38.24973725 -7.52871704 39.65238953 C-7.54000614 42.67696364 -7.54843637 45.70152784 -7.55483627 48.72611618 C-7.56550436 53.5077152 -7.58574572 58.28924317 -7.60795593 63.07080078 C-7.66992118 76.66910552 -7.72390875 90.26740624 -7.75697327 103.86581421 C-7.77530732 111.37300292 -7.8042274 118.88007284 -7.84497797 126.38717425 C-7.8660677 130.36117763 -7.88150801 134.33503118 -7.88378525 138.30909348 C-7.8859297 142.04708124 -7.90177793 145.78475699 -7.92817497 149.52264977 C-7.93881339 151.54956197 -7.93461005 153.57653499 -7.92999268 155.60346985 C-7.94663216 157.4122184 -7.94663216 157.4122184 -7.96360779 159.25750732 C-7.96691793 160.30575369 -7.97022808 161.35400005 -7.97363853 162.43401146 C-8.40885774 165.53309094 -9.20617889 166.91281337 -11.35560608 169.15390015 C-13.29310608 169.68515015 -13.29310608 169.68515015 -15.35560608 169.65390015 C-16.37654358 169.6693689 -16.37654358 169.6693689 -17.41810608 169.68515015 C-20.20163667 168.92192402 -20.86645618 167.58423021 -22.35560608 165.15390015 C-22.74036694 162.72515488 -22.74036694 162.72515488 -22.7543335 159.96536255 C-22.76687164 158.91650879 -22.77940979 157.86765503 -22.79232788 156.78701782 C-22.79089279 155.64190735 -22.7894577 154.49679688 -22.78797913 153.31698608 C-22.8032666 151.5019458 -22.8032666 151.5019458 -22.81886292 149.65023804 C-22.84387473 146.33640196 -22.85571785 143.0230091 -22.86171699 139.70911694 C-22.87109952 136.24437346 -22.89730277 132.77975823 -22.92172241 129.31509399 C-22.96539455 122.75621549 -22.99393705 116.19736187 -23.0170458 109.6383822 C-23.0440937 102.17040133 -23.08800541 94.70254942 -23.13333452 87.23466063 C-23.22619098 71.87447342 -23.29786705 56.51426193 -23.35560608 41.15390015 C-24.79426403 41.46353567 -26.2323275 41.77593414 -27.6701355 42.0894928 C-28.47102002 42.26316218 -29.27190454 42.43683157 -30.0970583 42.61576366 C-34.97528238 43.77808149 -39.47462006 45.93861914 -44.04310608 47.96640015 C-45.13163879 48.44923462 -46.22017151 48.93206909 -47.34169006 49.42953491 C-81.02705522 64.7339558 -111.23999301 88.44831336 -133.35560608 118.15390015 C-133.78615295 118.72366577 -134.21669983 119.2934314 -134.66029358 119.88046265 C-147.73566625 137.23504819 -158.84156978 157.37690285 -165.35560608 178.15390015 C-165.67916077 179.15550171 -166.00271545 180.15710327 -166.33607483 181.1890564 C-171.62182645 198.50444965 -173.87142938 215.80558202 -174.58460999 233.84506226 C-174.64439026 235.12389282 -174.70417053 236.40272339 -174.76576233 237.7203064 C-174.80838196 238.86442993 -174.85100159 240.00855347 -174.89491272 241.18734741 C-175.41256402 244.52067065 -175.91270318 245.84696467 -178.35560608 248.15390015 C-181.17127991 249.44662476 -181.17127991 249.44662476 -184.56263733 250.5562439 C-185.7891803 250.97196655 -187.01572327 251.38768921 -188.2794342 251.81600952 C-190.22023966 252.45511194 -192.16252404 253.08957699 -194.10487366 253.72396851 C-205.63574379 257.17269352 -205.63574379 257.17269352 -213.73060608 265.52890015 C-214.84041329 270.19009042 -214.84891968 273.8297426 -213.16810608 278.34140015 C-210.835146 281.96151061 -208.20015853 284.23162392 -204.35560608 286.15390015 C-201.63853401 286.25435777 -198.946934 286.29313416 -196.22946739 286.28812122 C-195.37523939 286.29047345 -194.52101139 286.29282568 -193.64089769 286.29524919 C-190.74699039 286.30196434 -187.85312772 286.30148022 -184.95921326 286.30107117 C-182.876039 286.30436823 -180.79286539 286.30809347 -178.7096926 286.31221265 C-172.9604589 286.32225876 -167.21123564 286.32595363 -161.46199441 286.32860196 C-155.27094848 286.33249732 -149.07991087 286.3420762 -142.88887024 286.35081482 C-128.63230055 286.36966596 -114.37573273 286.37983883 -100.11915387 286.3882755 C-93.07614702 286.39247985 -86.03314103 286.39770215 -78.9901349 286.40296003 C-54.88783123 286.42085227 -30.78552732 286.43584865 -6.683218 286.44328022 C-5.1695528 286.44375498 -3.65588759 286.44423087 -2.14222238 286.44470788 C-1.39156842 286.44494426 -0.64091446 286.44518063 0.13248659 286.44542417 C3.93577211 286.44662539 7.73905763 286.44784083 11.54234314 286.44906616 C12.67451098 286.44942639 12.67451098 286.44942639 13.82955089 286.44979389 C38.30220534 286.45768711 62.77481132 286.48111836 87.2474446 286.51362211 C113.11241526 286.54791247 138.97735755 286.56763066 164.84235132 286.57092446 C167.68128674 286.57134201 170.52022215 286.57182157 173.35915756 286.57234764 C174.4077202 286.57253243 174.4077202 286.57253243 175.47746592 286.57272095 C186.73236136 286.57505406 197.98720058 286.59072031 209.24207597 286.61118949 C220.55384696 286.63143584 231.86553097 286.63659678 243.17732365 286.62741885 C249.30685436 286.6228627 255.43620232 286.62483675 261.56570816 286.6441803 C267.17540033 286.66173084 272.78477534 286.66088022 278.3944705 286.64528301 C280.42549903 286.64289457 282.45654906 286.64729403 284.48754461 286.65911166 C287.24648601 286.67417244 290.00429524 286.66459832 292.76320839 286.64888477 C293.94852487 286.66421808 293.94852487 286.66421808 295.15778714 286.67986116 C300.7329463 286.61046657 304.96140284 285.21646534 309.64439392 282.15390015 C312.39320931 278.95127089 313.43742318 275.25774409 314.20689392 271.15390015 C313.39100239 266.80247864 311.82911291 263.26924902 308.64439392 260.15390015 C301.36567708 256.14527421 293.13640233 253.78686758 285.28892517 251.15390015 C284.34662048 250.82390015 283.4043158 250.49390015 282.43345642 250.15390015 C281.5847699 249.86515015 280.73608337 249.57640015 279.86167908 249.27890015 C277.21141689 247.93421746 276.12295568 246.71856592 274.64439392 244.15390015 C274.2596283 242.19711304 274.2596283 242.19711304 274.23814392 240.1265564 C274.20877747 238.95516113 274.20877747 238.95516113 274.17881775 237.76010132 C274.16745789 236.92067993 274.15609802 236.08125854 274.14439392 235.21640015 C272.39988024 183.90524836 251.02054658 136.06379741 215.64439392 99.15390015 C215.09154724 98.56850464 214.53870056 97.98310913 213.96910095 97.37997437 C204.62010901 87.51693066 194.70138943 79.04534226 183.64439392 71.15390015 C183.02628845 70.70707886 182.40818298 70.26025757 181.77134705 69.79989624 C166.852278 59.09655762 141.40464517 41.15390015 122.64439392 41.15390015 C122.64108377 41.78412205 122.63777363 42.41434395 122.63436317 43.06366348 C122.55315816 58.39528489 122.46107399 73.72679646 122.35686684 89.05827713 C122.30673574 96.47245468 122.2602929 103.88662115 122.22251892 111.3008728 C122.18958745 117.76280632 122.14974989 124.22465395 122.10160387 130.68649268 C122.07635028 134.10828517 122.05456569 137.53002076 122.04104996 140.95188141 C122.02422985 144.77097458 121.99520443 148.58979077 121.96324158 152.40878296 C121.9600013 154.11242256 121.9600013 154.11242256 121.95669556 155.85047913 C121.94553207 156.89091873 121.93436859 157.93135834 121.92286682 159.00332642 C121.91733606 159.90668354 121.91180531 160.81004066 121.90610695 161.74077225 C121.62452745 164.33707913 121.04170785 165.95801764 119.64439392 168.15390015 C116.59455396 169.67882012 114.00205702 169.38952563 110.64439392 169.15390015 C108.54081011 167.61127202 107.80385233 166.47281697 106.64439392 164.15390015 C106.54734631 162.27508722 106.51535013 160.39279094 106.51309204 158.51147461 C106.50707977 156.71118553 106.50707977 156.71118553 106.50094604 154.87452698 C106.50142116 153.53747556 106.50195728 152.20042417 106.50254822 150.8633728 C106.49951741 149.46071767 106.49599617 148.05806353 106.49201965 146.65541077 C106.4841244 143.6308341 106.4789834 140.60626926 106.47572899 137.58168411 C106.46982558 132.80008573 106.45329181 128.01856205 106.43438721 123.23699951 C106.42804966 121.60093884 106.42172404 119.96487813 106.41541004 118.32881737 C106.41224423 117.50942012 106.40907842 116.69002286 106.40581667 115.84579539 C106.36371452 104.71120553 106.33075905 93.57665024 106.31846619 82.44198608 C106.31009285 74.93477376 106.28762926 67.42774603 106.24911052 59.92062604 C106.22932494 55.94657841 106.21695346 51.97280687 106.22194481 47.99870682 C106.22658246 44.260645 106.2128351 40.52310676 106.18493271 36.78515053 C106.17470094 34.75823385 106.18428792 32.73124758 106.19442749 30.70433044 C106.18195984 29.49849808 106.16949219 28.29266571 106.15664673 27.05029297 C106.15425838 26.0020466 106.15187002 24.95380024 106.14940929 23.87378883 C105.51271409 20.44470492 104.35498827 19.28413162 101.64439392 17.15390015 C98.92292281 16.24674311 97.31997128 16.02315626 94.52088928 16.00672913 C93.26341888 15.99599617 93.26341888 15.99599617 91.98054504 15.98504639 C91.06411224 15.98235748 90.14767944 15.97966858 89.20347595 15.97689819 C87.75183044 15.9670414 87.75183044 15.9670414 86.27085876 15.95698547 C83.06464055 15.93725568 79.85846912 15.92559187 76.65220642 15.9156189 C75.01081003 15.90950561 75.01081003 15.90950561 73.33625412 15.90326881 C67.54687946 15.88241158 61.7575285 15.86810713 55.96812439 15.85873413 C49.98350139 15.84765752 43.99924896 15.81324193 38.01475716 15.77356243 C33.41655272 15.7474452 28.81843734 15.73904674 24.22016525 15.73545265 C22.01373155 15.73057572 19.80730211 15.71893045 17.6009407 15.70041466 C14.51502634 15.67612298 11.43008122 15.67696996 8.34410095 15.68392944 C7.43171661 15.67111938 6.51933228 15.65830933 5.57929993 15.64511108 C0.3363496 15.68824865 -2.59255568 16.12278165 -6.35560608 20.15390015 Z M-168.35560608 302.15390015 C-171.93927457 311.71034946 -172.50682828 319.26348276 -172.51673889 329.27694702 C-172.5217038 330.48282471 -172.5266687 331.68870239 -172.53178406 332.93112183 C-172.5438462 336.22500362 -172.55133928 339.51885002 -172.55579472 342.81274986 C-172.5587389 344.87813457 -172.56284627 346.9435139 -172.56729889 349.00889587 C-172.58095806 355.49248714 -172.59063095 361.9760659 -172.59450078 368.45967054 C-172.59896991 375.90337721 -172.61647094 383.34689918 -172.64550138 390.79054976 C-172.66724612 396.57007443 -172.67721192 402.34954765 -172.6785419 408.12911272 C-172.67958135 411.5685543 -172.68530214 415.00782194 -172.70336151 418.44721985 C-172.82840938 446.40483354 -169.65545813 469.13656989 -149.66810608 490.40390015 C-132.2998308 506.99006365 -110.86076586 513.30497142 -87.30189514 513.30107117 C-86.10170085 513.30474786 -84.90150656 513.30842454 -83.66494274 513.31221265 C-80.35042925 513.32129235 -77.03596507 513.32593874 -73.72144389 513.32860196 C-70.13977853 513.33252458 -66.55812725 513.34210134 -62.97647095 513.35081482 C-54.33597923 513.37052249 -45.69548645 513.38063744 -37.05497789 513.38954261 C-32.97862199 513.3939342 -28.90226737 513.39929868 -24.82591248 513.40453148 C-11.2632372 513.42153681 2.29943729 513.43602951 15.86212158 513.44328022 C19.37694805 513.44518987 22.89177451 513.44711024 26.40660095 513.44906616 C27.28011133 513.4495499 28.15362171 513.45003364 29.0536021 513.45053204 C43.19431817 513.45882706 57.33494951 513.48415816 71.47562861 513.51664684 C86.0169604 513.54978181 100.5582492 513.56773472 115.09961891 513.57092446 C123.25461209 513.57308343 131.40948164 513.58174198 139.56443787 513.60738564 C146.51118833 513.62918068 153.45778509 513.6371 160.40456587 513.62741885 C163.94283943 513.62289968 167.48079646 513.62461952 171.0190258 513.6441803 C199.02226053 513.79036007 222.90264269 509.42374791 243.78111267 489.17733765 C259.19904831 473.43421622 265.95242837 452.29813624 265.93492126 430.6902771 C265.94163849 429.48396133 265.94835571 428.27764557 265.95527649 427.03477478 C265.97092403 423.75343274 265.97762596 420.47224336 265.97890806 417.19086862 C265.9803385 415.13199254 265.98462486 413.0731423 265.9899025 411.01427269 C266.00835832 403.80632237 266.01657894 396.59844558 266.01499939 389.39047241 C266.01380002 382.71258113 266.03487338 376.03501409 266.06648672 369.35720474 C266.09279703 363.59034685 266.10336052 357.82359388 266.10208857 352.05667657 C266.10158313 348.62729618 266.10703027 345.19820428 266.12844467 341.76888466 C266.14822856 337.93382141 266.14221704 334.09957466 266.13023376 330.26449585 C266.14147278 329.15594238 266.15271179 328.04738892 266.16429138 326.90524292 C266.0915664 317.66092037 264.19027072 311.70093816 261.64439392 302.15390015 C119.74439392 302.15390015 -22.15560608 302.15390015 -168.35560608 302.15390015 Z " fill="#2C2C2D" transform="translate(455.35560607910156,67.84609985351563)"/>
<path d="M0 0 C76.56 0 153.12 0 232 0 C232 119.36920992 232 119.36920992 202.4375 150 C191.4096602 160.99271929 178.58071097 167.82648588 164 173 C163.10301895 173.32184769 162.2060379 173.64369537 161.28187561 173.97529602 C151.25652453 177.10552348 140.63903683 177.3088682 130.21875 177.30078125 C128.96219604 177.30506638 127.70564209 177.3093515 126.41101074 177.31376648 C123.10880239 177.32090696 119.80678087 177.31793674 116.50457764 177.31219482 C114.50114674 177.31249983 112.49801077 177.32255319 110.49462891 177.33618164 C106.590032 177.36088214 102.68591583 177.36483032 98.78125 177.36328125 C97.60687378 177.372491 96.43249756 177.38170074 95.22253418 177.39118958 C69.51039381 177.2500808 46.28838929 166.44737755 28.37792969 148.40185547 C27.92321289 147.93924316 27.46849609 147.47663086 27 147 C26.23945313 146.23816406 25.47890625 145.47632813 24.6953125 144.69140625 C-11.1824614 106.64979774 0 46.20447393 0 0 Z " fill="#F3F3F3" transform="translate(381,611)"/>
<path d="M0 0 C0.86625 0.680625 1.7325 1.36125 2.625 2.0625 C3.594375 2.743125 4.56375 3.42375 5.5625 4.125 C18.76001471 15.5905574 20.04048254 34.78137692 23.19677734 50.87036133 C25.61678071 63.20520301 28.29704298 75.47718824 31.01171875 87.75 C31.27774902 88.9565625 31.5437793 90.163125 31.81787109 91.40625 C32.23014698 93.27383731 32.64264372 95.14138071 33.06011963 97.0078125 C33.48786718 98.92103447 33.91002141 100.83550425 34.33203125 102.75 C34.70485229 104.42642578 34.70485229 104.42642578 35.08520508 106.13671875 C35.625 109.0625 35.625 109.0625 35.625 113.0625 C37.5121875 113.619375 37.5121875 113.619375 39.4375 114.1875 C58.75771778 120.71827784 73.61433484 135.3554909 82.75683594 153.28662109 C87.00352033 161.97345525 89.46761331 170.47519236 90.625 180.0625 C82.85314192 182.60795566 75.02515159 184.27763494 67 185.8125 C64.31293826 186.33548855 61.6269723 186.8639193 58.94140625 187.39453125 C58.2540892 187.5302504 57.56677216 187.66596954 56.85862732 187.80580139 C49.52804365 189.26373489 42.23314884 190.8776138 34.9375 192.5 C22.73733235 195.20968582 10.50530036 197.7137297 -1.75564575 200.13247681 C-11.38510885 202.03436388 -20.97511506 204.04951036 -30.53491211 206.27856445 C-37.68615051 207.93544904 -44.86594549 209.42829643 -52.0625 210.875 C-53.14547363 211.09430176 -54.22844727 211.31360352 -55.34423828 211.53955078 C-56.85026611 211.83901611 -56.85026611 211.83901611 -58.38671875 212.14453125 C-59.27834717 212.32218018 -60.16997559 212.4998291 -61.08862305 212.68286133 C-63.375 213.0625 -63.375 213.0625 -66.375 213.0625 C-71.50840932 188.9232538 -70.59063513 167.48942062 -57.375 146.0625 C-53.89419067 140.91284545 -50.1709619 135.65478256 -45.60546875 131.421875 C-43.70920432 129.3269543 -43.97887916 127.15878122 -44.0859375 124.453125 C-44.52855397 120.79256717 -45.50594049 117.31841324 -46.4609375 113.76171875 C-47.57213008 109.26471289 -48.41390024 104.74229686 -49.25 100.1875 C-50.60794945 92.85299777 -52.12442751 85.57797977 -53.8125 78.3125 C-54.67266437 74.56384927 -55.5261152 70.81372068 -56.375 67.0625 C-56.72643066 65.51344971 -56.72643066 65.51344971 -57.08496094 63.93310547 C-65.24715503 27.43580476 -65.24715503 27.43580476 -56.375 13.0625 C-42.47084667 -5.84392126 -20.99651115 -12.0535527 0 0 Z " fill="#2D2D2D" transform="translate(691.375,613.9375)"/>
<path d="M0 0 C7.41892648 7.41892648 13.11870619 16.22021585 13.25500488 26.94824219 C13.23705872 28.0257373 13.23705872 28.0257373 13.21875 29.125 C13.21097534 29.90133789 13.20320068 30.67767578 13.19519043 31.47753906 C12.96492711 40.45735811 11.18210097 49.05581277 9.3125 57.8125 C8.95174985 59.56957219 8.59307144 61.32707085 8.23632812 63.08496094 C7.48930969 66.76173109 6.73518897 70.43693659 5.9765625 74.11132812 C4.18903563 82.8153823 2.51349937 91.54106034 0.84741211 100.26904297 C0.32060023 103.02019841 -0.21332774 105.76990326 -0.74804688 108.51953125 C-1.07193869 110.20566694 -1.39552278 111.89186178 -1.71875 113.578125 C-1.86836182 114.34086731 -2.01797363 115.10360962 -2.17211914 115.88946533 C-3.22065807 121.31844098 -3.22065807 121.31844098 -3.1875 126.8125 C-1.06435203 129.27161321 -1.06435203 129.27161321 1.8125 131.8125 C15.35864742 145.29288942 22.88486454 164.03786322 22.99804688 183.02734375 C22.99869141 184.02894531 22.99933594 185.03054688 23 186.0625 C23.01224609 187.04863281 23.02449219 188.03476562 23.03710938 189.05078125 C23.04981236 195.47849309 22.56608561 201.60164806 20.8125 207.8125 C20.4825 208.1425 20.1525 208.4725 19.8125 208.8125 C10.5384706 208.75830036 1.3073161 206.49857745 -7.75 204.6875 C-9.34197489 204.37344391 -10.93401724 204.05972963 -12.52612305 203.74633789 C-23.9058968 201.49867392 -35.26764714 199.16428301 -46.62561035 196.80926514 C-65.07905028 192.98365538 -83.58169807 189.42097432 -102.10546875 185.953125 C-103.79842765 185.63545089 -105.49138015 185.31774269 -107.18432617 185 C-110.45327526 184.3865398 -113.72305214 183.7777848 -116.9934082 183.171875 C-118.49563249 182.89076934 -119.99783102 182.60952603 -121.5 182.328125 C-122.17471848 182.20439514 -122.84943695 182.08066528 -123.54460144 181.95318604 C-127.85266091 181.14136434 -131.99401746 180.06973102 -136.1875 178.8125 C-136.72964676 161.10237264 -127.76646044 144.67292642 -116.1875 131.8125 C-115.30191406 130.78769531 -115.30191406 130.78769531 -114.3984375 129.7421875 C-108.57294556 123.42090902 -99.94679602 116.23377781 -91.43920898 114.13427734 C-87.95682962 113.13483708 -85.90843313 112.23741627 -83.1875 109.8125 C-80.28828272 103.66181246 -79.80748753 96.47079426 -78.875 89.8125 C-78.56361881 87.85517971 -78.24684772 85.89870958 -77.92480469 83.94311523 C-77.28546227 80.0439749 -76.66644297 76.14248833 -76.06201172 72.23779297 C-74.93084787 65.06204581 -73.46912058 57.9752214 -71.9375 50.875 C-69.92552726 41.45405005 -69.92552726 41.45405005 -68.140625 31.98828125 C-66.47915943 22.6437961 -64.70564737 14.77136639 -59.1875 6.8125 C-58.61 5.905 -58.0325 4.9975 -57.4375 4.0625 C-40.79560438 -12.57939562 -18.87011648 -12.95007994 0 0 Z " fill="#2D2D2D" transform="translate(351.1875,612.1875)"/>
<path d="M0 0 C1.134375 0.35191406 2.26875 0.70382812 3.4375 1.06640625 C16.13528503 5.28507825 26.87212647 11.28968719 37 20 C37.97066406 20.76699219 38.94132813 21.53398438 39.94140625 22.32421875 C43.26618859 25.09583746 45.87142023 28.26386178 48.5 31.6875 C48.97775879 32.30544434 49.45551758 32.92338867 49.94775391 33.56005859 C65.53525284 53.9951159 69 73.31676588 69 99 C6.63 99 -55.74 99 -120 99 C-120 67.89339353 -112.7976978 45.7040513 -91.4375 23 C-68.19757834 0.39873267 -31.28338597 -10.14266029 0 0 Z " fill="#3961F9" transform="translate(411,833)"/>
<path d="M0 0 C1.134375 0.35191406 2.26875 0.70382812 3.4375 1.06640625 C16.15601565 5.29196573 26.83037956 11.31643325 37 20 C37.82757812 20.63421875 38.65515625 21.2684375 39.5078125 21.921875 C55.90849924 35.59768275 66.04206355 58.29444487 69 79 C69 85.6 69 92.2 69 99 C6.96 99 -55.08 99 -119 99 C-119 70.42420433 -114.61908967 47.94858842 -95 27 C-94.37867188 26.30003906 -93.75734375 25.60007812 -93.1171875 24.87890625 C-70.53788738 0.6463101 -31.62223419 -10.25252124 0 0 Z " fill="#3961F9" transform="translate(634,833)"/>
<path d="M0 0 C1.12591553 0.00523682 2.25183105 0.01047363 3.41186523 0.01586914 C4.62680664 0.0190918 5.84174805 0.02231445 7.09350586 0.02563477 C8.37290039 0.03401367 9.65229492 0.04239258 10.97045898 0.05102539 C12.2537207 0.05553711 13.53698242 0.06004883 14.85913086 0.06469727 C18.04212144 0.07652994 21.22501001 0.09385185 24.40795898 0.11352539 C24.26695456 0.97270695 24.12595013 1.8318885 23.98067284 2.71710587 C22.70921812 10.92641939 22.11070469 18.86752051 22.11743164 27.16723633 C22.11071442 28.38882446 22.10399719 29.6104126 22.09707642 30.86901855 C22.08149263 34.17511772 22.0747309 37.4810649 22.07344484 40.78719616 C22.07200976 42.86487809 22.067715 44.9425347 22.06245041 47.02021027 C22.04402661 54.30295957 22.03577026 61.58563636 22.03735352 68.8684082 C22.03855332 75.60198968 22.01746301 82.33524985 21.98586619 89.06875014 C21.95951567 94.89688134 21.94899397 100.72490878 21.95026433 106.55309892 C21.95076843 110.01325494 21.94539785 113.47312455 21.92390823 116.93321991 C21.77025948 146.8913714 26.02854146 170.73435093 47.40795898 193.11352539 C47.95967773 193.74000977 48.51139648 194.36649414 49.07983398 195.01196289 C54.02943094 200.427116 63.92336372 208.75959824 71.47523767 209.24692923 C72.76672826 209.25286452 72.76672826 209.25286452 74.08430958 209.25891972 C75.5726338 209.26930667 75.5726338 209.26930667 77.09102517 209.27990347 C78.18914315 209.28244759 79.28726112 209.2849917 80.4186554 209.28761292 C81.57908786 209.29411187 82.73952033 209.30061082 83.93511742 209.30730671 C87.16634856 209.3242171 90.39755984 209.33656035 93.62881768 209.34686339 C96.39813452 209.35649157 99.16742875 209.3698051 101.93672989 209.38313235 C111.86069943 209.43076215 121.78470108 209.46338188 131.70874023 209.49243164 C132.88399488 209.49589301 132.88399488 209.49589301 134.08299205 209.49942431 C149.64463275 209.5448786 165.20628757 209.5833956 180.76797199 209.61015415 C184.19101797 209.6161432 187.61406375 209.62222884 191.03710938 209.62841797 C192.31327155 209.63071744 192.31327155 209.63071744 193.61521479 209.63306337 C207.38016163 209.65874608 221.14480129 209.71559622 234.90959034 209.78488327 C249.04729662 209.85545801 263.18484446 209.89560452 277.32272404 209.90690368 C285.25824057 209.91405159 293.19322423 209.93469658 301.12856483 209.98993111 C307.89120426 210.03696946 314.65323065 210.05660006 321.41602776 210.04104961 C324.86313727 210.03396941 328.30893599 210.03954369 331.75583649 210.08062744 C351.66458032 210.5847221 351.66458032 210.5847221 368.40795898 201.11352539 C369.80568527 199.95600187 369.80568527 199.95600187 371.23164845 198.77509403 C373.74450043 196.65574878 376.0800282 194.43342883 378.40795898 192.11352539 C379.09374023 191.45094727 379.77952148 190.78836914 380.48608398 190.10571289 C396.27639438 173.75590331 402.73246377 150.86011898 402.68261719 128.64404297 C402.68772812 127.44894104 402.69283905 126.25383911 402.69810486 125.02252197 C402.70954045 121.77628632 402.71208751 118.53021085 402.70954156 115.28396058 C402.70846255 112.55601709 402.71337906 109.82809645 402.71814698 107.10015792 C402.72919986 100.65236612 402.72970437 94.2046326 402.72363281 87.75683594 C402.7176051 81.14886433 402.72988306 74.54110629 402.75120288 67.93317109 C402.76893739 62.22232948 402.77480151 56.51155509 402.77156514 50.80068702 C402.76976987 47.40655841 402.77220885 44.01258195 402.78627968 40.61847878 C402.83197185 26.71388343 402.63053696 13.67647255 399.40795898 0.11352539 C408.64795898 0.11352539 417.88795898 0.11352539 427.40795898 0.11352539 C432.13986433 13.87751968 432.00205512 27.09501005 431.945261 41.55059505 C431.93499077 44.99171433 431.94456512 48.43279523 431.95080566 51.87391663 C431.95804293 57.64909644 431.94859951 63.42407035 431.92944336 69.19921875 C431.90769237 75.83235224 431.91472867 82.46499337 431.93674898 89.09811491 C431.95502837 94.83878952 431.95740045 100.57931778 431.9469943 106.32001215 C431.94082618 109.72863559 431.93973512 113.13702936 431.95314026 116.54563713 C432.02864486 144.52081201 427.65384251 168.39648652 407.43139648 189.25024414 C391.76001973 204.59791705 370.65077806 211.44771979 349.12046814 211.3742218 C347.91927056 211.37804735 346.71807299 211.3818729 345.48047549 211.38581437 C342.17234822 211.39430312 338.86444504 211.39392777 335.5563246 211.38963377 C331.97807964 211.3871556 328.39986021 211.39619441 324.82162476 211.40367126 C317.82015941 211.41639192 310.81873247 211.4182151 303.81725752 211.415871 C298.12065049 211.41408406 292.42405506 211.41584555 286.72744942 211.42009544 C285.91498104 211.42069063 285.10251266 211.42128582 284.26542403 211.42189905 C282.6145418 211.42311088 280.96365957 211.42432501 279.31277735 211.42554142 C263.8441866 211.43640767 248.37561767 211.43425932 232.9070257 211.42815658 C218.7865249 211.42299316 204.66609321 211.43422928 190.54560607 211.4532548 C176.01889146 211.47267625 161.49220948 211.48088135 146.96548182 211.47713155 C138.82113627 211.47522539 130.67684946 211.47764926 122.53251457 211.49184608 C115.59573258 211.50381621 108.65904545 211.50510247 101.72226202 211.49305592 C98.18998505 211.48720527 94.65788107 211.48596036 91.12561607 211.49805832 C54.17095864 211.59935924 54.17095864 211.59935924 37.40795898 203.11352539 C36.4244043 202.62110352 35.44084961 202.12868164 34.42749023 201.62133789 C16.38151737 191.86297223 2.7585196 175.46205815 -3.40454102 155.86352539 C-3.80997813 154.282624 -4.20487371 152.69900007 -4.59204102 151.11352539 C-4.86122738 150.01827105 -4.86122738 150.01827105 -5.13585186 148.90089035 C-6.64964703 142.10449226 -6.88205917 135.57953907 -6.86669922 128.6340332 C-6.87181015 127.42611115 -6.87692108 126.21818909 -6.88218689 124.97366333 C-6.89363524 121.6882485 -6.89616755 118.40299164 -6.89362359 115.11756229 C-6.89254603 112.35965659 -6.89745736 109.60177357 -6.90222901 106.84387279 C-6.91328777 100.32761958 -6.91378278 93.81142404 -6.90771484 87.29516602 C-6.90168393 80.60935541 -6.91397187 73.92375572 -6.93528491 67.23798108 C-6.95299716 61.46604502 -6.95888705 55.6941755 -6.95564717 49.92221332 C-6.9538487 46.48901038 -6.95632418 43.05595777 -6.97036171 39.62277985 C-7.06249854 11.20672567 -7.06249854 11.20672567 -3.59204102 1.11352539 C-2.59204102 0.11352539 -2.59204102 0.11352539 0 0 Z " fill="#DCDCDC" transform="translate(289.592041015625,369.886474609375)"/>
<path d="M0 0 C76.56 0 153.12 0 232 0 C232 119.36920992 232 119.36920992 202.4375 150 C191.4096602 160.99271929 178.58071097 167.82648588 164 173 C163.10301895 173.32184769 162.2060379 173.64369537 161.28187561 173.97529602 C151.25652453 177.10552348 140.63903683 177.3088682 130.21875 177.30078125 C128.96219604 177.30506638 127.70564209 177.3093515 126.41101074 177.31376648 C123.10880239 177.32090696 119.80678087 177.31793674 116.50457764 177.31219482 C114.50114674 177.31249983 112.49801077 177.32255319 110.49462891 177.33618164 C106.590032 177.36088214 102.68591583 177.36483032 98.78125 177.36328125 C97.60687378 177.372491 96.43249756 177.38170074 95.22253418 177.39118958 C69.51039381 177.2500808 46.28838929 166.44737755 28.37792969 148.40185547 C27.92321289 147.93924316 27.46849609 147.47663086 27 147 C26.23945313 146.23816406 25.47890625 145.47632813 24.6953125 144.69140625 C-11.1824614 106.64979774 0 46.20447393 0 0 Z M16 16 C11.96853122 85.05087115 11.96853122 85.05087115 42 140 C59.0404854 155.4241792 78.70770435 161.14505345 101.234375 161.16796875 C102.38939514 161.17129715 103.54441528 161.17462555 104.73443604 161.17805481 C107.16833094 161.18309608 109.60223269 161.18546401 112.03613281 161.18530273 C115.7247275 161.18748505 119.41302075 161.2056597 123.1015625 161.22460938 C125.47916566 161.22754486 127.85677022 161.22952862 130.234375 161.23046875 C131.32022888 161.23765427 132.40608276 161.24483978 133.52484131 161.25224304 C156.96759743 161.18362407 176.53828067 152.81050836 193.46875 136.7265625 C224.62362658 103.16776026 216 60.20086901 216 16 C150 16 84 16 16 16 Z " fill="#2C2C2C" transform="translate(381,611)"/>
<path d="M0 0 C0.76054688 0.51949219 1.52109375 1.03898437 2.3046875 1.57421875 C2.92085937 1.98027344 3.53703125 2.38632812 4.171875 2.8046875 C8.38317771 5.9583128 11.18815096 10.02749635 14.0546875 14.38671875 C14.43181885 14.95519531 14.8089502 15.52367187 15.19750977 16.109375 C20.37553384 24.33676999 21.86798223 32.17537815 21.8046875 41.82421875 C21.79896729 42.83766357 21.79324707 43.8511084 21.78735352 44.89526367 C21.46719937 58.36221907 16.48748667 68.97677009 7.20703125 78.79296875 C2.1311187 83.59136227 -3.24088819 86.92677603 -9.6953125 89.57421875 C-11.00048828 90.12142578 -11.00048828 90.12142578 -12.33203125 90.6796875 C-23.12407457 93.55004513 -37.2581738 93.22494833 -47.23046875 88.1171875 C-60.87163339 79.57794815 -69.09081441 69.22005925 -73.5078125 53.69921875 C-76.49863484 40.37802731 -74.65775666 28.14057526 -67.8828125 16.26171875 C-60.72055033 5.25107691 -51.55093657 -2.55723989 -38.9140625 -6.76953125 C-25.04818438 -9.59655495 -11.89894312 -7.65461606 0 0 Z " fill="#2B2B2B" transform="translate(627.6953125,402.42578125)"/>
<path d="M0 0 C10.08027311 7.27044088 16.45197123 17.57633112 19.2421875 29.6171875 C19.42652344 30.24496094 19.61085938 30.87273437 19.80078125 31.51953125 C22.24328644 43.12683466 19.60541017 56.19054964 14.2421875 66.6171875 C12.12629424 69.8278713 9.77541571 72.72822937 7.2421875 75.6171875 C6.71882813 76.24625 6.19546875 76.8753125 5.65625 77.5234375 C0.80031183 82.92418825 -5.18148556 85.72324526 -11.7578125 88.6171875 C-12.48355469 88.99488281 -13.20929688 89.37257813 -13.95703125 89.76171875 C-18.40717457 91.12096755 -22.81900792 90.98599017 -27.4453125 90.9921875 C-28.38826172 91.01667969 -29.33121094 91.04117188 -30.30273438 91.06640625 C-42.41283854 91.11634482 -53.63267062 85.63639139 -62.2421875 77.17578125 C-73.89934705 63.73875338 -76.62118212 50.05166054 -75.93701172 32.86230469 C-75.54739623 27.98096398 -73.99788511 23.92287224 -71.7578125 19.6171875 C-71.33371094 18.77027344 -70.90960938 17.92335938 -70.47265625 17.05078125 C-64.94708395 6.96930533 -56.99565504 -0.26389123 -46.7578125 -5.3828125 C-45.7678125 -5.89328125 -45.7678125 -5.89328125 -44.7578125 -6.4140625 C-30.25134514 -12.53397842 -12.63803779 -8.11580063 0 0 Z " fill="#2B2B2B" transform="translate(427.7578125,403.3828125)"/>
<path d="M0 0 C1.134375 0.35191406 2.26875 0.70382812 3.4375 1.06640625 C16.13528503 5.28507825 26.87212647 11.28968719 37 20 C37.97066406 20.76699219 38.94132813 21.53398438 39.94140625 22.32421875 C43.26618859 25.09583746 45.87142023 28.26386178 48.5 31.6875 C48.97775879 32.30544434 49.45551758 32.92338867 49.94775391 33.56005859 C65.53525284 53.9951159 69 73.31676588 69 99 C6.63 99 -55.74 99 -120 99 C-120 67.89339353 -112.7976978 45.7040513 -91.4375 23 C-68.19757834 0.39873267 -31.28338597 -10.14266029 0 0 Z M-84 38 C-94.97519302 50.54466412 -103 66.20950026 -103 83 C-51.85 83 -0.7 83 52 83 C52 64.01626797 42.79266482 48.10791448 29.7265625 34.66015625 C12.79959026 18.63705146 -7.01564495 12.29901383 -29.92578125 12.81640625 C-50.5527073 13.58710365 -69.68983967 23.28789453 -84 38 Z " fill="#2B2B2C" transform="translate(411,833)"/>
<path d="M0 0 C1.134375 0.35191406 2.26875 0.70382812 3.4375 1.06640625 C16.15601565 5.29196573 26.83037956 11.31643325 37 20 C37.82757812 20.63421875 38.65515625 21.2684375 39.5078125 21.921875 C55.90849924 35.59768275 66.04206355 58.29444487 69 79 C69 85.6 69 92.2 69 99 C6.96 99 -55.08 99 -119 99 C-119 70.42420433 -114.61908967 47.94858842 -95 27 C-94.37867188 26.30003906 -93.75734375 25.60007812 -93.1171875 24.87890625 C-70.53788738 0.6463101 -31.62223419 -10.25252124 0 0 Z M-81 36 C-81.78375 36.78375 -82.5675 37.5675 -83.375 38.375 C-94.70013825 50.31230788 -103 66.2713756 -103 83 C-51.85 83 -0.7 83 52 83 C52 64.01626797 42.79266482 48.10791448 29.7265625 34.66015625 C12.79959026 18.63705146 -7.01564495 12.29901383 -29.92578125 12.81640625 C-49.68888212 13.55482798 -67.11126817 22.11126817 -81 36 Z " fill="#2B2B2C" transform="translate(634,833)"/>
<path d="M0 0 C0.97577499 -0.00215389 1.95154999 -0.00430779 2.95689392 -0.00652695 C40.30243127 -0.07273295 77.15570036 1.66551209 114.3125 5.375 C115.46039001 5.48817566 116.60828003 5.60135132 117.79095459 5.71795654 C130.8372445 7.00892364 143.87705915 8.36409513 156.87713623 10.06408691 C158.58674354 10.28234559 160.29772196 10.4900009 162.00958252 10.68981934 C164.75017671 11.01004772 167.486109 11.35796624 170.22265625 11.7109375 C171.05945419 11.80291412 171.89625214 11.89489075 172.75840759 11.98965454 C178.10639594 12.71883991 180.89602461 13.89672147 184.3125 18.375 C184.9375 21.375 184.9375 21.375 184.3125 24.375 C182.375 27.25 182.375 27.25 179.3125 29.375 C173.40772488 30.14145566 167.44105114 29.07010792 161.6328125 28.03125 C150.85887252 26.22489206 140.04996174 25.0099227 129.1875 23.875 C127.67961411 23.71541809 127.67961411 23.71541809 126.14126587 23.5526123 C108.24731993 21.66672341 90.33755355 20.17430759 72.38671875 18.953125 C71.73202103 18.90855164 71.0773233 18.86397827 70.40278625 18.8180542 C68.03980137 18.66259864 65.67620688 18.51909457 63.3125 18.375 C62.0266098 18.29166916 60.7407196 18.20833832 59.41586304 18.1224823 C48.29605437 17.42874147 37.21763235 17.21184228 26.078125 17.20703125 C24.26674374 17.20379845 22.45536272 17.20043309 20.64398193 17.19694519 C16.86225789 17.19100633 13.08055649 17.18909935 9.29882812 17.18969727 C5.51036726 17.18977773 1.72202936 17.18295449 -2.06640625 17.16918945 C-39.04845132 17.03741385 -75.56805202 18.73460448 -112.34716797 22.58239746 C-115.33320846 22.8925521 -118.32014027 23.19357962 -121.30712509 23.49448204 C-135.98724341 24.9746341 -150.65380174 26.50912982 -165.27682495 28.48960876 C-174.90778809 29.76467129 -174.90778809 29.76467129 -179.6875 29.375 C-182.64098858 26.67287215 -184.35715127 24.7294298 -185.3125 20.8125 C-184.3669323 17.12478598 -182.63883947 15.75658282 -179.6875 13.375 C-176.67090303 12.3961466 -173.64644739 12.07771813 -170.5 11.75 C-169.57203613 11.63648193 -168.64407227 11.52296387 -167.68798828 11.40600586 C-165.69660833 11.16555293 -163.70401751 10.93495775 -161.71044922 10.71337891 C-158.81508528 10.38928147 -155.92552084 10.03370469 -153.03515625 9.66796875 C-127.23837373 6.47051809 -101.28632352 4.23259742 -75.375 2.1875 C-74.48554688 2.11587646 -73.59609375 2.04425293 -72.6796875 1.97045898 C-69.6834901 1.74481198 -66.68679362 1.55519472 -63.6875 1.375 C-63.03472076 1.33362915 -62.38194153 1.2922583 -61.7093811 1.24963379 C-41.16887266 -0.01042462 -20.57138546 0.04075725 0 0 Z " fill="#2A2B2D" transform="translate(504.6875,277.625)"/>
<path d="M0 0 C14.68887026 10.52919018 25.50699437 24.65524747 28.52734375 42.77734375 C29.09619825 47.84713471 28.98661477 52.93362849 28.90234375 58.02734375 C23.66375467 58.1957514 18.90413116 57.60097399 13.77734375 56.48828125 C12.62073746 56.24646873 12.62073746 56.24646873 11.44076538 55.99977112 C9.78725784 55.65344102 8.13438824 55.30405341 6.4821167 54.95187378 C2.07576117 54.01325448 -2.33557186 53.09848971 -6.74609375 52.1796875 C-7.63259613 51.99432938 -8.51909851 51.80897125 -9.4324646 51.61799622 C-17.1833279 50.00000205 -24.94709941 48.46018278 -32.72265625 46.96484375 C-34.54434326 46.61413818 -34.54434326 46.61413818 -36.40283203 46.25634766 C-43.57463555 44.88151021 -50.74991273 43.52529918 -57.92578125 42.171875 C-58.76188934 42.01408066 -59.59799744 41.85628632 -60.45944214 41.69371033 C-64.54883398 40.92214234 -68.6385448 40.15236523 -72.72900391 39.38647461 C-79.87861659 38.04408565 -87.01041077 36.6740386 -94.09765625 35.02734375 C-95.668722 29.8417233 -93.48199993 26.89645041 -91.01953125 22.25390625 C-81.80032559 6.77613414 -67.62594169 -3.69771171 -50.28515625 -8.28515625 C-33.15323606 -12.43094475 -14.93860921 -9.51323789 0 0 Z " fill="#F2F2F2" transform="translate(329.09765625,743.97265625)"/>
<path d="M0 0 C7.03296105 6.703623 13.14335278 14.42871992 16.3359375 23.71484375 C16.3359375 24.70484375 16.3359375 25.69484375 16.3359375 26.71484375 C8.37393267 28.98513829 0.37229179 30.8767015 -7.7265625 32.58984375 C-8.93739502 32.84813965 -10.14822754 33.10643555 -11.39575195 33.37255859 C-20.78947508 35.35949295 -30.20965984 37.18240313 -39.64477539 38.96044922 C-46.18161088 40.20322407 -52.64761981 41.60204766 -59.10717773 43.19360352 C-66.78790429 45.05104631 -74.55679073 46.45697874 -82.32055664 47.91870117 C-89.07511472 49.19626645 -95.76967369 50.57332466 -102.44140625 52.234375 C-104.6640625 52.71484375 -104.6640625 52.71484375 -107.6640625 52.71484375 C-108.78201502 35.42384471 -104.31606031 19.40381592 -92.82714844 6.03857422 C-68.24154818 -21.34200271 -28.02329059 -24.03757331 0 0 Z " fill="#F2F2F2" transform="translate(745.6640625,755.28515625)"/>
<path d="M0 0 C8.08692618 4.5825915 11.26062745 10.20890321 13.6875 18.9375 C14.74462896 23.48096636 15.65809455 28.0489919 16.5625 32.625 C18.34545191 41.46600134 20.18686477 50.28202705 22.25 59.0625 C25.17741903 71.59992911 27.42828317 84.26554556 29.6875 96.9375 C29.00872803 96.97190186 28.32995605 97.00630371 27.63061523 97.04174805 C14.27360573 97.77092884 2.07680285 98.65244296 -10.3125 103.9375 C-10.95541992 104.21094238 -11.59833984 104.48438477 -12.26074219 104.76611328 C-13.94675755 105.48501267 -15.6299033 106.21063518 -17.3125 106.9375 C-20.23757992 96.16632334 -22.48539878 85.30113856 -24.63494873 74.35162354 C-26.49219307 64.90096597 -28.47178321 55.49341697 -30.66381836 46.11474609 C-36.95051163 19.19790705 -36.95051163 19.19790705 -32.3125 9.9375 C-25.09150207 -1.07862469 -12.12985482 -5.57020524 0 0 Z " fill="#DDDDDD" transform="translate(680.3125,626.0625)"/>
<path d="M0 0 C6.13457994 3.67869283 9.39273983 8.62713743 11.33203125 15.3984375 C12.27166133 24.90674221 10.75733471 33.97075806 8.68270874 43.21600342 C8.02443365 46.14971342 7.3982166 49.09003842 6.76927185 52.03015137 C6.44356964 53.55076713 6.11622398 55.0710318 5.7872467 56.59094238 C4.22814901 63.80613196 2.79480129 71.04334911 1.4006958 78.29202271 C1.0316071 80.2106634 0.6591705 82.12865913 0.28662109 84.04663086 C-1.14639618 91.47983991 -2.46350958 98.92478975 -3.66796875 106.3984375 C-6.84711359 105.34522387 -10.01923156 104.27666639 -13.18359375 103.1796875 C-25.8284723 98.84127729 -37.37514779 97.02514618 -50.66796875 96.3984375 C-50.17923008 86.92003886 -48.47724788 77.83755796 -46.48046875 68.5859375 C-45.84265217 65.58020401 -45.21014622 62.57336303 -44.578125 59.56640625 C-44.4179892 58.80746063 -44.25785339 58.04851501 -44.09286499 57.26657104 C-43.0009241 52.06627759 -41.96763817 46.85713105 -40.9765625 41.63671875 C-40.84357254 40.93749802 -40.71058258 40.23827728 -40.57356262 39.51786804 C-39.9451776 36.20484982 -39.32398531 32.89071944 -38.71020508 29.57495117 C-34.67315829 8.20905788 -34.67315829 8.20905788 -27.66796875 2.3984375 C-18.61465035 -3.76219713 -9.99137353 -4.43711391 0 0 Z " fill="#DDDDDD" transform="translate(336.66796875,621.6015625)"/>
<path d="M0 0 C6.93 0 13.86 0 21 0 C21 30.36 21 60.72 21 92 C14.07 92 7.14 92 0 92 C-5.71849765 86.28150235 -6.14910345 85.03540932 -6.19287109 77.6003418 C-6.20104858 76.83754913 -6.20922607 76.07475647 -6.21765137 75.28884888 C-6.24250831 72.75898018 -6.25902201 70.22916761 -6.2734375 67.69921875 C-6.27876118 66.83572123 -6.28408485 65.9722237 -6.28956985 65.08255959 C-6.31630265 60.51216138 -6.33567718 55.9417905 -6.35009766 51.37133789 C-6.36674673 46.64990314 -6.41152584 41.92916626 -6.4624691 37.20799541 C-6.49612032 33.57828466 -6.50767271 29.94874 -6.51332474 26.31888771 C-6.52004305 24.57853677 -6.53528028 22.83819698 -6.55921555 21.09799767 C-6.5908263 18.66070009 -6.59091087 16.22529043 -6.58349609 13.7878418 C-6.59990143 13.07025192 -6.61630676 12.35266205 -6.63320923 11.61332703 C-6.58403174 7.66007629 -6.11875594 6.14036997 -3.52603149 3.07575989 C-2.6924411 2.39075912 -1.85885071 1.70575836 -1 1 C-0.67 0.67 -0.34 0.34 0 0 Z " fill="#DEDEDE" transform="translate(246,402)"/>
<path d="M0 0 C20.88515411 0 20.88515411 0 25.78823853 4.7223053 C27.48936962 7.91984653 27.41893867 10.90926471 27.38818359 14.44311523 C27.39344055 15.18669281 27.39869751 15.93027039 27.40411377 16.69638062 C27.41730095 19.15066633 27.40857965 21.6043016 27.3984375 24.05859375 C27.40045883 25.76725895 27.40337076 27.47592332 27.40713501 29.18458557 C27.41155679 32.76482358 27.40513286 36.34483695 27.39111328 39.92504883 C27.37403434 44.50952542 27.38385515 49.09347461 27.40183067 53.67793179 C27.41268354 57.20644588 27.40921506 60.73483545 27.4014473 64.26335335 C27.39944877 65.9534111 27.40189236 67.64348024 27.40888596 69.3335247 C27.41652385 71.69848334 27.40486367 74.06259454 27.38818359 76.42749023 C27.39729263 77.4711097 27.39729263 77.4711097 27.40658569 78.53581238 C27.35015547 82.86495064 26.73471708 85.6138409 24 89 C19 92 19 92 0 92 C0 61.64 0 31.28 0 0 Z " fill="#DDDDDD" transform="translate(737,402)"/>
<path d="M0 0 C2.95779956 0.9231729 5.7773809 2.09566621 8.625 3.3125 C19.30284578 7.66112534 30.37599722 11.54552771 42 12 C43.28003906 12.07476563 44.56007813 12.14953125 45.87890625 12.2265625 C63.47674952 12.95091471 81.57861805 7.85001328 97.2578125 -0.15234375 C99.98352479 -1.47853112 102.01780256 -1.36516703 105 -1 C107.875 0.5 107.875 0.5 110 3 C110.7151093 5.81430113 110.91900299 8.23217923 110 11 C105.94266814 15.17139339 100.82308273 16.94725914 95.5 19 C94.60724365 19.34885254 93.7144873 19.69770508 92.79467773 20.05712891 C60.29618929 32.60596306 31.11613034 30.79450621 -1 18 C-10.14747978 13.85252022 -10.14747978 13.85252022 -13 11 C-13.66028708 4.17703349 -13.66028708 4.17703349 -11.5625 0.4375 C-7.66952938 -1.74636157 -4.27876397 -0.83613913 0 0 Z " fill="#2D2D2D" transform="translate(454,517)"/>
<path d="M0 0 C3.78823229 1.72975069 5.27345454 3.11527272 7 7 C7.6171875 10.2265625 7.6171875 10.2265625 7 14 C4.47610987 16.87026856 1.47973233 18.9804926 -1.625 21.1875 C-2.43324219 21.79013672 -3.24148438 22.39277344 -4.07421875 23.01367188 C-8.29698924 26.14126855 -12.59876344 29.12993797 -17 32 C-12.34759481 36.96378664 -7.04652956 40.76287407 -1.53125 44.71484375 C-0.83515625 45.22402344 -0.1390625 45.73320313 0.578125 46.2578125 C1.21137695 46.7130127 1.84462891 47.16821289 2.49707031 47.63720703 C4 49 4 49 5 52 C4.44140625 54.26171875 4.44140625 54.26171875 3.5625 56.6875 C3.13130859 57.89986328 3.13130859 57.89986328 2.69140625 59.13671875 C2.46324219 59.75160156 2.23507812 60.36648438 2 61 C-0.1171875 61.75390625 -0.1171875 61.75390625 -3 62 C-5.27260641 60.7405203 -7.09828292 59.52038233 -9.125 57.9375 C-10.3528496 57.0169071 -11.58071512 56.09633543 -12.80859375 55.17578125 C-13.4722998 54.66998535 -14.13600586 54.16418945 -14.81982422 53.64306641 C-17.20217052 51.84763633 -19.61470844 50.0991632 -22.03515625 48.35546875 C-23.75278164 47.11222433 -25.47023111 45.86873681 -27.1875 44.625 C-28.4262085 43.73349243 -28.4262085 43.73349243 -29.68994141 42.82397461 C-30.46644043 42.25557861 -31.24293945 41.68718262 -32.04296875 41.1015625 C-32.73414795 40.59963379 -33.42532715 40.09770508 -34.13745117 39.58056641 C-36.15213241 37.87089982 -37.59072999 36.23477007 -39 34 C-39.04296875 31.046875 -39.04296875 31.046875 -38 28 C-35.55078125 25.578125 -35.55078125 25.578125 -32.3125 23.25 C-31.7345166 22.82734863 -31.1565332 22.40469727 -30.56103516 21.96923828 C-28.71916383 20.62883959 -26.86098535 19.31369374 -25 18 C-23.80255025 17.13918141 -22.60592335 16.27721694 -21.41015625 15.4140625 C-19.07712504 13.73499917 -16.73722628 12.06629108 -14.390625 10.40625 C-9.55873189 6.9857346 -4.78011017 3.49240702 0 0 Z " fill="#3D64F9" transform="translate(467,662)"/>
<path d="M0 0 C3.43341781 1.25622875 6.19599814 2.6789802 9.1171875 4.87109375 C9.88232666 5.44053711 10.64746582 6.00998047 11.43579102 6.59667969 C12.64319946 7.50788574 12.64319946 7.50788574 13.875 8.4375 C15.5688153 9.70208431 17.26282843 10.96640367 18.95703125 12.23046875 C19.80088379 12.86259277 20.64473633 13.4947168 21.51416016 14.14599609 C25.80006922 17.34253837 30.12704218 20.48295751 34.45458984 23.62280273 C36.77774479 25.318634 38.96257997 26.96257997 41 29 C40.88778266 32.8692539 40.67552509 35.2074215 38.12890625 38.1953125 C37.28199219 38.83210937 36.43507813 39.46890625 35.5625 40.125 C34.58023438 40.87394531 33.59796875 41.62289062 32.5859375 42.39453125 C31.39207502 43.26501302 30.19661431 44.13330494 29 45 C28.27844727 45.53028809 27.55689453 46.06057617 26.81347656 46.60693359 C21.57759642 50.45452876 16.3158245 54.26351937 11 58 C10.40614502 58.41999268 9.81229004 58.83998535 9.20043945 59.27270508 C5.26406925 61.99245516 5.26406925 61.99245516 2.8125 62.0625 C0.14366829 60.49801245 -0.69960197 58.78656722 -2 56 C-2.36551187 54.00562988 -2.70316139 52.00574125 -3 50 C-2.47567383 49.5968457 -1.95134766 49.19369141 -1.41113281 48.77832031 C0.97820254 46.93850039 3.36412078 45.09429927 5.75 43.25 C6.575 42.61578125 7.4 41.9815625 8.25 41.328125 C9.44882812 40.4 9.44882812 40.4 10.671875 39.453125 C11.4050293 38.88754883 12.13818359 38.32197266 12.89355469 37.73925781 C15.06930083 35.94277943 17.03713869 34.02492807 19 32 C18.45061768 31.60208252 17.90123535 31.20416504 17.33520508 30.79418945 C14.82427118 28.97154529 12.31837162 27.142097 9.8125 25.3125 C8.94818359 24.68666016 8.08386719 24.06082031 7.19335938 23.41601562 C-4.66753546 14.73620369 -4.66753546 14.73620369 -5.5625 10.0625 C-4.81294403 5.98158415 -2.94179895 2.94179895 0 0 Z " fill="#3D64F9" transform="translate(525,662)"/>
<path d="M0 0 C3.3634077 0.82610014 5.05498642 1.56808751 7.5625 3.875 C7.00520442 10.56844422 5.23988835 16.36181814 2.9921875 22.671875 C2.6328714 23.70072815 2.2735553 24.7295813 1.90335083 25.78961182 C0.75552161 29.07074479 -0.40325507 32.34788515 -1.5625 35.625 C-2.31844095 37.77969103 -3.07365555 39.93463703 -3.828125 42.08984375 C-5.30958356 46.31961674 -6.79924083 50.54637601 -8.29394531 54.77148438 C-9.70683907 58.77412703 -11.09081132 62.78485941 -12.44824219 66.80664062 C-12.76260223 67.73011292 -13.07696228 68.65358521 -13.40084839 69.6050415 C-13.98660289 71.32929612 -14.56559144 73.05586999 -15.13650513 74.78509521 C-15.39680511 75.54727356 -15.6571051 76.3094519 -15.92529297 77.09472656 C-16.25688919 78.08693207 -16.25688919 78.08693207 -16.59518433 79.09918213 C-17.57912527 81.17358247 -18.68029142 82.40742189 -20.4375 83.875 C-23.97887604 84.20343407 -27.35434244 83.43299026 -30.5 81.8125 C-33.03856893 76.56612422 -29.69758895 69.15900616 -27.91183472 64.01080322 C-27.56710114 63.04301941 -27.22236755 62.0752356 -26.8671875 61.078125 C-26.32821335 59.53484528 -26.32821335 59.53484528 -25.77835083 57.96038818 C-24.63052161 54.67925521 -23.47174493 51.40211485 -22.3125 48.125 C-21.55655905 45.97030897 -20.80134445 43.81536297 -20.046875 41.66015625 C-18.56541644 37.43038326 -17.07575917 33.20362399 -15.58105469 28.97851562 C-14.16816093 24.97587297 -12.78418868 20.96514059 -11.42675781 16.94335938 C-11.11239777 16.01988708 -10.79803772 15.09641479 -10.47415161 14.1449585 C-9.88839711 12.42070388 -9.30940856 10.69413001 -8.73849487 8.96490479 C-8.47819489 8.20272644 -8.2178949 7.4405481 -7.94970703 6.65527344 C-7.72864288 5.9938031 -7.50757874 5.33233276 -7.27981567 4.65081787 C-5.47242054 0.84036452 -4.27802747 -0.15556464 0 0 Z " fill="#3E65F9" transform="translate(508.4375,651.125)"/>
<path d="M0 0 C5.13656401 1.81290495 7.56523417 4.13046834 10 9 C10.61454266 13.30179863 10.31986327 15.38396703 8.3125 19.25 C4.76412865 23.46968485 2.58944665 24.82339482 -2.9375 25.4375 C-7.19734994 25.26839443 -9.74663122 23.78860181 -13 21 C-15.53627973 16.81076554 -15.94746042 12.77744875 -15 8 C-11.09676958 1.5464994 -7.55938555 -0.50395904 0 0 Z " fill="#EFEFEF" transform="translate(615,423)"/>
<path d="M0 0 C3.78171013 2.03630545 7.09528802 4.08475871 9 8 C9.58052227 12.28941457 9.47224019 15.85668166 7.8125 19.875 C5.15722613 22.98807971 2.99804331 24.66391508 -1.11328125 25.35546875 C-5.26763753 25.61380687 -8.11792301 25.38613467 -11.4375 22.75 C-14.81439385 19.12601636 -15.82874435 17.54130086 -16.375 12.625 C-15.92515417 8.27649031 -14.79790424 6.32723747 -12 3 C-8.07324125 -0.18385844 -4.98824428 -0.6125914 0 0 Z " fill="#F0F0F0" transform="translate(414,423)"/>
</svg>
